<svg xmlns="http://www.w3.org/2000/svg" xmlns:xlink="http://www.w3.org/1999/xlink" width="92.120752" height="18.587736" viewBox="0 0 24.373615 4.918005" xmlns:v="https://vecta.io/nano"><style><![CDATA[.B{stroke-width:.132292}]]></style><defs><linearGradient id="A" gradientUnits="userSpaceOnUse"><stop offset="0" stop-color="#ff8080"/></linearGradient><linearGradient xlink:href="#A" id="B" x1="76.080819" y1="86.320091" x2="206.500915" y2="86.320091"/><linearGradient id="C" x1="7.92256" y1="2.59281" x2="31.42699" y2="2.59281" gradientUnits="userSpaceOnUse"><stop offset="0" stop-color="red"/></linearGradient><linearGradient xlink:href="#A" id="D" x1="7.997091" y1="2.50533" x2="31.268971" y2="2.50533"/></defs><path d="M8.094651 3.487581V1.615588h1.604565v.267427h.267428v.534855h-.267428v.267428h.267428v.534855h-.267428v.267428zm.534855-1.06971h.802283v-.534855h-.802283zm0 .802283h.802283v-.534855h-.802283zm1.604565.267427V2.150443h.267428v-.267427h.267427v-.267427h.802283v.267427h.267427v.267427h.267428v1.337138h-.534855v-.534855h-.802283v.534855zm.534855-.802283h.802283v-.534855h-.267428v-.267427h-.267427v.267427h-.267428zm2.13942.802283v-.267428h-.267427v-.267428h-.267428v-.802282h.267428v-.267427h.267427v-.267427h1.06971v.267427h.267428v.267427h-.534855v-.267427h-.534855v.267427h-.267428v.802283h.267428v.267428h.534855v-.267428h.534855v.267428h-.267428v.267428zm1.604565 0V1.615588h.534855v.802283h.267428v-.267428h.267427v-.267427h.267428v-.267427h.534855v.267427h-.267428v.267427h-.267427v.267428h-.267428v.267428h.267428v.267428h.267427v.267428h.267428v.267427h-.802283v-.267428h-.267427v-.267428h-.267428v.534855z" fill="#b3b3b3" stroke="#b3b3b3" class="B"/><path d="M 7.988709,3.3024308 V 1.4304383 h 1.604565 v 0.2674275 h 0.2674275 v 0.534855 H 9.593274 v 0.2674275 h 0.2674275 v 0.534855 H 9.593274 v 0.2674275 z m 0.534855,-1.06971 H 9.3258465 V 1.6978658 H 8.523564 Z m 0,0.8022825 H 9.3258465 V 2.5001483 H 8.523564 Z" fill="url(#C)" stroke="url(#D)" class="B"/><path d="M 10.128129,3.3024308 V 1.9652933 h 0.267428 V 1.6978658 h 0.267427 V 1.4304383 h 0.802283 v 0.2674275 h 0.267427 v 0.2674275 h 0.267428 v 1.3371375 h -0.534855 v -0.534855 h -0.802283 v 0.534855 z m 0.534855,-0.8022825 h 0.802283 V 1.9652933 H 11.197839 V 1.6978658 h -0.267427 v 0.2674275 h -0.267428 z" fill="url(#C)" stroke="url(#D)" class="B"/><path d="M 12.802404,3.3024308 V 3.0350033 H 12.534977 V 2.7675758 H 12.267549 V 1.9652933 h 0.267428 V 1.6978658 h 0.267427 V 1.4304383 h 1.06971 v 0.2674275 h 0.267428 V 1.9652933 H 13.604687 V 1.6978658 h -0.534855 v 0.2674275 h -0.267428 v 0.8022825 h 0.267428 v 0.2674275 h 0.534855 V 2.7675758 h 0.534855 v 0.2674275 h -0.267428 v 0.2674275 z" fill="url(#C)" stroke="url(#D)" class="B"/><path d="M 14.406969,3.3024308 V 1.4304383 h 0.534855 v 0.8022825 h 0.267428 V 1.9652933 h 0.267427 V 1.6978658 h 0.267428 V 1.4304383 h 0.534855 v 0.2674275 h -0.267428 v 0.2674275 h -0.267427 v 0.2674275 h -0.267428 v 0.2674275 h 0.267428 v 0.2674275 h 0.267427 v 0.2674275 h 0.267428 V 3.3024308 H 15.476679 V 3.0350033 H 15.209252 V 2.7675758 h -0.267428 v 0.534855 z" fill="url(#C)" stroke="url(#D)" class="B"/><g transform="matrix(.9239 0 0 .8861 -117.23591 -118.58339)" fill="none"><rect width="26.127975" height="5.216415" x="127.06271" y="134.06633" ry="2.608207" stroke="#b3b3b3" stroke-width=".174623"/><rect width="129.55423" height="25.865324" x="76.513756" y="86.753021" ry="12.932662" stroke="url(#B)" stroke-width=".865861" transform="matrix(.2017 0 0 .2017 111.55235 116.41145)"/></g></svg>