<svg xmlns="http://www.w3.org/2000/svg" xmlns:xlink="http://www.w3.org/1999/xlink" width="121.881966" height="20.976069" viewBox="0 0 32.247936 5.549918" xmlns:v="https://vecta.io/nano"><defs><linearGradient id="A" gradientUnits="userSpaceOnUse"><stop offset="0" stop-color="#ff8080"/></linearGradient><linearGradient id="B" x1="2.2853" y1="2.77504" x2="25.78973" y2="2.77504" gradientUnits="userSpaceOnUse"><stop offset="0" stop-color="red"/></linearGradient><linearGradient xlink:href="#A" id="C" x1="2.351439" y1="2.682452" x2="25.617564" y2="2.682452"/><linearGradient xlink:href="#A" id="D" x1="76.080819" y1="86.320091" x2="206.500915" y2="86.320091"/><path id="E" d="M13.850832 3.669813V2.065248h-.534855V1.79782h1.604565v.267427h-.534855v1.604565z"/></defs><g fill="#b3b3b3" stroke="#b3b3b3" stroke-width=".132292"><path d="M2.35145 3.669813V1.79782h1.604565v.267427h.267428v.534855h-.267428v.267428h.267428v.534855h-.267428v.267428zm.534855-1.06971h.802283v-.534855h-.802282zm0 .802283h.802283V2.86753h-.802282zm1.604565.267427V2.332675h.267428v-.267428h.267428V1.79782h.802283v.267427h.267427v.267428h.267428v1.337138h-.534855v-.534855h-.802283v.534855zm.534855-.802283h.802283v-.534855H5.56058v-.267428h-.267428v.267428h-.267428zm2.13942.802283v-.267428h-.267427v-.267428H6.63029v-.802282h.267428v-.267428h.267427V1.79782h1.06971v.267427h.267428v.267428h-.534855v-.267428h-.534855v.267428h-.267428v.802283h.267428v.267428h.534855v-.267428h.534855v.267428h-.267428v.267428zm1.604565 0V1.79782h.534855v.802283h.267427v-.267428h.267428v-.267428h.267427V1.79782h.534855v.267427h-.267427v.267428h-.267428v.267428H9.83942v.267428h.267427v.267428h.267428v.267428h.267427v.267427H9.83942v-.267428h-.267428v-.267428h-.267427v.534855z"/><use xlink:href="#E"/><path d="M15.455397 3.669813v-.267428h-.267427V2.065248h.267427V1.79782h1.337138v.267427h.267427v1.337138h-.267427v.267428zm.267428-.267428h.802282V2.065248h-.802282zm4.011412.267428v-.267428h-.267427v-.267428h.534855v.267428h.802282V2.86753h-1.06971v-.267427h-.267427v-.534855h.267427V1.79782h1.337138v.267427h.267427v.267428h-.534855v-.267428h-.802282v.534855h1.06971v.267428h.267427v.534855h-.267427v.267428z"/><use xlink:href="#E" x="8.55768"/><path d="M23.745649 3.669813V2.332675h.267427v-.267428h.267428V1.79782h.802282v.267427h.267428v.267428h.267427v1.337138h-.534855v-.534855h-.802282v.534855zm.534855-.802283h.802282v-.534855h-.267427v-.267428h-.267428v.267428h-.267427zm1.604566.802283V1.79782h1.604565v.267427h.267428v.802283h-.534855v.267428h.267427v.267428h.267428v.267428h-.802283v-.267428h-.267427v-.267428h-.267428v.534855zm.534855-.802283h.534855v-.267427h.267428v-.534855h-.802283z"/><use xlink:href="#E" x="14.97594"/></g><g fill="url(#B)" stroke="url(#C)" stroke-width=".132292"><path d="M 2.3514495,3.4846627 V 1.6126702 h 1.604565 V 1.8800977 H 4.223442 v 0.534855 H 3.9560145 V 2.6823802 H 4.223442 v 0.534855 H 3.9560145 v 0.2674275 z m 0.534855,-1.06971 H 3.688587 V 1.8800977 H 2.8863045 Z m 0,0.8022825 H 3.688587 V 2.6823802 H 2.8863045 Z"/><path d="M 4.4908695,3.4846627 V 2.1475252 H 4.758297 V 1.8800977 H 5.0257245 V 1.6126702 H 5.828007 V 1.8800977 H 6.0954345 V 2.1475252 H 6.3628621 V 3.4846627 H 5.828007 V 2.9498077 H 5.0257245 v 0.534855 z M 5.0257245,2.6823802 H 5.828007 V 2.1475252 H 5.5605795 V 1.8800977 H 5.293152 V 2.1475252 H 5.0257245 Z"/><path d="M 7.1651446,3.4846627 V 3.2172352 H 6.8977171 V 2.9498077 H 6.6302896 V 2.1475252 H 6.8977171 V 1.8800977 H 7.1651446 V 1.6126702 h 1.06971 V 1.8800977 H 8.5022821 V 2.1475252 H 7.9674271 V 1.8800977 H 7.4325721 V 2.1475252 H 7.1651446 v 0.8022825 h 0.2674275 v 0.2674275 h 0.534855 V 2.9498077 h 0.534855 V 3.2172352 H 8.2348546 v 0.2674275 z"/><path d="M 8.7697096,3.4846627 V 1.6126702 h 0.534855 V 2.4149527 H 9.5719921 V 2.1475252 H 9.8394196 V 1.8800977 H 10.106847 V 1.6126702 h 0.534855 V 1.8800977 H 10.374275 V 2.1475252 H 10.106847 V 2.4149527 H 9.8394196 v 0.2674275 h 0.2674274 v 0.2674275 h 0.267428 v 0.2674275 h 0.267427 V 3.4846627 H 9.8394196 V 3.2172352 H 9.5719921 V 2.9498077 H 9.3045646 v 0.534855 z"/><path d="M 13.850832,3.4846627 V 1.8800977 H 13.315977 V 1.6126702 h 1.604565 v 0.2674275 h -0.534855 v 1.604565 z"/><path d="M 15.455397,3.4846627 V 3.2172352 H 15.18797 V 1.8800977 h 0.267427 V 1.6126702 h 1.337138 v 0.2674275 h 0.267427 v 1.3371375 h -0.267427 v 0.2674275 z m 0.267428,-0.2674275 h 0.802282 V 1.8800977 h -0.802282 z"/><path d="M 19.734237,3.4846627 V 3.2172352 H 19.46681 V 2.9498077 h 0.534855 v 0.2674275 h 0.802282 v -0.534855 h -1.06971 V 2.4149527 H 19.46681 v -0.534855 h 0.267427 V 1.6126702 h 1.337138 v 0.2674275 h 0.267427 V 2.1475252 H 20.803947 V 1.8800977 h -0.802282 v 0.534855 h 1.06971 v 0.2674275 h 0.267427 v 0.534855 h -0.267427 v 0.2674275 z"/><path d="M 22.408512,3.4846627 V 1.8800977 H 21.873657 V 1.6126702 h 1.604565 v 0.2674275 h -0.534855 v 1.604565 z"/><path d="M 23.745649,3.4846627 V 2.1475252 h 0.267427 V 1.8800977 h 0.267428 V 1.6126702 h 0.802282 v 0.2674275 h 0.267428 v 0.2674275 h 0.267427 v 1.3371375 h -0.534855 v -0.534855 h -0.802282 v 0.534855 z m 0.534855,-0.8022825 h 0.802282 V 2.1475252 H 24.815359 V 1.8800977 h -0.267428 v 0.2674275 h -0.267427 z"/><path d="M 25.88507,3.4846627 V 1.6126702 h 1.604565 v 0.2674275 h 0.267428 v 0.8022825 h -0.534855 v 0.2674275 h 0.267427 v 0.2674275 h 0.267428 V 3.4846627 H 26.95478 V 3.2172352 H 26.687353 V 2.9498077 h -0.267428 v 0.534855 z M 26.419925,2.6823802 H 26.95478 V 2.4149527 h 0.267428 v -0.534855 h -0.802283 z"/><path d="M 28.826772,3.4846627 V 1.8800977 H 28.291917 V 1.6126702 h 1.604565 v 0.2674275 h -0.534855 v 1.604565 z"/></g><g transform="matrix(1.222347 0 0 1 -155.111 -133.82014)" fill="none"><rect width="26.127975" height="5.216415" x="127.06271" y="134.06633" ry="2.608207" stroke="#b3b3b3" stroke-width=".174623"/><rect width="129.55423" height="25.865324" x="76.513756" y="86.753021" ry="12.932662" stroke="url(#D)" stroke-width=".865861" transform="matrix(.201676 0 0 .201676 111.55235 116.41145)"/></g></svg>