<svg xmlns="http://www.w3.org/2000/svg" xmlns:xlink="http://www.w3.org/1999/xlink" width="133.18961" height="33.205664" viewBox="0 0 35.23975 8.785665" xmlns:v="https://vecta.io/nano"><g stroke="#b3b3b3" fill="#b3b3b3"><g transform="matrix(.1859 0 0 .1859 -16.135480951 -106.1742014328)"><path d="M147.072158 578.546085v2.645833h-2.645833v2.645833h-2.645833v2.645833h-2.645833v2.645833h2.645833v2.645833h2.645833v2.645833h2.645833v2.645833h7.9375v-2.645833h2.645833v-2.645833h2.645833v-2.645833h2.645833v-2.645833h-2.645833v-2.645833h-2.645833v-2.645833h-2.645833v-2.645833z" stroke-width=".547719"/><g stroke-width=".662346"><path d="M143.244375 572.910051h3.96875v1.322917h-3.96875z"/><path d="M145.890204 571.587114v3.96875h-1.322917v-3.96875zm8.466671 1.322937h3.96875v1.322917h-3.96875z"/><path d="M157.002704 571.587114v3.96875h-1.322917v-3.96875zm4.23334 6.614607h3.96875v1.322917h-3.96875z"/><path d="M163.881873 576.878784v3.96875h-1.322917v-3.96875zm-26.987499 1.322937h3.96875v1.322917h-3.96875z"/><path d="M139.540203 576.878784v3.96875h-1.322917v-3.96875z"/></g></g><path d="M5.896219 4.719033V1.408611h2.364588v.472918h.472917v.472918h.472917v1.418752h-.472917v.472918h-.472917v.472918zm.945835-.472918h.945835v-.472918h.472918V2.354446h-.472918v-.472918h-.945835zm8.786873.472918v-.472918h-.472918v-.472918h-.472917V2.354446h.472917v-.472918h.472918V1.40861h2.364587v.472917h-1.89167v.472917h-.472917v1.418753h.472917v.472918h.945835V3.30028h-.472917v-.472917h1.418752v1.89167zm3.783339 0v-.472918h-.472917v-.472918h-.472918V2.354446h.472918v-.472918h.472917V1.40861h2.364588v.472917h-1.89167v.472917h-.472918v1.418753h.472918v.472918h.945835V3.30028h-.472918v-.472917h1.418753v1.89167zm3.310422 0V1.408611h.945835v2.837505h1.89167v.472918zm3.310423 0V1.408611h3.310423v.472917h-2.364588v.945835h1.89167v.472917h-1.89167v.945835h2.364588v.472918z" stroke-width=".233945"/><g stroke-width=".132292"><path d="M.066146 8.719525v-.661456h.132291v-.132291h.132291v-.132291h.396874v.132291h.132291v.132291h.132291v.661456H.727602v-.264582H.330728v.264582zm.264583-.396874h.396874v-.264582H.595311v-.132291H.463019v.132291H.330728zm2.069035.396874v-.132291h-.132291v-.132291h.264582v.132291h.396874v-.264583h-.529165V8.19036h-.132291v-.264583h.132291v-.132291h.661456v.132291h.132291v.132291h-.264582v-.132291h-.396874v.264583h.529165v.132291h.132291v.264583H3.06122v.132291zm1.103309 0v-.132291h-.132291v-.793748h.264582v.793748h.396874v-.793748h.264583v.793748H4.16453v.132291zm.971018 0v-.926039h.793748v.132291h.132291v.396874h-.132291v.132291h-.529165v.264582zm.264583-.396874h.396874v-.396874h-.396874z"/><use xlink:href="#B"/><path d="M6.68071 8.719525v-.926039h.793748v.132291h.132291v.396874h-.264583v.132291h.132291v.132291h.132291v.132291h-.396874v-.132291h-.132291v-.132291h-.132291v.264582zm.264583-.396874h.264582V8.19036h.132291v-.264583h-.396874zm1.103308.396874v-.132291H7.91631v-.132291h-.132291v-.396874h.132291v-.132291h.132291v-.132291h.661456v.132291h-.529165v.132291h-.132291v.396874h.132291v.132291h.264583v-.264583h-.132291V8.19036h.396874v.529165zm.838727 0v-.661456h.132291v-.132291h.132291v-.132291h.396874v.132291h.132291v.132291h.132291v.661456h-.264582v-.264582H9.15191v.264582zm.264583-.396874h.396874v-.264582h-.132291v-.132291h-.132291v.132291H9.15191zm.971018.396874v-.926039h.264582v.793748h.529165v.132291zm.971017 0v-.661456h.132291v-.132291h.132292v-.132291h.396873v.132291h.132292v.132291h.132291v.661456h-.264583v-.264582h-.396873v.264582zm.264583-.396874h.396873v-.264582h-.132291v-.132291h-.132291v.132291h-.132291zm1.103309.396874v-.132291h-.132291v-.132291h-.132291v-.396874h.132291v-.132291h.132291v-.132291h.529165v.132291h.132292v.132291h-.264583v-.132291h-.264583v.132291h-.132291v.396874h.132291v.132291h.264583v-.132291h.264583v.132291h-.132292v.132291zm1.235601 0v-.793747h-.264582v-.132291h.793747v.132291h-.264582v.793747z"/><use xlink:href="#C"/><path d="M15.771766 8.719525v-.132291h-.132291v-.132291h-.132291v-.396874h.132291v-.132291h.132291v-.132291h.529165v.132291h.132291v.132291h-.264582v-.132291h-.264583v.132291h-.132291v.396874h.132291v.132291h.264583v-.132291h.264582v.132291h-.132291v.132291zm2.201327 0v-.132291h-.132292v-.132291h-.132291v-.396874h.132291v-.132291h.132292v-.132291h.529165v.132291h.132291v.132291h-.264583v-.132291h-.264582v.132291h-.132291v.396874h.132291v.132291h.264582v-.132291h.264583v.132291h-.132291v.132291z"/><use xlink:href="#D"/><use xlink:href="#E"/><use xlink:href="#C" x="6.614565"/><path d="M22.121747 8.719525v-.926039h.264582v.132291h.132291v.132291h.132292v.132291h.132291v-.396874h.264582v.926039h-.264582v-.264582h-.132291v-.132291h-.132292V8.19036h-.132291v.529165z"/><use xlink:href="#B" x="17.647656"/><path d="M25.558674 8.719525v-.132291h-.132291v-.132291h.264582v.132291h.396874v-.264583h-.529165V8.19036h-.132291v-.264583h.132291v-.132291h.661456v.132291h.132291v.132291h-.264582v-.132291h-.396874v.264583h.529165v.132291h.132291v.264583h-.132291v.132291z"/><use xlink:href="#E" x="6.614563"/><path d="M27.633002 8.719525v-.661456h.132291v-.132291h.132291v-.132291h.396874v.132291h.132291v.132291h.132292v.661456h-.264583v-.264582h-.396874v.264582zm.264582-.396874h.396874v-.264582h-.132291v-.132291h-.132291v.132291h-.132292zm.838728.396874v-.926039h.793747v.132291h.132291v.396874h-.132291v.132291h-.529165v.264582zm.264582-.396874h.396874v-.396874h-.396874zm2.201326.396874v-.132291h-.132291v-.132291h-.132291v-.396874h.132291v-.132291h.132291v-.132291h.661457v.132291h-.529165v.132291h-.132292v.396874h.132292v.132291h.264582v-.264583h-.132291V8.19036h.396874v.529165z"/><use xlink:href="#D" x="13.229128"/><path d="M33.144255 8.719525v-.926039h.264583v.132291h.132291v.132291h.132291v-.132291h.132292v-.132291h.264582v.926039h-.264582V8.19036h-.132292v.264582h-.132291V8.19036h-.132291v.529165zm1.10331 0v-.926039h.926039v.132291h-.661457v.264583h.529165v.132291h-.529165v.264583h.661457v.132291z"/></g></g><defs ><path id="B" d="M5.5774 8.719525v-.926039h.926039v.132291h-.661456v.264583h.529165v.132291h-.529165v.264583h.661456v.132291z"/><path id="C" d="M14.536165 8.719525v-.132291h.264583v-.661456h-.264583v-.132291h.793748v.132291h-.264583v.661456h.264583v.132291z"/><path id="D" d="M18.81182 8.719525v-.661456h.132291v-.132291h.132291v-.132291h.396874v.132291h.132291v.132291h.132291v.661456h-.264582v-.264582h-.396874v.264582zm.264582-.396874h.396874v-.264582h-.132291v-.132291h-.132292v.132291h-.132291z"/><path id="E" d="M19.915129 8.719525v-.926039h.264583v.132291h.132291v.132291h.132291v.132291h.132292v-.396874h.264582v.926039h-.264582v-.264582h-.132292v-.132291h-.132291V8.19036h-.132291v.529165z"/></defs></svg>