<?xml version="1.0" encoding="UTF-8" standalone="no"?>
<svg
   width="50.61311"
   height="10.362089"
   viewBox="0 0 13.391385 2.741636"
   stroke="#b3b3b3"
   fill="#b3b3b3"
   version="1.1"
   id="svg31367"
   sodipodi:docname="doggle_watermark_nano.svg"
   xmlns:inkscape="http://www.inkscape.org/namespaces/inkscape"
   xmlns:sodipodi="http://sodipodi.sourceforge.net/DTD/sodipodi-0.dtd"
   xmlns="http://www.w3.org/2000/svg"
   xmlns:svg="http://www.w3.org/2000/svg">
  <defs
     id="defs31371" />
  <sodipodi:namedview
     id="namedview31369"
     pagecolor="#ffffff"
     bordercolor="#666666"
     borderopacity="1.0"
     inkscape:pageshadow="2"
     inkscape:pageopacity="0.0"
     inkscape:pagecheckerboard="0"
     showgrid="false" />
  <g
     transform="matrix(.1051 0 0 .1051 -12.402128039 -60.0420520392)"
     id="g31363">
    <path
       d="M147.072158 578.546085v2.645833h-2.645833v2.645833h-2.645833v2.645833h-2.645833v2.645833h2.645833v2.645833h2.645833v2.645833h2.645833v2.645833h7.9375v-2.645833h2.645833v-2.645833h2.645833v-2.645833h2.645833v-2.645833h-2.645833v-2.645833h-2.645833v-2.645833h-2.645833v-2.645833z"
       stroke-width=".547719"
       id="path31349" />
    <g
       stroke-width=".662346"
       id="g31361">
      <path
         d="M143.244375 572.910051h3.96875v1.322917h-3.96875z"
         id="path31351" />
      <path
         d="M145.890204 571.587114v3.96875h-1.322917v-3.96875zm8.466671 1.322937h3.96875v1.322917h-3.96875z"
         id="path31353" />
      <path
         d="M157.002704 571.587114v3.96875h-1.322917v-3.96875zm4.23334 6.614607h3.96875v1.322917h-3.96875z"
         id="path31355" />
      <path
         d="M163.881873 576.878784v3.96875h-1.322917v-3.96875zm-26.987499 1.322937h3.96875v1.322917h-3.96875z"
         id="path31357" />
      <path
         d="M139.540203 576.878784v3.96875h-1.322917v-3.96875z"
         id="path31359" />
    </g>
  </g>
  <path
     d="M.066142 2.668723V.796731h1.337137v.267428h.267428v.267428h.267427v.802283h-.267427v.267428h-.267428v.267427zm.534855-.267427h.534855v-.267428h.267427v-.802282h-.267427v-.267428H.600997zm4.96884.267427v-.267427H5.30241v-.267428h-.267428v-.802282h.267428v-.267428h.267427V.796731h1.337138v.267428h-1.06971v.267428h-.267428v.802283h.267428v.267428h.534855v-.534855h-.267428v-.267427h.802283v1.06971zm2.13942 0v-.267427H7.44183v-.267428h-.267428v-.802282h.267428v-.267428h.267428V.796731h1.337137v.267428h-1.06971v.267428h-.267427v.802283h.267428v.267428h.534855v-.534855h-.267428v-.267427h.802283v1.06971zm1.871992 0V.796731h.534855v1.604565h1.06971v.267428zm1.871993 0V.796731h1.871993v.267428h-1.337138v.534855h1.06971v.267427h-1.06971v.534855h1.337138v.267428z"
     stroke-width=".132292"
     id="path31365" />
  <g
     transform="matrix(.1051 0 0 .1051 -12.402128039 -60.0420520392)"
     id="g31444">
    <path
       d="M147.072158 578.546085v2.645833h-2.645833v2.645833h-2.645833v2.645833h-2.645833v2.645833h2.645833v2.645833h2.645833v2.645833h2.645833v2.645833h7.9375v-2.645833h2.645833v-2.645833h2.645833v-2.645833h2.645833v-2.645833h-2.645833v-2.645833h-2.645833v-2.645833h-2.645833v-2.645833z"
       stroke-width=".547719"
       id="path31430" />
    <g
       stroke-width=".662346"
       id="g31442">
      <path
         d="M143.244375 572.910051h3.96875v1.322917h-3.96875z"
         id="path31432" />
      <path
         d="M145.890204 571.587114v3.96875h-1.322917v-3.96875zm8.466671 1.322937h3.96875v1.322917h-3.96875z"
         id="path31434" />
      <path
         d="M157.002704 571.587114v3.96875h-1.322917v-3.96875zm4.23334 6.614607h3.96875v1.322917h-3.96875z"
         id="path31436" />
      <path
         d="M163.881873 576.878784v3.96875h-1.322917v-3.96875zm-26.987499 1.322937h3.96875v1.322917h-3.96875z"
         id="path31438" />
      <path
         d="M139.540203 576.878784v3.96875h-1.322917v-3.96875z"
         id="path31440" />
    </g>
  </g>
</svg>
