<svg xmlns="http://www.w3.org/2000/svg" xmlns:xlink="http://www.w3.org/1999/xlink" width="75.61167" height="10.981784" viewBox="0 0 20.005587 2.905597" xmlns:v="https://vecta.io/nano"><style><![CDATA[.B{stroke-width:.132292}.C{stroke-width:.069613}]]></style><defs><linearGradient id="A" x1=".00002" y1="1.9385" x2="23.50445" y2="1.9385" gradientUnits="userSpaceOnUse"><stop offset="0" stop-color="red"/></linearGradient><linearGradient id="B" x1=".07455" y1="1.851136" x2="23.34643" y2="1.851136" gradientUnits="userSpaceOnUse"><stop offset="0" stop-color="#ff8080"/></linearGradient><path id="C" d="M143.244375 572.910051h3.96875v1.322917h-3.96875z"/><path id="D" d="M145.890204 571.587114v3.96875h-1.322917v-3.96875z"/><path id="E" d="M11.138633.171307h.417116v.139039h-.417116z"/></defs><path d="M.706943 2.83298v-.267427H.439515v-.267428H.172088v-.802282h.267428v-.267428h.267427V.960987H2.04408v.267428H.97437v.267428H.706943v.802283H.97437v.267428h.534855v-.534855h-.267427V1.76327h.802283v1.06971zm1.604565 0V1.495843h.267428v-.267428h.267428V.960987h.802283v.267428h.267427v.267428H4.1835V2.83298h-.534855v-.534855h-.802282v.534855zm.534855-.802282h.802283v-.534855h-.267428v-.267428H3.11379v.267428h-.267427zm1.604565.802282V.960987h.534855v.267428h.267428v.267428h.267428v-.267428h.267428V.960987h.534855V2.83298h-.534855V1.76327h-.267428v.534855H5.25321V1.76327h-.267428v1.06971zm2.13942 0V.960987H8.46234v.267428H7.125203v.534855h1.06971v.267428h-1.06971v.534855H8.46234v.267428zm8.000542 0v-.267427h-.267427v-.267428h-.267428v-.267428h-.267427V.960987h.534855v.802283h.267427v.267427h.267428V1.76327h.267427V.960987h.534855v1.06971h-.267427v.267428h-.267428v.267428h-.267427v.267428zm1.337138 0V.960987h1.871993v.267428h-1.337138v.534855h1.06971v.267428h-1.06971v.534855h1.337138v.267428zm2.139421 0V.960987h1.604565v.267428h.267427v.802283h-.534855v.267428h.267428v.267428h.267427v.267427h-.802282v-.267427h-.267428v-.267428h-.267427v.534855zm.534855-.802282h.534855V1.76327h.267427v-.534855h-.802282z" fill="#b3b3b3" stroke="#b3b3b3" class="B"/><path d="M 0.60100101,2.6478299 V 2.3804024 H 0.3335735 V 2.1129749 H 0.066146 V 1.3106924 H 0.3335735 V 1.0432649 H 0.60100101 V 0.77583734 H 1.9381385 V 1.0432649 H 0.86842851 v 0.2674275 h -0.2674275 v 0.8022825 h 0.2674275 V 2.3804024 H 1.4032835 V 1.8455474 H 1.135856 V 1.5781199 h 0.8022825 v 1.06971 z" fill="url(#A)" stroke="url(#B)" class="B"/><path d="M 2.205566,2.6478299 V 1.3106924 H 2.4729935 V 1.0432649 H 2.740421 V 0.77583734 H 3.5427036 V 1.0432649 H 3.8101311 V 1.3106924 H 4.0775586 V 2.6478299 H 3.5427036 V 2.1129749 H 2.740421 v 0.534855 z M 2.740421,1.8455474 H 3.5427036 V 1.3106924 H 3.275276 V 1.0432649 H 3.0078485 V 1.3106924 H 2.740421 Z" fill="url(#A)" stroke="url(#B)" class="B"/><path d="M 4.3449861,2.6478299 V 0.77583734 h 0.534855 V 1.0432649 H 5.1472686 V 1.3106924 H 5.4146961 V 1.0432649 H 5.6821236 V 0.77583734 h 0.534855 V 2.6478299 h -0.534855 v -1.06971 H 5.4146961 v 0.534855 H 5.1472686 V 1.5781199 H 4.8798411 v 1.06971 z" fill="url(#A)" stroke="url(#B)" class="B"/><path d="M 6.4844061,2.6478299 V 0.77583734 H 8.3563986 V 1.0432649 H 7.0192611 v 0.534855 h 1.06971 v 0.2674275 h -1.06971 v 0.534855 h 1.3371375 v 0.2674275 z" fill="url(#A)" stroke="url(#B)" class="B"/><path d="M 14.484949,2.6478299 V 2.3804024 H 14.217521 V 2.1129749 H 13.950094 V 1.8455474 H 13.682666 V 0.77583734 h 0.534855 V 1.5781199 h 0.267428 v 0.2674275 h 0.267427 V 1.5781199 h 0.267428 V 0.77583734 h 0.534855 V 1.8455474 h -0.267428 v 0.2674275 h -0.267427 v 0.2674275 h -0.267428 v 0.2674275 z" fill="url(#A)" stroke="url(#B)" class="B"/><path d="M 15.822087,2.6478299 V 0.77583734 h 1.871992 V 1.0432649 h -1.337137 v 0.534855 h 1.06971 v 0.2674275 h -1.06971 v 0.534855 h 1.337137 v 0.2674275 z" fill="url(#A)" stroke="url(#B)" class="B"/><path d="M 17.961507,2.6478299 V 0.77583734 h 1.604565 V 1.0432649 H 19.8335 v 0.8022825 h -0.534855 v 0.2674275 h 0.267427 V 2.3804024 H 19.8335 V 2.6478299 H 19.031217 V 2.3804024 H 18.76379 V 2.1129749 h -0.267428 v 0.534855 z m 0.534855,-0.8022825 h 0.534855 V 1.5781199 h 0.267428 v -0.534855 h -0.802283 z" fill="url(#A)" stroke="url(#B)" class="B"/><g transform="matrix(.1051 0 0 .1051 -3.829432039 -59.8780950392)" fill="#b3b3b3" stroke="#b3b3b3"><path d="M147.072158 578.546085v2.645833h-2.645833v2.645833h-2.645833v2.645833h-2.645833v2.645833h2.645833v2.645833h2.645833v2.645833h2.645833v2.645833h7.9375v-2.645833h2.645833v-2.645833h2.645833v-2.645833h2.645833v-2.645833h-2.645833v-2.645833h-2.645833v-2.645833h-2.645833v-2.645833z" stroke-width=".547719"/><g stroke-width=".662346"><use xlink:href="#C"/><use xlink:href="#D"/><use xlink:href="#C" x="11.1125"/><use xlink:href="#D" x="11.1125"/><use xlink:href="#C" x="17.991669" y="5.29167"/><use xlink:href="#D" x="17.991669" y="5.29167"/><use xlink:href="#C" x="-6.350001" y="5.29167"/><use xlink:href="#D" x="-6.350001" y="5.29167"/></g></g><g fill="red" stroke="#ff8080"><path d="M11.541642.766236v.27809h-.27809v.27809h-.27809v.27809h-.27809v.27808h.27809v.27809h.27809v.27809h.27809v.27809h.83427v-.27809h.27809v-.27809h.27809v-.27809h.27809v-.27808h-.27809v-.27809h-.27809v-.27809h-.27809v-.27809z" stroke-width=".137054"/><g class="C"><use xlink:href="#E"/><path d="M11.41671.032267v.417116h-.139039V.032267z"/><use xlink:href="#E" x="1.16797"/><path d="M12.58468.032267v.417116h-.139039V.032267z"/><use xlink:href="#E" x="1.89101" y="0.55618"/><path d="M13.30772.588447v.417116h-.139039V.588447z"/><use xlink:href="#E" x="-0.66742" y="0.55618"/><path d="M10.74929.588447v.417116h-.139039V.588447z"/></g></g></svg>