<svg xmlns="http://www.w3.org/2000/svg" xmlns:xlink="http://www.w3.org/1999/xlink" width="99.711404" height="20.975555" viewBox="0 0 26.381975 5.549782" xmlns:v="https://vecta.io/nano"><defs><linearGradient id="A" gradientUnits="userSpaceOnUse"><stop offset="0" stop-color="#ff8080"/></linearGradient><linearGradient xlink:href="#A" id="B" x1="127.954362" y1="117.945167" x2="154.256961" y2="117.945167"/><linearGradient xlink:href="#A" id="C" x1="129.358571" y1="122.96415" x2="152.630451" y2="122.96415"/><path id="D" d="M4.01771 3.66975v-.26743h-.26743V2.06518h.26743v-.26743h1.33714v.26743h.26742v1.33714h-.26742v.26743zm.26743-.26743h.80228V2.06518h-.80228z"/></defs><g fill="#b3b3b3" stroke="#b3b3b3" stroke-width=".132292"><path d="M1.61086 3.66975v-1.872h.53486v.80229H2.948v-.80229h.53485v1.872H2.948v-.80229h-.80228v.80229z"/><use xlink:href="#D"/><path d="M6.15713 3.66975v-.26743H5.8897V1.79775h.53486v1.06971h.26742V1.79775h.26743v1.06971h.26743V1.79775h.53485v1.60457h-.26742v.26743h-.26743v-.26743h-.26743v-.26743h-.26743v.26743h-.26742v.26743zm4.81369 0V2.06518h-.53485v-.26743h1.60456v.26743h-.53485v1.60457z"/><use xlink:href="#D" x="8.55768"/><path d="M16.5868 3.66975v-1.872h1.60457v.26743h.26742v.80228h-.26742v.26743h-1.06971v.53486zm.53486-.80229h.80228v-.80228h-.80228zm1.87199.80229v-1.872h.53485v1.60457h1.06971v.26743zm1.87199 0V2.33261h.26743v-.26743h.26743v-.26743h.80228v.26743h.26743v.26743h.26742v1.33714h-.53485v-.53486h-.80228v.53486zm.53486-.80229h.80228v-.53485h-.26743v-.26743h-.26743v.26743h-.26742zm2.40684.80229v-.80229h-.26742v-.26742h-.26743v-.80229h.53485v.80229h.53486v-.80229h.53485v.80229h-.26742v.26742h-.26743v.80229z"/></g><g transform="translate(-127.84527 -120.27677)" fill="red" stroke-width=".132292"><path d="m 129.35019,123.76137 v -1.872 h 0.53485 v 0.80229 h 0.80229 v -0.80229 h 0.53485 v 1.872 h -0.53485 v -0.80229 h -0.80229 v 0.80229 z" stroke="url(#C)"/><path d="m 131.75704,123.76137 v -0.26743 h -0.26743 v -1.33714 h 0.26743 v -0.26743 h 1.33713 v 0.26743 h 0.26743 v 1.33714 h -0.26743 v 0.26743 z m 0.26742,-0.26743 h 0.80229 v -1.33714 h -0.80229 z" stroke="url(#C)"/><path d="m 133.89646,123.76137 v -0.26743 h -0.26743 v -1.60457 h 0.53485 v 1.06971 h 0.26743 v -1.06971 h 0.26743 v 1.06971 h 0.26743 v -1.06971 h 0.53485 v 1.60457 h -0.26743 v 0.26743 h -0.26742 v -0.26743 h -0.26743 v -0.26743 h -0.26743 v 0.26743 h -0.26743 v 0.26743 z" stroke="url(#C)"/><path d="m 138.71015,123.76137 v -1.60457 h -0.53485 v -0.26743 h 1.60456 v 0.26743 h -0.53485 v 1.60457 z" stroke="url(#C)"/><path d="m 140.31472,123.76137 v -0.26743 h -0.26743 v -1.33714 h 0.26743 v -0.26743 h 1.33713 v 0.26743 h 0.26743 v 1.33714 h -0.26743 v 0.26743 z m 0.26742,-0.26743 h 0.80229 v -1.33714 h -0.80229 z" stroke="url(#C)"/><path d="m 144.32613,123.76137 v -1.872 h 1.60456 v 0.26743 h 0.26743 v 0.80228 h -0.26743 v 0.26743 h -1.06971 v 0.53486 z m 0.53485,-0.80229 h 0.80229 v -0.80228 h -0.80229 z" stroke="url(#C)"/><path d="m 146.73298,123.76137 v -1.872 h 0.53485 v 1.60457 h 1.06971 v 0.26743 z" stroke="url(#C)"/><path d="m 148.60497,123.76137 v -1.33714 h 0.26743 v -0.26743 h 0.26742 v -0.26743 h 0.80229 v 0.26743 h 0.26742 v 0.26743 h 0.26743 v 1.33714 h -0.53485 v -0.53486 h -0.80229 v 0.53486 z m 0.53485,-0.80229 h 0.80229 v -0.53485 h -0.26743 v -0.26743 h -0.26743 v 0.26743 h -0.26743 z" stroke="url(#C)"/><path d="m 151.54667,123.76137 v -0.80229 h -0.26743 v -0.26742 h -0.26742 v -0.80229 h 0.53485 v 0.80229 h 0.53486 v -0.80229 h 0.53485 v 0.80229 h -0.26743 v 0.26742 h -0.26742 v 0.80229 z" stroke="url(#C)"/></g><g transform="translate(-127.95436 -117.94517)" fill="none" stroke-width=".174623"><rect width="26.127975" height="5.216415" x="128.12105" y="118.19122" ry="2.608207" stroke="#b3b3b3"/><rect width="26.127975" height="5.216415" x="128.04167" y="118.03248" ry="2.608207" stroke="url(#B)"/></g></svg>