<svg xmlns="http://www.w3.org/2000/svg" xmlns:xlink="http://www.w3.org/1999/xlink" width="99.711412" height="20.976069" viewBox="0 0 26.381977 5.549918" xmlns:v="https://vecta.io/nano"><style><![CDATA[.B{stroke-width:.132292}]]></style><defs><linearGradient id="A" gradientUnits="userSpaceOnUse"><stop offset="0" stop-color="#ff8080"/></linearGradient><linearGradient xlink:href="#A" id="B" x1="76.080819" y1="86.320091" x2="206.500915" y2="86.320091"/><linearGradient id="C" x1="2.50849" y1="2.77504" x2="26.01292" y2="2.77504" gradientUnits="userSpaceOnUse"><stop offset="0" stop-color="red"/></linearGradient><linearGradient xlink:href="#A" id="D" x1="2.583021" y1="2.68756" x2="25.854901" y2="2.68756"/><path id="E" d="M13.377681 3.669811V2.332673h.267427v-.267428h.267428v-.267427h.802282v.267427h.267428v.267428h.267427v1.337138h-.534855v-.534855h-.802282v.534855zm.534855-.802283h.802282v-.534855h-.267427v-.267428h-.267428v.267428h-.267427z"/></defs><g fill="#b3b3b3" stroke="#b3b3b3" class="B"><path d="M2.680581 3.669811V1.797818h1.604565v.267427h.267427v.802283h-.267427v.267428h-1.06971v.534855zm.534855-.802283h.802283v-.802282h-.802283zm1.871993.802283V1.797818h.534855v1.604565h1.06971v.267428zm1.871992 0V2.332673h.267427v-.267428h.267428v-.267427h.802283v.267427h.267428v.267428h.267428v1.337138H8.29656v-.534855h-.802283v.534855zm.534855-.802283h.802283v-.534855h-.267428v-.267428h-.267428v.267428h-.267428zm2.406848.802283v-.802283h-.267428v-.267427h-.267428v-.802283h.534855v.802283h.534855v-.802283h.534855v.802283h-.267428v.267427h-.267427v.802283z"/><use xlink:href="#E"/><path d="M16.051956 3.669811v-.267428h-.267427v-.267428h-.267428v-.802282h.267428v-.267428h.267427v-.267427h1.337138v.267427h-1.06971v.267428h-.267428v.802283h.267428v.267428h.534855v-.534855h-.267428v-.267427h.802283v1.06971z"/><use xlink:href="#E" x="4.278841"/><path d="M20.063369 3.669811v-.267428h.534855V2.065246h-.534855v-.267427h1.604565v.267427h-.534855v1.337137h.534855v.267428zm1.871992 0V1.797818h.534855v.267427h.267427v.267428h.267428v.267428h.267427v-.802283h.534855v1.871993h-.534855v-.534855h-.267427v-.267428h-.267428v-.267427h-.267427v1.06971z"/></g><path d="M 2.5746393,3.4846608 V 1.6126683 h 1.604565 V 1.8800958 H 4.4466318 V 2.6823783 H 4.1792043 v 0.2674275 h -1.06971 v 0.534855 z M 3.1094943,2.6823783 H 3.9117768 V 1.8800958 H 3.1094943 Z" fill="url(#C)" stroke="url(#D)" class="B"/><path d="M 4.9814869,3.4846608 V 1.6126683 h 0.534855 v 1.604565 h 1.06971 v 0.2674275 z" fill="url(#C)" stroke="url(#D)" class="B"/><path d="M 6.8534794,3.4846608 V 2.1475233 H 7.1209069 V 1.8800958 H 7.3883344 V 1.6126683 H 8.1906169 V 1.8800958 H 8.4580444 V 2.1475233 H 8.7254719 V 3.4846608 H 8.1906169 V 2.9498058 H 7.3883344 v 0.534855 z M 7.3883344,2.6823783 H 8.1906169 V 2.1475233 H 7.9231894 V 1.8800958 H 7.6557619 V 2.1475233 H 7.3883344 Z" fill="url(#C)" stroke="url(#D)" class="B"/><path d="M 9.7951819,3.4846608 V 2.6823783 H 9.5277544 V 2.4149508 H 9.2603269 V 1.6126683 h 0.534855 V 2.4149508 H 10.330037 V 1.6126683 h 0.534855 v 0.8022825 h -0.267428 v 0.2674275 h -0.267427 v 0.8022825 z" fill="url(#C)" stroke="url(#D)" class="B"/><path d="M 13.271739,3.4846608 V 2.1475233 h 0.267428 V 1.8800958 h 0.267427 V 1.6126683 h 0.802283 v 0.2674275 h 0.267427 v 0.2674275 h 0.267428 v 1.3371375 h -0.534855 v -0.534855 h -0.802283 v 0.534855 z m 0.534855,-0.8022825 h 0.802283 V 2.1475233 H 14.341449 V 1.8800958 h -0.267427 v 0.2674275 h -0.267428 z" fill="url(#C)" stroke="url(#D)" class="B"/><path d="M 15.946015,3.4846608 V 3.2172333 H 15.678587 V 2.9498058 H 15.41116 V 2.1475233 h 0.267427 V 1.8800958 h 0.267428 V 1.6126683 h 1.337137 v 0.2674275 h -1.06971 v 0.2674275 h -0.267427 v 0.8022825 h 0.267427 v 0.2674275 h 0.534855 V 2.6823783 H 16.48087 V 2.4149508 h 0.802282 v 1.06971 z" fill="url(#C)" stroke="url(#D)" class="B"/><path d="M 17.55058,3.4846608 V 2.1475233 h 0.267428 V 1.8800958 h 0.267427 V 1.6126683 h 0.802283 v 0.2674275 h 0.267427 v 0.2674275 h 0.267428 v 1.3371375 h -0.534855 v -0.534855 h -0.802283 v 0.534855 z m 0.534855,-0.8022825 h 0.802283 V 2.1475233 H 18.62029 V 1.8800958 h -0.267427 v 0.2674275 h -0.267428 z" fill="url(#C)" stroke="url(#D)" class="B"/><path d="M 19.957427,3.4846608 V 3.2172333 h 0.534855 V 1.8800958 H 19.957427 V 1.6126683 h 1.604565 v 0.2674275 h -0.534855 v 1.3371375 h 0.534855 v 0.2674275 z" fill="url(#C)" stroke="url(#D)" class="B"/><path d="M 21.829419,3.4846608 V 1.6126683 h 0.534855 v 0.2674275 h 0.267428 v 0.2674275 h 0.267427 v 0.2674275 h 0.267428 V 1.6126683 h 0.534855 V 3.4846608 H 23.166557 V 2.9498058 H 22.899129 V 2.6823783 H 22.631702 V 2.4149508 h -0.267428 v 1.06971 z" fill="url(#C)" stroke="url(#D)" class="B"/><g transform="translate(-126.89602 -133.82014)" fill="none"><rect width="26.127975" height="5.216415" x="127.06271" y="134.06633" ry="2.608207" stroke="#b3b3b3" stroke-width=".174623"/><rect width="129.55423" height="25.865324" x="76.513756" y="86.753021" ry="12.932662" stroke="url(#B)" stroke-width=".865861" transform="matrix(.2017 0 0 .2017 111.55235 116.41145)"/></g></svg>