<svg xmlns="http://www.w3.org/2000/svg" xmlns:xlink="http://www.w3.org/1999/xlink" width="99.711389" height="20.975573" viewBox="0 0 26.381971 5.549787" xmlns:v="https://vecta.io/nano"><defs><linearGradient id="A" gradientTransform="matrix(0.20167597,0,0,0.20167597,114.38341,79.581477)" gradientUnits="userSpaceOnUse"><stop offset="0" stop-color="#ff8080"/></linearGradient><linearGradient xlink:href="#A" id="B" x1="1.480823" y1="2.831329" x2="24.828576" y2="2.831329"/><linearGradient xlink:href="#A" id="C" x1=".001078" y1="-.000816" x2="26.305519" y2="-.000816"/><path id="D" d="M10.485205 3.816934v-.266831h-.266831V3.28327h.533662v.266833h.800495v-.533664h-1.067326v-.266831h-.266831v-.533663h.266831v-.266831h1.334157v.266831h.266831v.266832h-.533662v-.266832h-.800495v.533663h1.067326v.266831h.266831v.533664h-.266831v.266831z"/></defs><g stroke="#b3b3b3"><g fill="#b3b3b3" stroke-width=".133416"><path d="M1.679767 3.816934v-1.86782h1.600989v.266831h.266832v.800494h-.266832v.266831H2.21343v.533664zm.533663-.800495h.800494v-.800494H2.21343zm1.600988.800495v-1.86782h1.600988v.266831h.266831v.800494h-.533662v.266831h.266831v.266833h.266831v.266831h-.800493v-.266831h-.266831V3.28327h-.266832v.533664zm.533663-.800495h.533663v-.266831h.266832v-.533663h-.800494zm1.60099.800495v-1.86782H7.81689v.266831H6.482732v.533663h1.067326v.266831H6.482732v.533664h1.334157v.266831zm2.401482 0v-.266831h-.266831V3.28327h.533662v.266833h.800495v-.533664H8.350553v-.266831h-.266831v-.533663h.266831v-.266831H9.68471v.266831h.266831v.266832h-.533662v-.266832h-.800495v.533663H9.68471v.266831h.266831v.533664H9.68471v.266831z"/><use xlink:href="#D"/><use xlink:href="#D" x="4.269303"/><path d="M17.422821 3.816934V2.215945h-.533662v-.266831h1.600988v.266831h-.533662v1.600989zm1.334157 0V2.482777h.266833v-.266832h.266831v-.266831h.800495v.266831h.266831v.266832h.266831v1.334157h-.533662V3.28327h-.800495v.533664zm.533664-.800495h.800495v-.533662h-.266833v-.266832h-.266831v.266832h-.266831zm1.600988.800495v-1.86782h1.60099v.266831h.266831v.800494h-.533664v.266831h.266833v.266833h.266831v.266831h-.800495v-.266831h-.266831V3.28327h-.266831v.533664zm.533664-.800495h.533662v-.266831h.266831v-.533663h-.800493zm2.401482.800495V2.215945h-.533664v-.266831h1.60099v.266831h-.533664v1.600989z"/></g><rect width="26.127975" height="5.216415" x=".166688" y=".246056" ry="2.608207" fill="none" stroke-width=".174623"/></g><g fill="red" stroke-width=".1334"><path d="M 1.5455182,3.6293123 V 1.7617146 H 3.146316 V 2.0285141 H 3.4131158 V 2.8289128 H 3.146316 V 3.095712 H 2.0791176 V 3.6293123 Z M 2.0791176,2.8289128 H 2.8795164 V 2.0285141 H 2.0791176 Z" stroke="url(#B)"/><path d="M 3.6799153,3.6293123 V 1.7617146 H 5.2807129 V 2.0285141 H 5.5475121 V 2.8289128 H 5.0139137 V 3.095712 H 5.2807129 V 3.3625131 H 5.5475121 V 3.6293123 H 4.747114 V 3.3625131 H 4.4803144 V 3.095712 H 4.2135147 V 3.6293123 Z M 4.2135147,2.8289128 H 4.747114 V 2.5621134 H 5.0139137 V 2.0285141 h -0.800399 z" stroke="url(#B)"/><path d="M 5.8143132,3.6293123 V 1.7617146 H 7.6819093 V 2.0285141 H 6.3479115 V 2.5621134 H 7.4151102 V 2.8289128 H 6.3479115 v 0.5336003 h 1.3339978 v 0.2667992 z" stroke="url(#B)"/><path d="M 8.2155097,3.6293123 V 3.3625131 H 7.9487105 V 3.095712 H 8.4823088 V 3.3625131 H 9.2827083 V 2.8289128 H 8.2155097 V 2.5621134 H 7.9487105 V 2.0285141 H 8.2155097 V 1.7617146 H 9.5495075 V 2.0285141 H 9.8163066 V 2.2953139 H 9.2827083 V 2.0285141 H 8.4823088 V 2.5621134 H 9.5495075 V 2.8289128 H 9.8163066 V 3.3625131 H 9.5495075 v 0.2667992 z" stroke="url(#B)"/><path d="M 10.349907,3.6293123 V 3.3625131 H 10.083108 V 3.095712 h 0.533598 v 0.2668011 h 0.8004 V 2.8289128 H 10.349907 V 2.5621134 H 10.083108 V 2.0285141 h 0.266799 V 1.7617146 h 1.333998 v 0.2667995 h 0.266799 V 2.2953139 H 11.417106 V 2.0285141 h -0.8004 v 0.5335993 h 1.067199 v 0.2667994 h 0.266799 v 0.5336003 h -0.266799 v 0.2667992 z" stroke="url(#B)"/><path d="M 14.618702,3.6293123 V 3.3625131 h -0.2668 V 3.095712 h 0.533599 V 3.3625131 H 15.6859 V 2.8289128 H 14.618702 V 2.5621134 h -0.2668 V 2.0285141 h 0.2668 V 1.7617146 h 1.333997 v 0.2667995 h 0.2668 V 2.2953139 H 15.6859 V 2.0285141 h -0.800399 v 0.5335993 h 1.067198 v 0.2667994 h 0.2668 v 0.5336003 h -0.2668 v 0.2667992 z" stroke="url(#B)"/><path d="M 17.286697,3.6293123 V 2.0285141 H 16.753099 V 1.7617146 h 1.600797 v 0.2667995 h -0.533598 v 1.6007982 z" stroke="url(#B)"/><path d="M 18.620695,3.6293123 V 2.2953139 h 0.266801 V 2.0285141 h 0.266799 V 1.7617146 h 0.8004 v 0.2667995 h 0.266799 v 0.2667998 h 0.266799 V 3.6293123 H 19.954695 V 3.095712 h -0.8004 v 0.5336003 z m 0.5336,-0.8003995 h 0.8004 V 2.2953139 H 19.687894 V 2.0285141 h -0.2668 v 0.2667998 h -0.266799 z" stroke="url(#B)"/><path d="M 20.755092,3.6293123 V 1.7617146 h 1.600799 v 0.2667995 h 0.266799 v 0.8003987 h -0.5336 V 3.095712 h 0.266801 V 3.3625131 H 22.62269 V 3.6293123 H 21.822291 V 3.3625131 H 21.555492 V 3.095712 h -0.266799 v 0.5336003 z m 0.533601,-0.8003995 h 0.533598 V 2.5621134 H 22.08909 V 2.0285141 h -0.800397 z" stroke="url(#B)"/><path d="M 23.689889,3.6293123 V 2.0285141 h -0.5336 V 1.7617146 h 1.600799 v 0.2667995 h -0.533601 v 1.6007982 z" stroke="url(#B)"/></g><rect width="26.127975" height="5.216415" x=".087316" y=".087307" ry="2.608207" fill="none" stroke="url(#C)" stroke-width=".174623"/></svg>