<svg xmlns="http://www.w3.org/2000/svg" xmlns:xlink="http://www.w3.org/1999/xlink" width="108.11978" height="20.975551" viewBox="0 0 28.606691 5.549781" xmlns:v="https://vecta.io/nano"><style><![CDATA[.B{stroke-width:.132292}]]></style><defs><linearGradient id="A" gradientTransform="matrix(0.00820281,0,0,0.00820281,140.01125,121.53051)" gradientUnits="userSpaceOnUse"><stop offset="0" stop-color="#ff8080"/></linearGradient><linearGradient xlink:href="#A" id="B" x1="76.080819" y1="86.320091" x2="206.500915" y2="86.320091"/><linearGradient id="C" x1="2.55114" y1="2.77507" x2="26.05557" y2="2.77507" gradientUnits="userSpaceOnUse"><stop offset="0" stop-color="red"/></linearGradient><linearGradient xlink:href="#A" id="D" x1="2.625679" y1="2.68763" x2="25.897559" y2="2.68763"/></defs><g fill="none" transform="matrix(.2187 0 0 .2017 -16.63757 -17.40869)"><rect width="26.127975" height="5.216415" x="128.12105" y="140.9454" ry="2.608207" transform="matrix(4.9584 0 0 4.9584 -558.37436 -611.33044)" stroke="#b3b3b3" stroke-width=".174623"/><rect width="129.55423" height="25.865324" x="76.513756" y="86.753021" ry="12.932662" stroke="url(#B)" stroke-width=".865861"/></g><path d="M2.990648 3.669745v-.267428H2.72322V3.13489h.534855v.267428h.802283v-.534855h-1.06971v-.267428H2.72322V2.06518h.267428v-.267428h1.337137v.267428h.267428v.267427h-.534855V2.06518h-.802282v.534855h1.06971v.267428h.267428v.534855h-.267428v.267428zm1.871992 0V1.797753h1.871993v.267428H5.397495v.534855h1.06971v.267428h-1.06971v.534855h1.337137v.267428zm2.13942 0V1.797753h1.871993v.267428H7.536915v.534855h1.06971v.267428h-1.06971v.534855h1.337137v.267428zm4.27884 0V1.797753h1.871993v.267428h-1.337138v.534855h1.06971v.267428h-1.06971v.534855h1.337138v.267428zm2.13942 0V3.13489h.267427v-.267428h.267428v-.267428h-.267428v-.267428h-.267427v-.534855h.534855v.534855h.267427v.267428h.267428v-.267428h.267427v-.534855h.534855v.534855h-.267427v.267428h-.267428v.267428h.267428v.267428h.267427v.534855h-.534855V3.13489h-.267427v-.267427h-.267428v.267428h-.267427v.534855zm2.13942 0V2.332608h.267428V2.06518h.267427v-.267428h.802283v.267428h.267427v.267428h.267428v1.337137h-.534855V3.13489h-.802283v.534855zm.534855-.802282h.802283v-.534855h-.267428V2.06518h-.267427v.267428h-.267428zm1.604566.802282V1.797753h.534855v.267428h.267427v.267428h.267428V2.06518h.267427v-.267428h.534855v1.871993h-.534855v-1.06971h-.267427v.534855h-.267428v-.534855h-.267427v1.06971zm2.139419 0V1.797753h1.604565v.267428h.267428v.802283h-.267428v.267428h-1.06971v.534855zm.534855-.802282h.802283V2.06518h-.802283zm1.871992.802282V1.797753h.534855v1.604565h1.06971v.267428zm1.871992 0V1.797753h1.871993v.267428h-1.337138v.534855h1.069711v.267428h-1.069711v.534855h1.337138v.267428z" fill="#b3b3b3" stroke="#b3b3b3" class="B"/><path d="M 2.8847058,3.484595 V 3.2171675 H 2.6172783 V 2.94974 h 0.534855 V 3.2171675 H 3.9544159 V 2.6823125 H 2.8847058 V 2.414885 H 2.6172783 V 1.88003 H 2.8847058 V 1.6126025 H 4.2218434 V 1.88003 H 4.4892709 V 2.1474575 H 3.9544159 V 1.88003 H 3.1521333 v 0.534855 h 1.0697101 v 0.2674275 h 0.2674275 v 0.534855 H 4.2218434 V 3.484595 Z" fill="url(#C)" stroke="url(#D)" class="B"/><path d="M 4.7566984,3.484595 V 1.6126025 H 6.6286909 V 1.88003 H 5.2915534 v 0.534855 h 1.06971 v 0.2674275 h -1.06971 v 0.534855 H 6.6286909 V 3.484595 Z" fill="url(#C)" stroke="url(#D)" class="B"/><path d="M 6.8961184,3.484595 V 1.6126025 H 8.7681109 V 1.88003 H 7.4309734 v 0.534855 h 1.06971 v 0.2674275 h -1.06971 v 0.534855 H 8.7681109 V 3.484595 Z" fill="url(#C)" stroke="url(#D)" class="B"/><path d="M 11.174958,3.484595 V 1.6126025 h 1.871993 V 1.88003 h -1.337138 v 0.534855 h 1.06971 v 0.2674275 h -1.06971 v 0.534855 h 1.337138 V 3.484595 Z" fill="url(#C)" stroke="url(#D)" class="B"/><path d="M 13.314378,3.484595 V 2.94974 h 0.267428 V 2.6823125 h 0.267427 V 2.414885 H 13.581806 V 2.1474575 h -0.267428 v -0.534855 h 0.534855 v 0.534855 h 0.267428 V 2.414885 h 0.267427 V 2.1474575 h 0.267428 v -0.534855 h 0.534855 v 0.534855 H 14.918943 V 2.414885 h -0.267427 v 0.2674275 h 0.267427 V 2.94974 h 0.267428 V 3.484595 H 14.651516 V 2.94974 H 14.384088 V 2.6823125 H 14.116661 V 2.94974 h -0.267428 v 0.534855 z" fill="url(#C)" stroke="url(#D)" class="B"/><path d="M 15.453799,3.484595 V 2.1474575 h 0.267427 V 1.88003 h 0.267428 V 1.6126025 h 0.802282 V 1.88003 h 0.267428 v 0.2674275 h 0.267427 V 3.484595 H 16.790936 V 2.94974 h -0.802282 v 0.534855 z m 0.534855,-0.8022825 h 0.802282 V 2.1474575 H 16.523509 V 1.88003 h -0.267428 v 0.2674275 h -0.267427 z" fill="url(#C)" stroke="url(#D)" class="B"/><path d="M 17.593219,3.484595 V 1.6126025 h 0.534855 V 1.88003 h 0.267428 v 0.2674275 h 0.267427 V 1.88003 h 0.267428 V 1.6126025 h 0.534855 V 3.484595 H 18.930357 V 2.414885 H 18.662929 V 2.94974 H 18.395502 V 2.414885 h -0.267428 v 1.06971 z" fill="url(#C)" stroke="url(#D)" class="B"/><path d="M 19.732639,3.484595 V 1.6126025 h 1.604565 V 1.88003 h 0.267427 V 2.6823125 H 21.337204 V 2.94974 h -1.06971 v 0.534855 z m 0.534855,-0.8022825 h 0.802282 V 1.88003 h -0.802282 z" fill="url(#C)" stroke="url(#D)" class="B"/><path d="M 22.139486,3.484595 V 1.6126025 h 0.534855 v 1.604565 h 1.06971 V 3.484595 Z" fill="url(#C)" stroke="url(#D)" class="B"/><path d="M 24.011478,3.484595 V 1.6126025 H 25.88347 V 1.88003 h -1.337137 v 0.534855 h 1.06971 v 0.2674275 h -1.06971 v 0.534855 H 25.88347 V 3.484595 Z" fill="url(#C)" stroke="url(#D)" class="B"/></svg>