<svg xmlns="http://www.w3.org/2000/svg" width="79.73888" height="8.27503" viewBox="0 0 21.097578 2.189435" xmlns:v="https://vecta.io/nano"><style><![CDATA[.B{stroke-width:.132292}]]></style><defs><linearGradient id="A" x1="-.26742" y1="1.22855" x2="23.23701" y2="1.22855" gradientUnits="userSpaceOnUse"><stop offset="0" stop-color="red"/></linearGradient><linearGradient id="B" x1="-.192883" y1="1.14108" x2="23.078997" y2="1.14108" gradientUnits="userSpaceOnUse"><stop offset="0" stop-color="#ff8080"/></linearGradient></defs><path d="M.706942 2.123297v-.802282H.439515v-.267427H.172087V.251304h.534855v.802283h.534855V.251304h.534855v.802283h-.267427v.267427h-.267428v.802283zm1.604565 0V1.85587H2.04408V.518732h.267428V.251304h1.337138v.267428h.267427V1.85587h-.267428v.267427zm.267428-.267427h.802283V.518732h-.802282zm1.871992.267427V1.85587H4.1835V.251304h.534855v1.604565h.802282V.251304h.534855v1.604565h-.267428v.267427zm4.27884 0V1.85587H8.46234v-.267428h.534855v.267427h.802283v-.534855h-1.06971v-.267427H8.46234V.518732h.267428V.251304h1.337138v.267428h.267427V.78616h-.534855V.518732h-.802282v.534855h1.06971v.267427h.267427v.534855h-.267427v.267428zm2.406847 0V1.85587h-.267427v-.267428h-.267428V.786159h.267428V.518732h.267427V.251304h1.06971v.267428h.267428V.78616h-.534855V.518732h-.534855V.78616h-.267428v.802283h.267428v.267427h.534855v-.267427h.534855v.267427h-.267428v.267428zm1.871993 0V1.85587h-.267427V.518732h.267427V.251304h1.337138v.267428h.267427V1.85587h-.267427v.267427zm.267428-.267427h.802282V.518732h-.802282zm1.604565.267427V.251304h1.604565v.267428h.267428v.802283h-.534855v.267427h.267427v.267427h.267428v.267428h-.802283V1.85587h-.267427v-.267428h-.267428v.534855zm.534855-.802282h.534855v-.267427h.267428V.518732h-.802283zm1.604565.802282V.251304h1.871992v.267428h-1.337137v.534855h1.06971v.267427h-1.06971v.534855h1.337137v.267428zm2.13942 0V.251304h1.337137v.267428h.267428V.78616h.267427v.802283h-.267427v.267428h-.267428v.267427zm.534855-.267427h.534855v-.267428h.267427V.786159h-.267427V.518732h-.534855z" fill="#b3b3b3" stroke="#b3b3b3" class="B"/><path d="M 0.60100043,1.9381465 V 1.135864 H 0.33357292 V 0.86843652 H 0.06614542 V 0.066154 H 0.60100043 V 0.86843652 H 1.1358554 V 0.066154 h 0.534855 V 0.86843652 H 1.4032829 V 1.135864 H 1.1358554 v 0.8022825 z" fill="url(#A)" stroke="url(#B)" class="B"/><path d="M 2.2055655,1.9381465 V 1.670719 H 1.9381379 V 0.33358151 H 2.2055655 V 0.066154 H 3.542703 V 0.33358151 H 3.8101305 V 1.670719 H 3.542703 V 1.9381465 Z M 2.472993,1.670719 H 3.2752755 V 0.33358151 H 2.472993 Z" fill="url(#A)" stroke="url(#B)" class="B"/><path d="M 4.3449855,1.9381465 V 1.670719 H 4.077558 V 0.066154 H 4.612413 V 1.670719 H 5.4146955 V 0.066154 h 0.534855 V 1.670719 H 5.682123 v 0.2674275 z" fill="url(#A)" stroke="url(#B)" class="B"/><path d="M 8.6238256,1.9381465 V 1.670719 H 8.356398 V 1.4032915 H 8.8912531 V 1.670719 H 9.6935356 V 1.135864 h -1.06971 V 0.86843652 H 8.356398 V 0.33358151 H 8.6238256 V 0.066154 h 1.3371375 v 0.26742751 h 0.2674279 v 0.2674275 H 9.6935356 V 0.33358151 H 8.8912531 v 0.53485501 h 1.06971 V 1.135864 H 10.228391 V 1.670719 H 9.9609631 v 0.2674275 z" fill="url(#A)" stroke="url(#B)" class="B"/><path d="M 11.030673,1.9381465 V 1.670719 H 10.763245 V 1.4032915 H 10.495818 V 0.60100901 h 0.267427 v -0.2674275 h 0.267428 V 0.066154 h 1.06971 v 0.26742751 h 0.267427 v 0.2674275 H 11.832955 V 0.33358151 H 11.2981 v 0.2674275 H 11.030673 V 1.4032915 H 11.2981 V 1.670719 h 0.534855 V 1.4032915 H 12.36781 V 1.670719 h -0.267427 v 0.2674275 z" fill="url(#A)" stroke="url(#B)" class="B"/><path d="M 12.902666,1.9381465 V 1.670719 H 12.635238 V 0.33358151 h 0.267428 V 0.066154 h 1.337137 v 0.26742751 h 0.267428 V 1.670719 H 14.239803 V 1.9381465 Z M 13.170093,1.670719 h 0.802283 V 0.33358151 h -0.802283 z" fill="url(#A)" stroke="url(#B)" class="B"/><path d="M 14.774659,1.9381465 V 0.066154 h 1.604565 v 0.26742751 h 0.267427 V 1.135864 h -0.534855 v 0.2674275 h 0.267428 V 1.670719 h 0.267427 V 1.9381465 H 15.844369 V 1.670719 H 15.576941 V 1.4032915 h -0.267427 v 0.534855 z M 15.309514,1.135864 h 0.534855 V 0.86843652 h 0.267427 V 0.33358151 h -0.802282 z" fill="url(#A)" stroke="url(#B)" class="B"/><path d="M 16.914078,1.9381465 V 0.066154 h 1.871993 v 0.26742751 h -1.337138 v 0.53485501 h 1.06971 V 1.135864 h -1.06971 v 0.534855 h 1.337138 v 0.2674275 z" fill="url(#A)" stroke="url(#B)" class="B"/><path d="M 19.053498,1.9381465 V 0.066154 h 1.337137 v 0.26742751 h 0.267428 v 0.2674275 H 20.92549 V 1.4032915 H 20.658063 V 1.670719 H 20.390635 V 1.9381465 Z M 19.588353,1.670719 h 0.534855 V 1.4032915 h 0.267427 V 0.60100901 h -0.267427 v -0.2674275 h -0.534855 z" fill="url(#A)" stroke="url(#B)" class="B"/></svg>