<?xml version="1.0" encoding="UTF-8" standalone="no"?>
<!-- Created with Inkscape (http://www.inkscape.org/) -->

<svg
   width="24.373615mm"
   height="4.918005mm"
   viewBox="0 0 24.373615 4.918005"
   version="1.1"
   id="svg23414"
   xmlns:xlink="http://www.w3.org/1999/xlink"
   xmlns="http://www.w3.org/2000/svg"
   xmlns:svg="http://www.w3.org/2000/svg">
  <defs
     id="defs23411">
    <linearGradient
       id="linearGradient23435">
      <stop
         style="stop-color:#ff0000;stop-opacity:1;"
         offset="0"
         id="stop23433" />
    </linearGradient>
    <linearGradient
       id="linearGradient45127">
      <stop
         style="stop-color:#ff8080;stop-opacity:1;"
         offset="0"
         id="stop45125" />
    </linearGradient>
    <linearGradient
       xlink:href="#linearGradient23435"
       id="linearGradient23570"
       gradientUnits="userSpaceOnUse"
       gradientTransform="translate(-121.36148,-120.45885)"
       x1="129.28404"
       y1="123.05166"
       x2="152.78847"
       y2="123.05166" />
    <linearGradient
       xlink:href="#linearGradient45127"
       id="linearGradient23572"
       gradientUnits="userSpaceOnUse"
       gradientTransform="matrix(0.2021502,0,0,0.2021502,-25.939807,-18.16003)"
       x1="167.83827"
       y1="102.20257"
       x2="282.93164"
       y2="102.20257" />
    <linearGradient
       xlink:href="#linearGradient45127"
       id="linearGradient1664"
       gradientTransform="scale(2.2088343,0.45272748)"
       x1="34.443878"
       y1="190.66678"
       x2="93.48864"
       y2="190.66678"
       gradientUnits="userSpaceOnUse" />
    <linearGradient
       xlink:href="#linearGradient23435"
       id="linearGradient13277"
       gradientUnits="userSpaceOnUse"
       gradientTransform="translate(-121.36148,-120.45885)"
       x1="129.28404"
       y1="123.05166"
       x2="152.78847"
       y2="123.05166" />
    <linearGradient
       xlink:href="#linearGradient45127"
       id="linearGradient13279"
       gradientUnits="userSpaceOnUse"
       gradientTransform="matrix(0.2021502,0,0,0.2021502,-25.939807,-18.16003)"
       x1="167.83827"
       y1="102.20257"
       x2="282.93164"
       y2="102.20257" />
    <linearGradient
       xlink:href="#linearGradient23435"
       id="linearGradient13314"
       gradientUnits="userSpaceOnUse"
       gradientTransform="translate(-121.36148,-120.45885)"
       x1="129.28404"
       y1="123.05166"
       x2="152.78847"
       y2="123.05166" />
    <linearGradient
       xlink:href="#linearGradient45127"
       id="linearGradient13316"
       gradientUnits="userSpaceOnUse"
       gradientTransform="matrix(0.2021502,0,0,0.2021502,-25.939807,-18.16003)"
       x1="167.83827"
       y1="102.20257"
       x2="282.93164"
       y2="102.20257" />
    <linearGradient
       xlink:href="#linearGradient23435"
       id="linearGradient13318"
       gradientUnits="userSpaceOnUse"
       gradientTransform="translate(-121.36148,-120.45885)"
       x1="129.28404"
       y1="123.05166"
       x2="152.78847"
       y2="123.05166" />
    <linearGradient
       xlink:href="#linearGradient45127"
       id="linearGradient13320"
       gradientUnits="userSpaceOnUse"
       gradientTransform="matrix(0.2021502,0,0,0.2021502,-25.939807,-18.16003)"
       x1="167.83827"
       y1="102.20257"
       x2="282.93164"
       y2="102.20257" />
    <linearGradient
       xlink:href="#linearGradient23435"
       id="linearGradient13322"
       gradientUnits="userSpaceOnUse"
       gradientTransform="translate(-121.36148,-120.45885)"
       x1="129.28404"
       y1="123.05166"
       x2="152.78847"
       y2="123.05166" />
    <linearGradient
       xlink:href="#linearGradient45127"
       id="linearGradient13324"
       gradientUnits="userSpaceOnUse"
       gradientTransform="matrix(0.2021502,0,0,0.2021502,-25.939807,-18.16003)"
       x1="167.83827"
       y1="102.20257"
       x2="282.93164"
       y2="102.20257" />
    <linearGradient
       xlink:href="#linearGradient23435"
       id="linearGradient13326"
       gradientUnits="userSpaceOnUse"
       gradientTransform="translate(-121.36148,-120.45885)"
       x1="129.28404"
       y1="123.05166"
       x2="152.78847"
       y2="123.05166" />
    <linearGradient
       xlink:href="#linearGradient45127"
       id="linearGradient13328"
       gradientUnits="userSpaceOnUse"
       gradientTransform="matrix(0.2021502,0,0,0.2021502,-25.939807,-18.16003)"
       x1="167.83827"
       y1="102.20257"
       x2="282.93164"
       y2="102.20257" />
  </defs>
  <g
     id="g13379">
    <path
       d="M 8.0946512,3.487581 V 1.6155884 h 1.604565 v 0.2674275 h 0.2674276 v 0.534855 H 9.6992162 V 2.6852984 H 9.9666438 V 3.2201535 H 9.6992162 V 3.487581 Z M 8.6295062,2.4178709 H 9.4317887 V 1.8830159 H 8.6295062 Z m 0,0.8022826 H 9.4317887 V 2.6852984 H 8.6295062 Z"
       style="font-size:2.13942px;line-height:1.25;font-family:'Press Start 2P';-inkscape-font-specification:'Press Start 2P, Normal';fill:#b3b3b3;stroke:#b3b3b3;stroke-width:0.132292"
       id="path13336" />
    <path
       d="M 10.234071,3.487581 V 2.1504434 h 0.267428 V 1.8830159 h 0.267427 V 1.6155884 h 0.802283 v 0.2674275 h 0.267427 v 0.2674275 h 0.267428 V 3.487581 H 11.571209 V 2.9527259 H 10.768926 V 3.487581 Z m 0.534855,-0.8022826 h 0.802283 V 2.1504434 H 11.303781 V 1.8830159 h -0.267427 v 0.2674275 h -0.267428 z"
       style="font-size:2.13942px;line-height:1.25;font-family:'Press Start 2P';-inkscape-font-specification:'Press Start 2P, Normal';fill:#b3b3b3;stroke:#b3b3b3;stroke-width:0.132292"
       id="path13338" />
    <path
       d="M 12.908346,3.487581 V 3.2201535 H 12.640919 V 2.9527259 H 12.373491 V 2.1504434 h 0.267428 V 1.8830159 h 0.267427 V 1.6155884 h 1.06971 v 0.2674275 h 0.267428 V 2.1504434 H 13.710629 V 1.8830159 h -0.534855 v 0.2674275 h -0.267428 v 0.8022825 h 0.267428 v 0.2674276 h 0.534855 V 2.9527259 h 0.534855 V 3.2201535 H 13.978056 V 3.487581 Z"
       style="font-size:2.13942px;line-height:1.25;font-family:'Press Start 2P';-inkscape-font-specification:'Press Start 2P, Normal';fill:#b3b3b3;stroke:#b3b3b3;stroke-width:0.132292"
       id="path13340" />
    <path
       d="M 14.512911,3.487581 V 1.6155884 h 0.534855 v 0.8022825 h 0.267428 V 2.1504434 h 0.267427 V 1.8830159 h 0.267428 V 1.6155884 h 0.534855 v 0.2674275 h -0.267428 v 0.2674275 h -0.267427 v 0.2674275 h -0.267428 v 0.2674275 h 0.267428 v 0.2674275 h 0.267427 v 0.2674276 h 0.267428 V 3.487581 H 15.582621 V 3.2201535 H 15.315194 V 2.9527259 H 15.047766 V 3.487581 Z"
       style="font-size:2.13942px;line-height:1.25;font-family:'Press Start 2P';-inkscape-font-specification:'Press Start 2P, Normal';fill:#b3b3b3;stroke:#b3b3b3;stroke-width:0.132292"
       id="path13342" />
    <path
       d="M 7.988709,3.3024308 V 1.4304383 h 1.604565 v 0.2674275 h 0.2674275 v 0.534855 H 9.593274 v 0.2674275 h 0.2674275 v 0.534855 H 9.593274 v 0.2674275 z m 0.534855,-1.06971 H 9.3258465 V 1.6978658 H 8.523564 Z m 0,0.8022825 H 9.3258465 V 2.5001483 H 8.523564 Z"
       style="font-size:2.13942px;line-height:1.25;font-family:'Press Start 2P';-inkscape-font-specification:'Press Start 2P, Normal';fill:url(#linearGradient13314);stroke:url(#linearGradient13316);stroke-width:0.132292"
       id="path13287" />
    <path
       d="M 10.128129,3.3024308 V 1.9652933 h 0.267428 V 1.6978658 h 0.267427 V 1.4304383 h 0.802283 v 0.2674275 h 0.267427 v 0.2674275 h 0.267428 v 1.3371375 h -0.534855 v -0.534855 h -0.802283 v 0.534855 z m 0.534855,-0.8022825 h 0.802283 V 1.9652933 H 11.197839 V 1.6978658 h -0.267427 v 0.2674275 h -0.267428 z"
       style="font-size:2.13942px;line-height:1.25;font-family:'Press Start 2P';-inkscape-font-specification:'Press Start 2P, Normal';fill:url(#linearGradient13318);stroke:url(#linearGradient13320);stroke-width:0.132292"
       id="path13289" />
    <path
       d="M 12.802404,3.3024308 V 3.0350033 H 12.534977 V 2.7675758 H 12.267549 V 1.9652933 h 0.267428 V 1.6978658 h 0.267427 V 1.4304383 h 1.06971 v 0.2674275 h 0.267428 V 1.9652933 H 13.604687 V 1.6978658 h -0.534855 v 0.2674275 h -0.267428 v 0.8022825 h 0.267428 v 0.2674275 h 0.534855 V 2.7675758 h 0.534855 v 0.2674275 h -0.267428 v 0.2674275 z"
       style="font-size:2.13942px;line-height:1.25;font-family:'Press Start 2P';-inkscape-font-specification:'Press Start 2P, Normal';fill:url(#linearGradient13322);stroke:url(#linearGradient13324);stroke-width:0.132292"
       id="path13291" />
    <path
       d="M 14.406969,3.3024308 V 1.4304383 h 0.534855 v 0.8022825 h 0.267428 V 1.9652933 h 0.267427 V 1.6978658 h 0.267428 V 1.4304383 h 0.534855 v 0.2674275 h -0.267428 v 0.2674275 h -0.267427 v 0.2674275 h -0.267428 v 0.2674275 h 0.267428 v 0.2674275 h 0.267427 v 0.2674275 h 0.267428 V 3.3024308 H 15.476679 V 3.0350033 H 15.209252 V 2.7675758 h -0.267428 v 0.534855 z"
       style="font-size:2.13942px;line-height:1.25;font-family:'Press Start 2P';-inkscape-font-specification:'Press Start 2P, Normal';fill:url(#linearGradient13326);stroke:url(#linearGradient13328);stroke-width:0.132292"
       id="path13293" />
    <g
       id="g14438"
       transform="matrix(0.92387378,0,0,0.8861401,-117.23591,-118.58339)">
      <rect
         style="fill:none;stroke:#b3b3b3;stroke-width:0.174623;stroke-miterlimit:4;stroke-dasharray:none;stroke-opacity:1;stop-color:#000000"
         id="rect14432"
         width="26.127975"
         height="5.2164145"
         x="127.06271"
         y="134.06633"
         ry="2.6082072" />
      <g
         id="g14436"
         transform="matrix(0.20167597,0,0,0.20167597,111.55235,116.41145)">
        <rect
           style="opacity:1;fill:none;stroke:url(#linearGradient1664);stroke-width:0.865861;stroke-miterlimit:4;stroke-dasharray:none;stroke-opacity:1;stop-color:#000000"
           id="rect14434"
           width="129.55423"
           height="25.865324"
           x="76.513756"
           y="86.753021"
           ry="12.932662" />
      </g>
    </g>
  </g>
</svg>
