<?xml version="1.0" encoding="UTF-8" standalone="no"?>
<!-- Created with Inkscape (http://www.inkscape.org/) -->

<svg
   width="35.23975mm"
   height="8.7856646mm"
   viewBox="0 0 35.23975 8.7856645"
   version="1.1"
   id="svg11061"
   xmlns="http://www.w3.org/2000/svg"
   xmlns:svg="http://www.w3.org/2000/svg">
  <defs
     id="defs11058" />
  <g
     id="g11613">
    <g
       id="g2265"
       transform="matrix(0.18586675,0,0,0.18586648,-92.604351,-123.49287)"
       style="fill:#b3b3b3;fill-opacity:1;stroke:#b3b3b3;stroke-opacity:1">
      <g
         id="g2263"
         style="fill:#b3b3b3;fill-opacity:1;stroke:#b3b3b3;stroke-opacity:1">
        <g
           id="g2261"
           transform="translate(411.34411,93.161208)"
           style="fill:#b3b3b3;fill-opacity:1;stroke:#b3b3b3;stroke-opacity:1">
          <path
             id="path2235"
             style="opacity:1;fill:#b3b3b3;fill-opacity:1;stroke:#b3b3b3;stroke-width:2.07012;stroke-opacity:1;stop-color:#000000"
             d="m 555.86328,2186.6309 v 10 h -10 v 10 h -10 v 10 h -10 v 10 h 10 v 10 h 10 v 10 h 10 v 10 h 30 v -10 h 10 v -10 h 10 v -10 h 10 v -10 h -10 v -10 h -10 v -10 h -10 v -10 z"
             transform="scale(0.26458333)" />
          <g
             id="g2241"
             transform="translate(-3.5004525,19.169145)"
             style="fill:#b3b3b3;fill-opacity:1;stroke:#b3b3b3;stroke-opacity:1">
            <rect
               style="opacity:1;fill:#b3b3b3;fill-opacity:1;stroke:#b3b3b3;stroke-width:0.662346;stroke-opacity:1;stop-color:#000000"
               id="rect2237"
               width="3.96875"
               height="1.3229166"
               x="146.74483"
               y="553.74091" />
            <rect
               style="opacity:1;fill:#b3b3b3;fill-opacity:1;stroke:#b3b3b3;stroke-width:0.662346;stroke-opacity:1;stop-color:#000000"
               id="rect2239"
               width="3.96875"
               height="1.3229166"
               x="552.41797"
               y="-149.39066"
               transform="rotate(90)" />
          </g>
          <g
             id="g2247"
             transform="translate(7.612048,19.169145)"
             style="fill:#b3b3b3;fill-opacity:1;stroke:#b3b3b3;stroke-opacity:1">
            <rect
               style="opacity:1;fill:#b3b3b3;fill-opacity:1;stroke:#b3b3b3;stroke-width:0.662346;stroke-opacity:1;stop-color:#000000"
               id="rect2243"
               width="3.96875"
               height="1.3229166"
               x="146.74483"
               y="553.74091" />
            <rect
               style="opacity:1;fill:#b3b3b3;fill-opacity:1;stroke:#b3b3b3;stroke-width:0.662346;stroke-opacity:1;stop-color:#000000"
               id="rect2245"
               width="3.96875"
               height="1.3229166"
               x="552.41797"
               y="-149.39066"
               transform="rotate(90)" />
          </g>
          <g
             id="g2253"
             transform="translate(14.491217,24.460815)"
             style="fill:#b3b3b3;fill-opacity:1;stroke:#b3b3b3;stroke-opacity:1">
            <rect
               style="opacity:1;fill:#b3b3b3;fill-opacity:1;stroke:#b3b3b3;stroke-width:0.662346;stroke-opacity:1;stop-color:#000000"
               id="rect2249"
               width="3.96875"
               height="1.3229166"
               x="146.74483"
               y="553.74091" />
            <rect
               style="opacity:1;fill:#b3b3b3;fill-opacity:1;stroke:#b3b3b3;stroke-width:0.662346;stroke-opacity:1;stop-color:#000000"
               id="rect2251"
               width="3.96875"
               height="1.3229166"
               x="552.41797"
               y="-149.39066"
               transform="rotate(90)" />
          </g>
          <g
             id="g2259"
             transform="translate(-9.8504533,24.460815)"
             style="fill:#b3b3b3;fill-opacity:1;stroke:#b3b3b3;stroke-opacity:1">
            <rect
               style="opacity:1;fill:#b3b3b3;fill-opacity:1;stroke:#b3b3b3;stroke-width:0.662346;stroke-opacity:1;stop-color:#000000"
               id="rect2255"
               width="3.96875"
               height="1.3229166"
               x="146.74483"
               y="553.74091" />
            <rect
               style="opacity:1;fill:#b3b3b3;fill-opacity:1;stroke:#b3b3b3;stroke-width:0.662346;stroke-opacity:1;stop-color:#000000"
               id="rect2257"
               width="3.96875"
               height="1.3229166"
               x="552.41797"
               y="-149.39066"
               transform="rotate(90)" />
          </g>
        </g>
      </g>
    </g>
    <text
       xml:space="preserve"
       style="font-style:normal;font-weight:normal;font-size:3.78334px;line-height:1.25;font-family:sans-serif;fill:#b3b3b3;fill-opacity:1;stroke:#b3b3b3;stroke-width:0.233945;stroke-miterlimit:4;stroke-dasharray:none"
       x="5.8962188"
       y="5.1919508"
       id="text2269"><tspan
         id="tspan2267"
         style="font-style:normal;font-variant:normal;font-weight:normal;font-stretch:normal;font-size:3.78334px;font-family:'Press Start 2P';-inkscape-font-specification:'Press Start 2P, Normal';font-variant-ligatures:normal;font-variant-caps:normal;font-variant-numeric:normal;font-variant-east-asian:normal;fill:#b3b3b3;fill-opacity:1;stroke:#b3b3b3;stroke-width:0.233945;stroke-miterlimit:4;stroke-dasharray:none"
         x="5.8962188"
         y="5.1919508"
         dx="0 0 1.2201928">D GGLE</tspan></text>
    <path
       d="M 5.8962188,4.7190333 V 1.4086108 H 8.2608063 V 1.8815283 H 8.7337238 V 2.3544458 H 9.2066413 V 3.7731983 H 8.7337238 V 4.2461158 H 8.2608063 v 0.4729175 z m 0.945835,-0.4729175 h 0.945835 V 3.7731983 H 8.2608063 V 2.3544458 H 7.7878888 V 1.8815283 h -0.945835 z"
       style="font-size:3.78334px;line-height:1.25;font-family:'Press Start 2P';-inkscape-font-specification:'Press Start 2P, Normal';fill:#b3b3b3;stroke:#b3b3b3;stroke-width:0.233945"
       id="path11326" />
    <path
       d="M 15.628927,4.7190333 V 4.2461158 H 15.156009 V 3.7731983 H 14.683092 V 2.3544458 h 0.472917 V 1.8815283 h 0.472918 V 1.4086108 h 2.364587 v 0.4729175 h -1.89167 v 0.4729175 h -0.472917 v 1.4187525 h 0.472917 v 0.4729175 h 0.945835 V 3.3002808 H 16.574762 V 2.8273633 h 1.418752 v 1.89167 z"
       style="font-size:3.78334px;line-height:1.25;font-family:'Press Start 2P';-inkscape-font-specification:'Press Start 2P, Normal';fill:#b3b3b3;stroke:#b3b3b3;stroke-width:0.233945"
       id="path11328" />
    <path
       d="M 19.412266,4.7190333 V 4.2461158 H 18.939349 V 3.7731983 H 18.466431 V 2.3544458 h 0.472918 V 1.8815283 h 0.472917 V 1.4086108 h 2.364588 v 0.4729175 h -1.89167 v 0.4729175 h -0.472918 v 1.4187525 h 0.472918 v 0.4729175 h 0.945835 V 3.3002808 H 20.358101 V 2.8273633 h 1.418753 v 1.89167 z"
       style="font-size:3.78334px;line-height:1.25;font-family:'Press Start 2P';-inkscape-font-specification:'Press Start 2P, Normal';fill:#b3b3b3;stroke:#b3b3b3;stroke-width:0.233945"
       id="path11330" />
    <path
       d="M 22.722688,4.7190333 V 1.4086108 h 0.945835 v 2.837505 h 1.89167 v 0.4729175 z"
       style="font-size:3.78334px;line-height:1.25;font-family:'Press Start 2P';-inkscape-font-specification:'Press Start 2P, Normal';fill:#b3b3b3;stroke:#b3b3b3;stroke-width:0.233945"
       id="path11332" />
    <path
       d="M 26.033111,4.7190333 V 1.4086108 h 3.310423 v 0.4729175 h -2.364588 v 0.945835 h 1.89167 v 0.4729175 h -1.89167 v 0.945835 h 2.364588 v 0.4729175 z"
       style="font-size:3.78334px;line-height:1.25;font-family:'Press Start 2P';-inkscape-font-specification:'Press Start 2P, Normal';fill:#b3b3b3;stroke:#b3b3b3;stroke-width:0.233945"
       id="path11334" />
    <path
       d="M 0.06614552,8.7195249 V 8.0580686 H 0.19843677 V 7.9257774 H 0.33072803 V 7.7934861 H 0.7276018 V 7.9257774 H 0.85989306 V 8.0580686 H 0.99218432 V 8.7195249 H 0.7276018 V 8.4549424 H 0.33072803 V 8.7195249 Z M 0.33072803,8.3226511 H 0.7276018 V 8.0580686 H 0.59531055 V 7.9257774 H 0.46301929 V 8.0580686 H 0.33072803 Z"
       id="path11459"
       style="font-size:1.05833px;line-height:2.35;font-family:'Press Start 2P';-inkscape-font-specification:'Press Start 2P, Normal';letter-spacing:0.0449792px;word-spacing:-0.00529167px;fill:#b3b3b3;stroke:#b3b3b3;stroke-width:0.132292" />
    <path
       d="M 2.3997636,8.7195249 V 8.5872337 H 2.2674724 V 8.4549424 H 2.5320549 V 8.5872337 H 2.9289287 V 8.3226511 H 2.3997636 V 8.1903599 H 2.2674724 V 7.9257774 H 2.3997636 V 7.7934861 H 3.0612199 V 7.9257774 H 3.1935112 V 8.0580686 H 2.9289287 V 7.9257774 H 2.5320549 v 0.2645825 h 0.529165 V 8.3226511 H 3.1935112 V 8.5872337 H 3.0612199 v 0.1322912 z"
       id="path11461"
       style="font-size:1.05833px;line-height:2.35;font-family:'Press Start 2P';-inkscape-font-specification:'Press Start 2P, Normal';letter-spacing:0.0449792px;word-spacing:-0.00529167px;fill:#b3b3b3;stroke:#b3b3b3;stroke-width:0.132292" />
    <path
       d="M 3.5030728,8.7195249 V 8.5872337 H 3.3707815 V 7.7934861 H 3.635364 V 8.5872337 H 4.0322378 V 7.7934861 H 4.2968203 V 8.5872337 H 4.1645291 v 0.1322912 z"
       id="path11463"
       style="font-size:1.05833px;line-height:2.35;font-family:'Press Start 2P';-inkscape-font-specification:'Press Start 2P, Normal';letter-spacing:0.0449792px;word-spacing:-0.00529167px;fill:#b3b3b3;stroke:#b3b3b3;stroke-width:0.132292" />
    <path
       d="M 4.4740907,8.7195249 V 7.7934861 H 5.2678382 V 7.9257774 H 5.4001295 V 8.3226511 H 5.2678382 V 8.4549424 H 4.7386732 V 8.7195249 Z M 4.7386732,8.3226511 H 5.135547 V 7.9257774 H 4.7386732 Z"
       id="path11465"
       style="font-size:1.05833px;line-height:2.35;font-family:'Press Start 2P';-inkscape-font-specification:'Press Start 2P, Normal';letter-spacing:0.0449792px;word-spacing:-0.00529167px;fill:#b3b3b3;stroke:#b3b3b3;stroke-width:0.132292" />
    <path
       d="M 5.5774003,8.7195249 V 7.7934861 H 6.5034391 V 7.9257774 H 5.8419828 v 0.2645825 h 0.529165 v 0.1322912 h -0.529165 v 0.2645826 h 0.6614563 v 0.1322912 z"
       id="path11467"
       style="font-size:1.05833px;line-height:2.35;font-family:'Press Start 2P';-inkscape-font-specification:'Press Start 2P, Normal';letter-spacing:0.0449792px;word-spacing:-0.00529167px;fill:#b3b3b3;stroke:#b3b3b3;stroke-width:0.132292" />
    <path
       d="M 6.6807095,8.7195249 V 7.7934861 H 7.474457 V 7.9257774 H 7.6067483 V 8.3226511 H 7.3421657 V 8.4549424 H 7.474457 V 8.5872337 H 7.6067483 V 8.7195249 H 7.2098745 V 8.5872337 H 7.0775832 V 8.4549424 H 6.945292 V 8.7195249 Z M 6.945292,8.3226511 H 7.2098745 V 8.1903599 H 7.3421657 V 7.9257774 H 6.945292 Z"
       id="path11469"
       style="font-size:1.05833px;line-height:2.35;font-family:'Press Start 2P';-inkscape-font-specification:'Press Start 2P, Normal';letter-spacing:0.0449792px;word-spacing:-0.00529167px;fill:#b3b3b3;stroke:#b3b3b3;stroke-width:0.132292" />
    <path
       d="M 8.0486011,8.7195249 V 8.5872337 H 7.9163099 V 8.4549424 H 7.7840186 V 8.0580686 H 7.9163099 V 7.9257774 H 8.0486011 V 7.7934861 H 8.7100574 V 7.9257774 H 8.1808924 V 8.0580686 H 8.0486011 V 8.4549424 H 8.1808924 V 8.5872337 H 8.4454749 V 8.3226511 H 8.3131836 V 8.1903599 h 0.3968738 v 0.529165 z"
       id="path11471"
       style="font-size:1.05833px;line-height:2.35;font-family:'Press Start 2P';-inkscape-font-specification:'Press Start 2P, Normal';letter-spacing:0.0449792px;word-spacing:-0.00529167px;fill:#b3b3b3;stroke:#b3b3b3;stroke-width:0.132292" />
    <path
       d="M 8.8873278,8.7195249 V 8.0580686 H 9.019619 V 7.9257774 H 9.1519103 V 7.7934861 H 9.5487841 V 7.9257774 H 9.6810753 V 8.0580686 H 9.8133666 V 8.7195249 H 9.5487841 V 8.4549424 H 9.1519103 V 8.7195249 Z M 9.1519103,8.3226511 H 9.5487841 V 8.0580686 H 9.4164928 V 7.9257774 H 9.2842015 V 8.0580686 H 9.1519103 Z"
       id="path11473"
       style="font-size:1.05833px;line-height:2.35;font-family:'Press Start 2P';-inkscape-font-specification:'Press Start 2P, Normal';letter-spacing:0.0449792px;word-spacing:-0.00529167px;fill:#b3b3b3;stroke:#b3b3b3;stroke-width:0.132292" />
    <path
       d="M 10.122929,8.7195249 V 7.7934861 h 0.264582 v 0.7937476 h 0.529165 v 0.1322912 z"
       id="path11475"
       style="font-size:1.05833px;line-height:2.35;font-family:'Press Start 2P';-inkscape-font-specification:'Press Start 2P, Normal';letter-spacing:0.0449792px;word-spacing:-0.00529167px;fill:#b3b3b3;stroke:#b3b3b3;stroke-width:0.132292" />
    <path
       d="M 11.093946,8.7195249 V 8.0580686 h 0.132291 V 7.9257774 h 0.132292 V 7.7934861 h 0.396873 v 0.1322913 h 0.132292 v 0.1322912 h 0.132291 V 8.7195249 H 11.755402 V 8.4549424 h -0.396873 v 0.2645825 z m 0.264583,-0.3968738 h 0.396873 V 8.0580686 H 11.623111 V 7.9257774 H 11.49082 v 0.1322912 h -0.132291 z"
       id="path11477"
       style="font-size:1.05833px;line-height:2.35;font-family:'Press Start 2P';-inkscape-font-specification:'Press Start 2P, Normal';letter-spacing:0.0449792px;word-spacing:-0.00529167px;fill:#b3b3b3;stroke:#b3b3b3;stroke-width:0.132292" />
    <path
       d="M 12.461838,8.7195249 V 8.5872337 H 12.329547 V 8.4549424 H 12.197256 V 8.0580686 h 0.132291 V 7.9257774 h 0.132291 V 7.7934861 h 0.529165 v 0.1322913 h 0.132292 V 8.0580686 H 12.858712 V 7.9257774 h -0.264583 v 0.1322912 h -0.132291 v 0.3968738 h 0.132291 v 0.1322913 h 0.264583 V 8.4549424 h 0.264583 v 0.1322913 h -0.132292 v 0.1322912 z"
       id="path11479"
       style="font-size:1.05833px;line-height:2.35;font-family:'Press Start 2P';-inkscape-font-specification:'Press Start 2P, Normal';letter-spacing:0.0449792px;word-spacing:-0.00529167px;fill:#b3b3b3;stroke:#b3b3b3;stroke-width:0.132292" />
    <path
       d="M 13.697439,8.7195249 V 7.9257774 H 13.432857 V 7.7934861 h 0.793747 v 0.1322913 h -0.264582 v 0.7937475 z"
       id="path11481"
       style="font-size:1.05833px;line-height:2.35;font-family:'Press Start 2P';-inkscape-font-specification:'Press Start 2P, Normal';letter-spacing:0.0449792px;word-spacing:-0.00529167px;fill:#b3b3b3;stroke:#b3b3b3;stroke-width:0.132292" />
    <path
       d="M 14.536165,8.7195249 V 8.5872337 h 0.264583 V 7.9257774 H 14.536165 V 7.7934861 h 0.793748 V 7.9257774 H 15.06533 v 0.6614563 h 0.264583 v 0.1322912 z"
       id="path11483"
       style="font-size:1.05833px;line-height:2.35;font-family:'Press Start 2P';-inkscape-font-specification:'Press Start 2P, Normal';letter-spacing:0.0449792px;word-spacing:-0.00529167px;fill:#b3b3b3;stroke:#b3b3b3;stroke-width:0.132292" />
    <path
       d="M 15.771766,8.7195249 V 8.5872337 H 15.639475 V 8.4549424 H 15.507184 V 8.0580686 h 0.132291 V 7.9257774 h 0.132291 V 7.7934861 h 0.529165 v 0.1322913 h 0.132291 V 8.0580686 H 16.16864 V 7.9257774 h -0.264583 v 0.1322912 h -0.132291 v 0.3968738 h 0.132291 V 8.5872337 H 16.16864 V 8.4549424 h 0.264582 v 0.1322913 h -0.132291 v 0.1322912 z"
       id="path11485"
       style="font-size:1.05833px;line-height:2.35;font-family:'Press Start 2P';-inkscape-font-specification:'Press Start 2P, Normal';letter-spacing:0.0449792px;word-spacing:-0.00529167px;fill:#b3b3b3;stroke:#b3b3b3;stroke-width:0.132292" />
    <path
       d="M 17.973093,8.7195249 V 8.5872337 H 17.840801 V 8.4549424 H 17.70851 V 8.0580686 h 0.132291 V 7.9257774 h 0.132292 V 7.7934861 h 0.529165 v 0.1322913 h 0.132291 V 8.0580686 H 18.369966 V 7.9257774 h -0.264582 v 0.1322912 h -0.132291 v 0.3968738 h 0.132291 v 0.1322913 h 0.264582 V 8.4549424 h 0.264583 v 0.1322913 h -0.132291 v 0.1322912 z"
       id="path11487"
       style="font-size:1.05833px;line-height:2.35;font-family:'Press Start 2P';-inkscape-font-specification:'Press Start 2P, Normal';letter-spacing:0.0449792px;word-spacing:-0.00529167px;fill:#b3b3b3;stroke:#b3b3b3;stroke-width:0.132292" />
    <path
       d="M 18.81182,8.7195249 V 8.0580686 h 0.132291 V 7.9257774 h 0.132291 V 7.7934861 h 0.396874 v 0.1322913 h 0.132291 v 0.1322912 h 0.132291 V 8.7195249 H 19.473276 V 8.4549424 h -0.396874 v 0.2645825 z m 0.264582,-0.3968738 h 0.396874 V 8.0580686 H 19.340985 V 7.9257774 h -0.132292 v 0.1322912 h -0.132291 z"
       id="path11489"
       style="font-size:1.05833px;line-height:2.35;font-family:'Press Start 2P';-inkscape-font-specification:'Press Start 2P, Normal';letter-spacing:0.0449792px;word-spacing:-0.00529167px;fill:#b3b3b3;stroke:#b3b3b3;stroke-width:0.132292" />
    <path
       d="M 19.915129,8.7195249 V 7.7934861 h 0.264583 v 0.1322913 h 0.132291 v 0.1322912 h 0.132291 v 0.1322913 h 0.132292 V 7.7934861 h 0.264582 V 8.7195249 H 20.576586 V 8.4549424 H 20.444294 V 8.3226511 H 20.312003 V 8.1903599 h -0.132291 v 0.529165 z"
       id="path11491"
       style="font-size:1.05833px;line-height:2.35;font-family:'Press Start 2P';-inkscape-font-specification:'Press Start 2P, Normal';letter-spacing:0.0449792px;word-spacing:-0.00529167px;fill:#b3b3b3;stroke:#b3b3b3;stroke-width:0.132292" />
    <path
       d="M 21.15073,8.7195249 V 8.5872337 h 0.264583 V 7.9257774 H 21.15073 V 7.7934861 h 0.793748 v 0.1322913 h -0.264583 v 0.6614563 h 0.264583 v 0.1322912 z"
       id="path11493"
       style="font-size:1.05833px;line-height:2.35;font-family:'Press Start 2P';-inkscape-font-specification:'Press Start 2P, Normal';letter-spacing:0.0449792px;word-spacing:-0.00529167px;fill:#b3b3b3;stroke:#b3b3b3;stroke-width:0.132292" />
    <path
       d="M 22.121747,8.7195249 V 7.7934861 h 0.264582 v 0.1322913 h 0.132291 v 0.1322912 h 0.132292 v 0.1322913 h 0.132291 V 7.7934861 h 0.264582 V 8.7195249 H 22.783203 V 8.4549424 H 22.650912 V 8.3226511 H 22.51862 V 8.1903599 h -0.132291 v 0.529165 z"
       id="path11495"
       style="font-size:1.05833px;line-height:2.35;font-family:'Press Start 2P';-inkscape-font-specification:'Press Start 2P, Normal';letter-spacing:0.0449792px;word-spacing:-0.00529167px;fill:#b3b3b3;stroke:#b3b3b3;stroke-width:0.132292" />
    <path
       d="M 23.225056,8.7195249 V 7.7934861 h 0.926039 v 0.1322913 h -0.661456 v 0.2645825 h 0.529165 v 0.1322912 h -0.529165 v 0.2645826 h 0.661456 v 0.1322912 z"
       id="path11497"
       style="font-size:1.05833px;line-height:2.35;font-family:'Press Start 2P';-inkscape-font-specification:'Press Start 2P, Normal';letter-spacing:0.0449792px;word-spacing:-0.00529167px;fill:#b3b3b3;stroke:#b3b3b3;stroke-width:0.132292" />
    <path
       d="M 25.558674,8.7195249 V 8.5872337 H 25.426383 V 8.4549424 h 0.264582 v 0.1322913 h 0.396874 V 8.3226511 H 25.558674 V 8.1903599 H 25.426383 V 7.9257774 h 0.132291 V 7.7934861 h 0.661456 v 0.1322913 h 0.132291 V 8.0580686 H 26.087839 V 7.9257774 h -0.396874 v 0.2645825 h 0.529165 v 0.1322912 h 0.132291 V 8.5872337 H 26.22013 v 0.1322912 z"
       id="path11499"
       style="font-size:1.05833px;line-height:2.35;font-family:'Press Start 2P';-inkscape-font-specification:'Press Start 2P, Normal';letter-spacing:0.0449792px;word-spacing:-0.00529167px;fill:#b3b3b3;stroke:#b3b3b3;stroke-width:0.132292" />
    <path
       d="M 26.529692,8.7195249 V 7.7934861 h 0.264583 v 0.1322913 h 0.132291 v 0.1322912 h 0.132291 v 0.1322913 h 0.132292 V 7.7934861 h 0.264582 V 8.7195249 H 27.191149 V 8.4549424 H 27.058857 V 8.3226511 H 26.926566 V 8.1903599 h -0.132291 v 0.529165 z"
       id="path11501"
       style="font-size:1.05833px;line-height:2.35;font-family:'Press Start 2P';-inkscape-font-specification:'Press Start 2P, Normal';letter-spacing:0.0449792px;word-spacing:-0.00529167px;fill:#b3b3b3;stroke:#b3b3b3;stroke-width:0.132292" />
    <path
       d="M 27.633002,8.7195249 V 8.0580686 h 0.132291 V 7.9257774 h 0.132291 V 7.7934861 h 0.396874 v 0.1322913 h 0.132291 v 0.1322912 h 0.132292 V 8.7195249 H 28.294458 V 8.4549424 h -0.396874 v 0.2645825 z m 0.264582,-0.3968738 h 0.396874 V 8.0580686 H 28.162167 V 7.9257774 h -0.132291 v 0.1322912 h -0.132292 z"
       id="path11503"
       style="font-size:1.05833px;line-height:2.35;font-family:'Press Start 2P';-inkscape-font-specification:'Press Start 2P, Normal';letter-spacing:0.0449792px;word-spacing:-0.00529167px;fill:#b3b3b3;stroke:#b3b3b3;stroke-width:0.132292" />
    <path
       d="M 28.736312,8.7195249 V 7.7934861 h 0.793747 v 0.1322913 h 0.132291 v 0.3968737 h -0.132291 v 0.1322913 h -0.529165 v 0.2645825 z m 0.264582,-0.3968738 h 0.396874 V 7.9257774 h -0.396874 z"
       id="path11505"
       style="font-size:1.05833px;line-height:2.35;font-family:'Press Start 2P';-inkscape-font-specification:'Press Start 2P, Normal';letter-spacing:0.0449792px;word-spacing:-0.00529167px;fill:#b3b3b3;stroke:#b3b3b3;stroke-width:0.132292" />
    <path
       d="M 31.20222,8.7195249 V 8.5872337 H 31.069929 V 8.4549424 H 30.937638 V 8.0580686 h 0.132291 V 7.9257774 H 31.20222 V 7.7934861 h 0.661457 V 7.9257774 H 31.334512 V 8.0580686 H 31.20222 v 0.3968738 h 0.132292 v 0.1322913 h 0.264582 V 8.3226511 H 31.466803 V 8.1903599 h 0.396874 v 0.529165 z"
       id="path11507"
       style="font-size:1.05833px;line-height:2.35;font-family:'Press Start 2P';-inkscape-font-specification:'Press Start 2P, Normal';letter-spacing:0.0449792px;word-spacing:-0.00529167px;fill:#b3b3b3;stroke:#b3b3b3;stroke-width:0.132292" />
    <path
       d="M 32.040948,8.7195249 V 8.0580686 h 0.132291 V 7.9257774 H 32.30553 V 7.7934861 h 0.396874 v 0.1322913 h 0.132291 v 0.1322912 h 0.132291 V 8.7195249 H 32.702404 V 8.4549424 H 32.30553 V 8.7195249 Z M 32.30553,8.3226511 h 0.396874 V 8.0580686 H 32.570113 V 7.9257774 H 32.437821 V 8.0580686 H 32.30553 Z"
       id="path11509"
       style="font-size:1.05833px;line-height:2.35;font-family:'Press Start 2P';-inkscape-font-specification:'Press Start 2P, Normal';letter-spacing:0.0449792px;word-spacing:-0.00529167px;fill:#b3b3b3;stroke:#b3b3b3;stroke-width:0.132292" />
    <path
       d="M 33.144255,8.7195249 V 7.7934861 h 0.264583 v 0.1322913 h 0.132291 V 8.0580686 H 33.67342 V 7.9257774 h 0.132292 V 7.7934861 h 0.264582 V 8.7195249 H 33.805712 V 8.1903599 H 33.67342 V 8.4549424 H 33.541129 V 8.1903599 h -0.132291 v 0.529165 z"
       id="path11511"
       style="font-size:1.05833px;line-height:2.35;font-family:'Press Start 2P';-inkscape-font-specification:'Press Start 2P, Normal';letter-spacing:0.0449792px;word-spacing:-0.00529167px;fill:#b3b3b3;stroke:#b3b3b3;stroke-width:0.132292" />
    <path
       d="M 34.247565,8.7195249 V 7.7934861 h 0.926039 v 0.1322913 h -0.661457 v 0.2645825 h 0.529165 v 0.1322912 h -0.529165 v 0.2645826 h 0.661457 v 0.1322912 z"
       id="path11513"
       style="font-size:1.05833px;line-height:2.35;font-family:'Press Start 2P';-inkscape-font-specification:'Press Start 2P, Normal';letter-spacing:0.0449792px;word-spacing:-0.00529167px;fill:#b3b3b3;stroke:#b3b3b3;stroke-width:0.132292" />
  </g>
</svg>
