<?xml version="1.0" encoding="UTF-8" standalone="no"?>
<!-- Created with Inkscape (http://www.inkscape.org/) -->

<svg
   width="13.391385mm"
   height="2.7416363mm"
   viewBox="0 0 13.391385 2.7416363"
   version="1.1"
   id="svg5138"
   xmlns="http://www.w3.org/2000/svg"
   xmlns:svg="http://www.w3.org/2000/svg">
  <defs
     id="defs5135" />
  <g
     id="g13583">
    <g
       id="g4039"
       transform="matrix(0.10510475,0,0,0.1051046,-55.634394,-69.833295)"
       style="fill:#b3b3b3;fill-opacity:1;stroke:#b3b3b3;stroke-opacity:1">
      <g
         id="g4037"
         style="fill:#b3b3b3;fill-opacity:1;stroke:#b3b3b3;stroke-opacity:1">
        <g
           id="g4035"
           transform="translate(411.34411,93.161208)"
           style="fill:#b3b3b3;fill-opacity:1;stroke:#b3b3b3;stroke-opacity:1">
          <path
             id="path4009"
             style="opacity:1;fill:#b3b3b3;fill-opacity:1;stroke:#b3b3b3;stroke-width:2.07012;stroke-opacity:1;stop-color:#000000"
             d="m 555.86328,2186.6309 v 10 h -10 v 10 h -10 v 10 h -10 v 10 h 10 v 10 h 10 v 10 h 10 v 10 h 30 v -10 h 10 v -10 h 10 v -10 h 10 v -10 h -10 v -10 h -10 v -10 h -10 v -10 z"
             transform="scale(0.26458333)" />
          <g
             id="g4015"
             transform="translate(-3.5004525,19.169145)"
             style="fill:#b3b3b3;fill-opacity:1;stroke:#b3b3b3;stroke-opacity:1">
            <rect
               style="opacity:1;fill:#b3b3b3;fill-opacity:1;stroke:#b3b3b3;stroke-width:0.662346;stroke-opacity:1;stop-color:#000000"
               id="rect4011"
               width="3.96875"
               height="1.3229166"
               x="146.74483"
               y="553.74091" />
            <rect
               style="opacity:1;fill:#b3b3b3;fill-opacity:1;stroke:#b3b3b3;stroke-width:0.662346;stroke-opacity:1;stop-color:#000000"
               id="rect4013"
               width="3.96875"
               height="1.3229166"
               x="552.41797"
               y="-149.39066"
               transform="rotate(90)" />
          </g>
          <g
             id="g4021"
             transform="translate(7.612048,19.169145)"
             style="fill:#b3b3b3;fill-opacity:1;stroke:#b3b3b3;stroke-opacity:1">
            <rect
               style="opacity:1;fill:#b3b3b3;fill-opacity:1;stroke:#b3b3b3;stroke-width:0.662346;stroke-opacity:1;stop-color:#000000"
               id="rect4017"
               width="3.96875"
               height="1.3229166"
               x="146.74483"
               y="553.74091" />
            <rect
               style="opacity:1;fill:#b3b3b3;fill-opacity:1;stroke:#b3b3b3;stroke-width:0.662346;stroke-opacity:1;stop-color:#000000"
               id="rect4019"
               width="3.96875"
               height="1.3229166"
               x="552.41797"
               y="-149.39066"
               transform="rotate(90)" />
          </g>
          <g
             id="g4027"
             transform="translate(14.491217,24.460815)"
             style="fill:#b3b3b3;fill-opacity:1;stroke:#b3b3b3;stroke-opacity:1">
            <rect
               style="opacity:1;fill:#b3b3b3;fill-opacity:1;stroke:#b3b3b3;stroke-width:0.662346;stroke-opacity:1;stop-color:#000000"
               id="rect4023"
               width="3.96875"
               height="1.3229166"
               x="146.74483"
               y="553.74091" />
            <rect
               style="opacity:1;fill:#b3b3b3;fill-opacity:1;stroke:#b3b3b3;stroke-width:0.662346;stroke-opacity:1;stop-color:#000000"
               id="rect4025"
               width="3.96875"
               height="1.3229166"
               x="552.41797"
               y="-149.39066"
               transform="rotate(90)" />
          </g>
          <g
             id="g4033"
             transform="translate(-9.8504533,24.460815)"
             style="fill:#b3b3b3;fill-opacity:1;stroke:#b3b3b3;stroke-opacity:1">
            <rect
               style="opacity:1;fill:#b3b3b3;fill-opacity:1;stroke:#b3b3b3;stroke-width:0.662346;stroke-opacity:1;stop-color:#000000"
               id="rect4029"
               width="3.96875"
               height="1.3229166"
               x="146.74483"
               y="553.74091" />
            <rect
               style="opacity:1;fill:#b3b3b3;fill-opacity:1;stroke:#b3b3b3;stroke-width:0.662346;stroke-opacity:1;stop-color:#000000"
               id="rect4031"
               width="3.96875"
               height="1.3229166"
               x="552.41797"
               y="-149.39066"
               transform="rotate(90)" />
          </g>
        </g>
      </g>
    </g>
    <path
       d="M 0.06614191,2.6687233 V 0.79673076 H 1.4032794 V 1.0641583 H 1.6707069 V 1.3315858 H 1.9381344 V 2.1338683 H 1.6707069 V 2.4012958 H 1.4032794 V 2.6687233 Z M 0.60099692,2.4012958 H 1.1358519 V 2.1338683 H 1.4032794 V 1.3315858 H 1.1358519 V 1.0641583 H 0.60099692 Z"
       style="font-size:2.13942px;line-height:1.25;font-family:'Press Start 2P';-inkscape-font-specification:'Press Start 2P, Normal';fill:#b3b3b3;stroke:#b3b3b3;stroke-width:0.132292"
       id="path13528" />
    <path
       d="M 5.569837,2.6687233 V 2.4012958 H 5.3024095 V 2.1338683 H 5.034982 V 1.3315858 H 5.3024095 V 1.0641583 H 5.569837 V 0.79673076 H 6.9069746 V 1.0641583 H 5.8372645 V 1.3315858 H 5.569837 V 2.1338683 H 5.8372645 V 2.4012958 H 6.3721196 V 1.8664408 H 6.104692 V 1.5990133 h 0.8022826 v 1.06971 z"
       style="font-size:2.13942px;line-height:1.25;font-family:'Press Start 2P';-inkscape-font-specification:'Press Start 2P, Normal';fill:#b3b3b3;stroke:#b3b3b3;stroke-width:0.132292"
       id="path13530" />
    <path
       d="M 7.7092571,2.6687233 V 2.4012958 H 7.4418296 V 2.1338683 H 7.1744021 V 1.3315858 H 7.4418296 V 1.0641583 H 7.7092571 V 0.79673076 H 9.0463946 V 1.0641583 h -1.06971 V 1.3315858 H 7.7092571 v 0.8022825 h 0.2674275 v 0.2674275 h 0.534855 V 1.8664408 H 8.2441121 V 1.5990133 h 0.8022825 v 1.06971 z"
       style="font-size:2.13942px;line-height:1.25;font-family:'Press Start 2P';-inkscape-font-specification:'Press Start 2P, Normal';fill:#b3b3b3;stroke:#b3b3b3;stroke-width:0.132292"
       id="path13532" />
    <path
       d="M 9.5812491,2.6687233 V 0.79673076 H 10.116104 V 2.4012958 h 1.06971 v 0.2674275 z"
       style="font-size:2.13942px;line-height:1.25;font-family:'Press Start 2P';-inkscape-font-specification:'Press Start 2P, Normal';fill:#b3b3b3;stroke:#b3b3b3;stroke-width:0.132292"
       id="path13534" />
    <path
       d="M 11.453242,2.6687233 V 0.79673076 h 1.871993 V 1.0641583 h -1.337138 v 0.534855 h 1.06971 v 0.2674275 h -1.06971 v 0.534855 h 1.337138 v 0.2674275 z"
       style="font-size:2.13942px;line-height:1.25;font-family:'Press Start 2P';-inkscape-font-specification:'Press Start 2P, Normal';fill:#b3b3b3;stroke:#b3b3b3;stroke-width:0.132292"
       id="path13536" />
  </g>
</svg>
