<?xml version="1.0" encoding="UTF-8" standalone="no"?>
<!-- Created with Inkscape (http://www.inkscape.org/) -->

<svg
   width="13.391385mm"
   height="3.0022931mm"
   viewBox="0 0 13.391385 3.0022931"
   version="1.1"
   id="svg5138"
   sodipodi:docname="dogglewatermark copy.svg"
   xmlns:inkscape="http://www.inkscape.org/namespaces/inkscape"
   xmlns:sodipodi="http://sodipodi.sourceforge.net/DTD/sodipodi-0.dtd"
   xmlns="http://www.w3.org/2000/svg"
   xmlns:svg="http://www.w3.org/2000/svg">
  <sodipodi:namedview
     id="namedview23667"
     pagecolor="#ffffff"
     bordercolor="#666666"
     borderopacity="1.0"
     inkscape:pageshadow="2"
     inkscape:pageopacity="0.0"
     inkscape:pagecheckerboard="0"
     inkscape:document-units="mm"
     showgrid="false" />
  <defs
     id="defs5135" />
  <g
     id="g4039"
     transform="matrix(0.10510475,0,0,0.1051046,-55.634394,-69.833295)"
     style="fill:#b3b3b3;fill-opacity:1;stroke:#b3b3b3;stroke-opacity:1">
    <g
       id="g4037"
       style="fill:#b3b3b3;fill-opacity:1;stroke:#b3b3b3;stroke-opacity:1">
      <g
         id="g4035"
         transform="translate(411.34411,93.161208)"
         style="fill:#b3b3b3;fill-opacity:1;stroke:#b3b3b3;stroke-opacity:1">
        <path
           id="path4009"
           style="opacity:1;fill:#b3b3b3;fill-opacity:1;stroke:#b3b3b3;stroke-width:2.07012;stroke-opacity:1;stop-color:#000000"
           d="m 555.86328,2186.6309 v 10 h -10 v 10 h -10 v 10 h -10 v 10 h 10 v 10 h 10 v 10 h 10 v 10 h 30 v -10 h 10 v -10 h 10 v -10 h 10 v -10 h -10 v -10 h -10 v -10 h -10 v -10 z"
           transform="scale(0.26458333)" />
        <g
           id="g4015"
           transform="translate(-3.5004525,19.169145)"
           style="fill:#b3b3b3;fill-opacity:1;stroke:#b3b3b3;stroke-opacity:1">
          <path
             id="rect4011"
             style="opacity:1;stroke-width:0.662346;stop-color:#000000"
             d="m 146.74483,553.74091 h 3.96875 v 1.32291 h -3.96875 z" />
          <path
             id="rect4013"
             style="opacity:1;stroke-width:0.662346;stop-color:#000000"
             transform="rotate(90)"
             d="m 552.41797,-149.39066 h 3.96875 v 1.32292 h -3.96875 z" />
        </g>
        <g
           id="g4021"
           transform="translate(7.612048,19.169145)"
           style="fill:#b3b3b3;fill-opacity:1;stroke:#b3b3b3;stroke-opacity:1">
          <path
             id="rect4017"
             style="opacity:1;stroke-width:0.662346;stop-color:#000000"
             d="m 146.74483,553.74091 h 3.96875 v 1.32291 h -3.96875 z" />
          <path
             id="rect4019"
             style="opacity:1;stroke-width:0.662346;stop-color:#000000"
             transform="rotate(90)"
             d="m 552.41797,-149.39066 h 3.96875 v 1.32292 h -3.96875 z" />
        </g>
        <g
           id="g4027"
           transform="translate(14.491217,24.460815)"
           style="fill:#b3b3b3;fill-opacity:1;stroke:#b3b3b3;stroke-opacity:1">
          <path
             id="rect4023"
             style="opacity:1;stroke-width:0.662346;stop-color:#000000"
             d="m 146.74483,553.74091 h 3.96875 v 1.32291 h -3.96875 z" />
          <path
             id="rect4025"
             style="opacity:1;stroke-width:0.662346;stop-color:#000000"
             transform="rotate(90)"
             d="m 552.41797,-149.39066 h 3.96875 v 1.32292 h -3.96875 z" />
        </g>
        <g
           id="g4033"
           transform="translate(-9.8504533,24.460815)"
           style="fill:#b3b3b3;fill-opacity:1;stroke:#b3b3b3;stroke-opacity:1">
          <path
             id="rect4029"
             style="opacity:1;stroke-width:0.662346;stop-color:#000000"
             d="m 146.74483,553.74091 h 3.96875 v 1.32291 h -3.96875 z" />
          <path
             id="rect4031"
             style="opacity:1;stroke-width:0.662346;stop-color:#000000"
             transform="rotate(90)"
             d="m 552.41797,-149.39066 h 3.96875 v 1.32292 h -3.96875 z" />
        </g>
      </g>
    </g>
  </g>
  <g
     aria-label="D GGLE"
     id="text4071"
     style="font-size:2.13942px;line-height:1.25;fill:#b3b3b3;stroke:#b3b3b3;stroke-width:0.132292"
     transform="translate(-111.48232,-145.70304)">
    <path
       d="m 111.54846,148.37176 v -1.87199 h 1.33714 v 0.26743 h 0.26743 v 0.26743 h 0.26742 v 0.80228 h -0.26742 v 0.26743 h -0.26743 v 0.26742 z m 0.53486,-0.26742 h 0.53485 v -0.26743 h 0.26743 v -0.80228 h -0.26743 v -0.26743 h -0.53485 z"
       style="font-family:'Press Start 2P';-inkscape-font-specification:'Press Start 2P, Normal'"
       id="path23734" />
    <path
       d="m 117.05216,148.37176 v -0.26742 h -0.26743 v -0.26743 h -0.26743 v -0.80228 h 0.26743 v -0.26743 h 0.26743 v -0.26743 h 1.33713 v 0.26743 h -1.06971 v 0.26743 h -0.26742 v 0.80228 h 0.26742 v 0.26743 h 0.53486 v -0.53486 h -0.26743 v -0.26743 h 0.80228 v 1.06971 z"
       style="font-family:'Press Start 2P';-inkscape-font-specification:'Press Start 2P, Normal'"
       id="path23736" />
    <path
       d="m 119.19158,148.37176 v -0.26742 h -0.26743 v -0.26743 h -0.26743 v -0.80228 h 0.26743 v -0.26743 h 0.26743 v -0.26743 h 1.33713 v 0.26743 H 119.459 v 0.26743 h -0.26742 v 0.80228 h 0.26742 v 0.26743 h 0.53486 v -0.53486 h -0.26743 v -0.26743 h 0.80228 v 1.06971 z"
       style="font-family:'Press Start 2P';-inkscape-font-specification:'Press Start 2P, Normal'"
       id="path23738" />
    <path
       d="m 121.06357,148.37176 v -1.87199 h 0.53485 v 1.60457 h 1.06971 v 0.26742 z"
       style="font-family:'Press Start 2P';-inkscape-font-specification:'Press Start 2P, Normal'"
       id="path23740" />
    <path
       d="m 122.93556,148.37176 v -1.87199 h 1.87199 v 0.26743 h -1.33713 v 0.53485 h 1.06971 v 0.26743 h -1.06971 v 0.53486 h 1.33713 v 0.26742 z"
       style="font-family:'Press Start 2P';-inkscape-font-specification:'Press Start 2P, Normal'"
       id="path23742" />
  </g>
</svg>
