<?xml version="1.0" encoding="UTF-8" standalone="no"?>
<!-- Created with Inkscape (http://www.inkscape.org/) -->

<svg
   width="26.381975mm"
   height="5.5497823mm"
   viewBox="0 0 26.381975 5.5497823"
   version="1.1"
   id="svg2932"
   xmlns:xlink="http://www.w3.org/1999/xlink"
   xmlns="http://www.w3.org/2000/svg"
   xmlns:svg="http://www.w3.org/2000/svg">
  <defs
     id="defs2929">
    <linearGradient
       id="linearGradient45127">
      <stop
         style="stop-color:#ff8080;stop-opacity:1;"
         offset="0"
         id="stop45125" />
    </linearGradient>
    <linearGradient
       xlink:href="#linearGradient45127"
       id="linearGradient3069"
       gradientUnits="userSpaceOnUse"
       gradientTransform="matrix(0.2021502,0,0,0.2021502,95.421673,102.29879)"
       x1="167.83827"
       y1="102.20257"
       x2="282.93164"
       y2="102.20257" />
    <linearGradient
       xlink:href="#linearGradient45127"
       id="linearGradient12268"
       gradientTransform="scale(2.2088344,0.45272747)"
       x1="57.928454"
       y1="260.52134"
       x2="69.836363"
       y2="260.52134"
       gradientUnits="userSpaceOnUse" />
    <linearGradient
       xlink:href="#linearGradient45127"
       id="linearGradient12645"
       gradientUnits="userSpaceOnUse"
       gradientTransform="matrix(0.2021502,0,0,0.2021502,95.421673,102.29879)"
       x1="167.83827"
       y1="102.20257"
       x2="282.93164"
       y2="102.20257" />
    <linearGradient
       xlink:href="#linearGradient45127"
       id="linearGradient12647"
       gradientUnits="userSpaceOnUse"
       gradientTransform="matrix(0.2021502,0,0,0.2021502,95.421673,102.29879)"
       x1="167.83827"
       y1="102.20257"
       x2="282.93164"
       y2="102.20257" />
    <linearGradient
       xlink:href="#linearGradient45127"
       id="linearGradient12649"
       gradientUnits="userSpaceOnUse"
       gradientTransform="matrix(0.2021502,0,0,0.2021502,95.421673,102.29879)"
       x1="167.83827"
       y1="102.20257"
       x2="282.93164"
       y2="102.20257" />
    <linearGradient
       xlink:href="#linearGradient45127"
       id="linearGradient12651"
       gradientUnits="userSpaceOnUse"
       gradientTransform="matrix(0.2021502,0,0,0.2021502,95.421673,102.29879)"
       x1="167.83827"
       y1="102.20257"
       x2="282.93164"
       y2="102.20257" />
    <linearGradient
       xlink:href="#linearGradient45127"
       id="linearGradient12653"
       gradientUnits="userSpaceOnUse"
       gradientTransform="matrix(0.2021502,0,0,0.2021502,95.421673,102.29879)"
       x1="167.83827"
       y1="102.20257"
       x2="282.93164"
       y2="102.20257" />
    <linearGradient
       xlink:href="#linearGradient45127"
       id="linearGradient12655"
       gradientUnits="userSpaceOnUse"
       gradientTransform="matrix(0.2021502,0,0,0.2021502,95.421673,102.29879)"
       x1="167.83827"
       y1="102.20257"
       x2="282.93164"
       y2="102.20257" />
    <linearGradient
       xlink:href="#linearGradient45127"
       id="linearGradient12657"
       gradientUnits="userSpaceOnUse"
       gradientTransform="matrix(0.2021502,0,0,0.2021502,95.421673,102.29879)"
       x1="167.83827"
       y1="102.20257"
       x2="282.93164"
       y2="102.20257" />
    <linearGradient
       xlink:href="#linearGradient45127"
       id="linearGradient12659"
       gradientUnits="userSpaceOnUse"
       gradientTransform="matrix(0.2021502,0,0,0.2021502,95.421673,102.29879)"
       x1="167.83827"
       y1="102.20257"
       x2="282.93164"
       y2="102.20257" />
    <linearGradient
       xlink:href="#linearGradient45127"
       id="linearGradient12661"
       gradientUnits="userSpaceOnUse"
       gradientTransform="matrix(0.2021502,0,0,0.2021502,95.421673,102.29879)"
       x1="167.83827"
       y1="102.20257"
       x2="282.93164"
       y2="102.20257" />
  </defs>
  <g
     id="g58372"
     transform="translate(-127.84527,-120.27677)" />
  <g
     id="g12790">
    <path
       d="m 129.45613,123.94652 v -1.872 h 0.53486 v 0.80229 h 0.80228 v -0.80229 h 0.53485 v 1.872 h -0.53485 v -0.80229 h -0.80228 v 0.80229 z"
       style="font-size:2.13942px;line-height:1.25;font-family:'Press Start 2P';-inkscape-font-specification:'Press Start 2P, Normal';fill:#b3b3b3;stroke:#b3b3b3;stroke-width:0.132292"
       id="path12683"
       transform="translate(-127.84527,-120.27677)" />
    <path
       d="m 131.86298,123.94652 v -0.26743 h -0.26743 v -1.33714 h 0.26743 v -0.26743 h 1.33714 v 0.26743 h 0.26742 v 1.33714 h -0.26742 v 0.26743 z m 0.26743,-0.26743 h 0.80228 v -1.33714 h -0.80228 z"
       style="font-size:2.13942px;line-height:1.25;font-family:'Press Start 2P';-inkscape-font-specification:'Press Start 2P, Normal';fill:#b3b3b3;stroke:#b3b3b3;stroke-width:0.132292"
       id="path12685"
       transform="translate(-127.84527,-120.27677)" />
    <path
       d="m 134.0024,123.94652 v -0.26743 h -0.26743 v -1.60457 h 0.53486 v 1.06971 h 0.26742 v -1.06971 h 0.26743 v 1.06971 h 0.26743 v -1.06971 h 0.53485 v 1.60457 h -0.26742 v 0.26743 h -0.26743 v -0.26743 h -0.26743 v -0.26743 h -0.26743 v 0.26743 h -0.26742 v 0.26743 z"
       style="font-size:2.13942px;line-height:1.25;font-family:'Press Start 2P';-inkscape-font-specification:'Press Start 2P, Normal';fill:#b3b3b3;stroke:#b3b3b3;stroke-width:0.132292"
       id="path12687"
       transform="translate(-127.84527,-120.27677)" />
    <path
       d="m 138.81609,123.94652 v -1.60457 h -0.53485 v -0.26743 h 1.60456 v 0.26743 h -0.53485 v 1.60457 z"
       style="font-size:2.13942px;line-height:1.25;font-family:'Press Start 2P';-inkscape-font-specification:'Press Start 2P, Normal';fill:#b3b3b3;stroke:#b3b3b3;stroke-width:0.132292"
       id="path12689"
       transform="translate(-127.84527,-120.27677)" />
    <path
       d="m 140.42066,123.94652 v -0.26743 h -0.26743 v -1.33714 h 0.26743 v -0.26743 h 1.33714 v 0.26743 h 0.26742 v 1.33714 h -0.26742 v 0.26743 z m 0.26743,-0.26743 h 0.80228 v -1.33714 h -0.80228 z"
       style="font-size:2.13942px;line-height:1.25;font-family:'Press Start 2P';-inkscape-font-specification:'Press Start 2P, Normal';fill:#b3b3b3;stroke:#b3b3b3;stroke-width:0.132292"
       id="path12691"
       transform="translate(-127.84527,-120.27677)" />
    <path
       d="m 144.43207,123.94652 v -1.872 h 1.60457 v 0.26743 h 0.26742 v 0.80228 h -0.26742 v 0.26743 h -1.06971 v 0.53486 z m 0.53486,-0.80229 h 0.80228 v -0.80228 h -0.80228 z"
       style="font-size:2.13942px;line-height:1.25;font-family:'Press Start 2P';-inkscape-font-specification:'Press Start 2P, Normal';fill:#b3b3b3;stroke:#b3b3b3;stroke-width:0.132292"
       id="path12693"
       transform="translate(-127.84527,-120.27677)" />
    <path
       d="m 146.83892,123.94652 v -1.872 h 0.53485 v 1.60457 h 1.06971 v 0.26743 z"
       style="font-size:2.13942px;line-height:1.25;font-family:'Press Start 2P';-inkscape-font-specification:'Press Start 2P, Normal';fill:#b3b3b3;stroke:#b3b3b3;stroke-width:0.132292"
       id="path12695"
       transform="translate(-127.84527,-120.27677)" />
    <path
       d="m 148.71091,123.94652 v -1.33714 h 0.26743 v -0.26743 h 0.26743 v -0.26743 h 0.80228 v 0.26743 h 0.26743 v 0.26743 h 0.26742 v 1.33714 h -0.53485 v -0.53486 h -0.80228 v 0.53486 z m 0.53486,-0.80229 h 0.80228 v -0.53485 h -0.26743 v -0.26743 h -0.26743 v 0.26743 h -0.26742 z"
       style="font-size:2.13942px;line-height:1.25;font-family:'Press Start 2P';-inkscape-font-specification:'Press Start 2P, Normal';fill:#b3b3b3;stroke:#b3b3b3;stroke-width:0.132292"
       id="path12697"
       transform="translate(-127.84527,-120.27677)" />
    <path
       d="m 151.65261,123.94652 v -0.80229 h -0.26742 v -0.26742 h -0.26743 v -0.80229 h 0.53485 v 0.80229 h 0.53486 v -0.80229 h 0.53485 v 0.80229 h -0.26742 v 0.26742 h -0.26743 v 0.80229 z"
       style="font-size:2.13942px;line-height:1.25;font-family:'Press Start 2P';-inkscape-font-specification:'Press Start 2P, Normal';fill:#b3b3b3;stroke:#b3b3b3;stroke-width:0.132292"
       id="path12699"
       transform="translate(-127.84527,-120.27677)" />
    <g
       id="g12681"
       transform="translate(-127.84527,-120.27677)">
      <path
         d="m 129.35019,123.76137 v -1.872 h 0.53485 v 0.80229 h 0.80229 v -0.80229 h 0.53485 v 1.872 h -0.53485 v -0.80229 h -0.80229 v 0.80229 z"
         style="font-size:2.13942px;line-height:1.25;font-family:'Press Start 2P';-inkscape-font-specification:'Press Start 2P, Normal';fill:#ff0000;stroke:url(#linearGradient12645);stroke-width:0.132292"
         id="path12608" />
      <path
         d="m 131.75704,123.76137 v -0.26743 h -0.26743 v -1.33714 h 0.26743 v -0.26743 h 1.33713 v 0.26743 h 0.26743 v 1.33714 h -0.26743 v 0.26743 z m 0.26742,-0.26743 h 0.80229 v -1.33714 h -0.80229 z"
         style="font-size:2.13942px;line-height:1.25;font-family:'Press Start 2P';-inkscape-font-specification:'Press Start 2P, Normal';fill:#ff0000;stroke:url(#linearGradient12647);stroke-width:0.132292"
         id="path12610" />
      <path
         d="m 133.89646,123.76137 v -0.26743 h -0.26743 v -1.60457 h 0.53485 v 1.06971 h 0.26743 v -1.06971 h 0.26743 v 1.06971 h 0.26743 v -1.06971 h 0.53485 v 1.60457 h -0.26743 v 0.26743 h -0.26742 v -0.26743 h -0.26743 v -0.26743 h -0.26743 v 0.26743 h -0.26743 v 0.26743 z"
         style="font-size:2.13942px;line-height:1.25;font-family:'Press Start 2P';-inkscape-font-specification:'Press Start 2P, Normal';fill:#ff0000;stroke:url(#linearGradient12649);stroke-width:0.132292"
         id="path12612" />
      <path
         d="m 138.71015,123.76137 v -1.60457 h -0.53485 v -0.26743 h 1.60456 v 0.26743 h -0.53485 v 1.60457 z"
         style="font-size:2.13942px;line-height:1.25;font-family:'Press Start 2P';-inkscape-font-specification:'Press Start 2P, Normal';fill:#ff0000;stroke:url(#linearGradient12651);stroke-width:0.132292"
         id="path12614" />
      <path
         d="m 140.31472,123.76137 v -0.26743 h -0.26743 v -1.33714 h 0.26743 v -0.26743 h 1.33713 v 0.26743 h 0.26743 v 1.33714 h -0.26743 v 0.26743 z m 0.26742,-0.26743 h 0.80229 v -1.33714 h -0.80229 z"
         style="font-size:2.13942px;line-height:1.25;font-family:'Press Start 2P';-inkscape-font-specification:'Press Start 2P, Normal';fill:#ff0000;stroke:url(#linearGradient12653);stroke-width:0.132292"
         id="path12616" />
      <path
         d="m 144.32613,123.76137 v -1.872 h 1.60456 v 0.26743 h 0.26743 v 0.80228 h -0.26743 v 0.26743 h -1.06971 v 0.53486 z m 0.53485,-0.80229 h 0.80229 v -0.80228 h -0.80229 z"
         style="font-size:2.13942px;line-height:1.25;font-family:'Press Start 2P';-inkscape-font-specification:'Press Start 2P, Normal';fill:#ff0000;stroke:url(#linearGradient12655);stroke-width:0.132292"
         id="path12618" />
      <path
         d="m 146.73298,123.76137 v -1.872 h 0.53485 v 1.60457 h 1.06971 v 0.26743 z"
         style="font-size:2.13942px;line-height:1.25;font-family:'Press Start 2P';-inkscape-font-specification:'Press Start 2P, Normal';fill:#ff0000;stroke:url(#linearGradient12657);stroke-width:0.132292"
         id="path12620" />
      <path
         d="m 148.60497,123.76137 v -1.33714 h 0.26743 v -0.26743 h 0.26742 v -0.26743 h 0.80229 v 0.26743 h 0.26742 v 0.26743 h 0.26743 v 1.33714 h -0.53485 v -0.53486 h -0.80229 v 0.53486 z m 0.53485,-0.80229 h 0.80229 v -0.53485 h -0.26743 v -0.26743 h -0.26743 v 0.26743 h -0.26743 z"
         style="font-size:2.13942px;line-height:1.25;font-family:'Press Start 2P';-inkscape-font-specification:'Press Start 2P, Normal';fill:#ff0000;stroke:url(#linearGradient12659);stroke-width:0.132292"
         id="path12622" />
      <path
         d="m 151.54667,123.76137 v -0.80229 h -0.26743 v -0.26742 h -0.26742 v -0.80229 h 0.53485 v 0.80229 h 0.53486 v -0.80229 h 0.53485 v 0.80229 h -0.26743 v 0.26742 h -0.26742 v 0.80229 z"
         style="font-size:2.13942px;line-height:1.25;font-family:'Press Start 2P';-inkscape-font-specification:'Press Start 2P, Normal';fill:#ff0000;stroke:url(#linearGradient12661);stroke-width:0.132292"
         id="path12624" />
    </g>
    <g
       id="g59132"
       transform="translate(-127.95436,-117.94517)">
      <rect
         style="fill:none;stroke:#b3b3b3;stroke-width:0.174623;stroke-miterlimit:4;stroke-dasharray:none;stroke-opacity:1;stop-color:#000000"
         id="rect58434"
         width="26.127975"
         height="5.2164145"
         x="128.12105"
         y="118.19122"
         ry="2.6082072" />
      <rect
         style="fill:none;stroke:url(#linearGradient12268);stroke-width:0.174623;stroke-miterlimit:4;stroke-dasharray:none;stroke-opacity:1;stop-color:#000000"
         id="rect58458"
         width="26.127975"
         height="5.2164145"
         x="128.04167"
         y="118.03248"
         ry="2.6082072" />
    </g>
  </g>
</svg>
