<?xml version="1.0" encoding="UTF-8" standalone="no"?>
<!-- Created with Inkscape (http://www.inkscape.org/) -->

<svg
   width="39.356781mm"
   height="9.1779442mm"
   viewBox="0 0 39.356781 9.1779442"
   version="1.1"
   id="svg10446"
   xmlns="http://www.w3.org/2000/svg"
   xmlns:svg="http://www.w3.org/2000/svg">
  <defs
     id="defs10443" />
  <g
     id="layer1"
     transform="translate(-118.10512,-86.756385)">
    <g
       id="g10423"
       transform="translate(0.13453515,-148.37627)">
      <path
         d="m 121.91865,240.34186 v 0.32556 q -0.44959,0.45992 -0.78031,0.75447 -0.32557,0.28939 -0.57361,0.43925 -0.24288,0.14986 -0.41341,0.14986 -0.40308,0 -0.40308,-0.47542 0,-0.3824 0.24805,-0.88366 0.25321,-0.50643 0.72347,-1.18856 -0.23255,0.12919 -0.43925,0.29973 -0.20671,0.16536 -0.3669,0.35139 -0.1602,0.18087 -0.26872,0.31006 -0.33589,0.37724 -0.64595,0.77515 -0.31006,0.39274 -0.41858,0.51159 -0.10852,0.11886 -0.20671,0.11886 -0.40307,0 -0.40307,-0.99219 0,-0.32556 0.0982,-0.7183 0.0982,-0.39274 0.5271,-1.03869 0.90434,-1.35392 1.54512,-2.21175 0.64596,-0.86299 1.0697,-1.30224 0.42375,-0.44441 0.56844,-0.43408 0.18087,0.0155 0.28939,0.0724 0.11369,0.0568 0.11369,0.12919 0,0.12919 -0.18087,0.42891 -0.1757,0.29456 -0.60978,0.92501 -0.47026,0.66662 -0.66663,0.94051 -0.19636,0.26871 -0.5891,0.76997 -0.38758,0.49609 -0.71314,0.88883 -0.32039,0.38758 -0.7338,0.84233 v 0.62011 q 0.69246,-0.76997 1.19889,-1.2609 0.50643,-0.49092 0.85783,-0.73897 0.35139,-0.25321 0.51676,-0.25321 0.15503,0 0.28939,0.18603 0.13435,0.18087 0.13435,0.29972 0,0.0517 -0.0517,0.12919 -0.37207,0.44442 -0.59428,0.73898 -0.21704,0.28938 -0.3359,0.52193 -0.11885,0.22737 -0.11885,0.39274 0,0.24287 0.23254,0.24287 0.24805,0 1.10071,-0.66662 z"
         style="font-style:italic;font-size:10.5833px;line-height:1.25;font-family:'Brush Script MT';-inkscape-font-specification:'Brush Script MT, Italic';stroke-width:0.264583"
         id="path9492" />
      <path
         d="m 125.24143,240.33152 v 0.34624 q -0.34106,0.31005 -0.54777,0.41341 -0.2067,0.10335 -0.59427,0.0827 -0.6718,0.79581 -1.18339,0.79581 -0.28939,0 -0.5271,-0.1912 -0.23771,-0.1912 -0.3824,-0.52193 -0.13953,-0.33073 -0.13953,-0.73897 0,-0.33073 0.21704,-0.7338 0.22221,-0.40308 0.56844,-0.74931 0.3514,-0.3514 0.74931,-0.56327 0.3979,-0.21704 0.73897,-0.21704 0.24287,0 0.3824,0.0775 0.13953,0.0724 0.13953,0.20671 0,0.10335 -0.11886,0.23771 0.19637,0.0413 0.26872,0.13952 0.0723,0.093 0.0723,0.34624 0,0.24804 -0.11885,0.62528 -0.11369,0.37724 -0.31523,0.70796 l 0.093,0.093 h 0.0775 q 0.0879,0 0.17053,-0.0413 0.0879,-0.0465 0.15503,-0.093 0.0672,-0.0517 0.29455,-0.22221 z m -1.06453,-1.35908 q -0.42891,0.25838 -0.7338,0.47025 -0.30489,0.20671 -0.51677,0.42375 -0.21187,0.21187 -0.28422,0.42891 -0.12919,0.57878 -0.12919,0.62528 0,0.34107 0.47543,0.34107 0.2222,0 0.74413,-0.38241 -0.0878,-0.24288 -0.0878,-0.46508 0,-0.32556 0.13436,-0.66146 0.13436,-0.34106 0.39791,-0.78031 z"
         style="font-style:italic;font-size:10.5833px;line-height:1.25;font-family:'Brush Script MT';-inkscape-font-specification:'Brush Script MT, Italic';stroke-width:0.264583"
         id="path9494" />
      <path
         d="m 127.9286,240.95164 q 0,0.23254 0.1757,0.23254 0.22737,0 0.79581,-0.76997 -0.0207,-0.1447 -0.0207,-0.19121 0,-0.27905 0.22221,-0.68212 0.22221,-0.40308 0.51159,-0.7028 0.28939,-0.29972 0.43925,-0.29972 0.18087,0 0.18087,0.43408 0,0.35656 -0.15503,0.7028 -0.14986,0.34623 -0.43925,0.70796 0.0465,0.0465 0.10335,0.0982 0.0568,0.0465 0.11886,0.0827 0.0672,0.031 0.13952,0.031 0.17054,0 0.43409,-0.27388 v 0.3669 q -0.40825,0.42375 -0.70797,0.42375 -0.1757,0 -0.27905,-0.0413 -0.0982,-0.0465 -0.25322,-0.16019 -0.95084,1.14204 -1.44693,1.14204 -0.1912,0 -0.30489,-0.13952 -0.10852,-0.1447 -0.10852,-0.39791 0,-0.12402 0.10335,-0.93017 -0.20154,0.23254 -0.47025,0.54777 -0.26872,0.31522 -0.43408,0.48575 -0.16537,0.16537 -0.31006,0.25838 -0.13953,0.093 -0.28422,0.093 -0.13953,0 -0.3359,-0.1757 -0.1912,-0.1757 -0.32556,-0.46508 -0.13435,-0.29456 -0.13435,-0.63045 0,-0.32556 0.093,-0.55811 0.093,-0.23254 0.42375,-0.69763 0.29972,-0.41341 0.53226,-0.67696 0.23255,-0.26355 0.41858,-0.40824 0.1912,-0.14469 0.31006,-0.14469 0.0724,0 0.18603,0.0362 0.11886,0.031 0.20671,0.0879 0.093,0.0568 0.093,0.11886 0,0.19637 -0.1757,0.49609 -0.17053,0.29972 -0.5116,0.67179 -0.34106,0.37207 -0.78031,0.75964 -0.11886,0.35657 -0.11886,0.57877 0,0.0724 0.0414,0.13953 0.0465,0.062 0.10852,0.062 0.21187,0 0.81131,-0.66145 0.60462,-0.66146 1.59163,-2.00504 0.0362,-0.0517 0.15503,-0.0517 0.12919,0 0.23254,0.0568 0.10852,0.0568 0.10852,0.15503 0,0.0568 -0.27388,0.60462 -0.26872,0.54776 -0.47025,1.00768 -0.19637,0.45475 -0.19637,0.68213 z"
         style="font-style:italic;font-size:10.5833px;line-height:1.25;font-family:'Brush Script MT';-inkscape-font-specification:'Brush Script MT, Italic';stroke-width:0.264583"
         id="path9496" />
      <path
         d="m 135.20461,237.65986 h 0.22221 q 0.27389,-0.49092 0.49609,-0.69246 0.22221,-0.20671 0.50643,-0.20671 0.28422,0 0.28422,0.12919 0,0.062 -0.22221,0.3359 -0.2222,0.27388 -0.33589,0.45992 0.1757,0.0207 0.31006,0.0362 0.13952,0.0155 0.21704,0.0258 -0.29456,0.54777 -0.73897,1.12138 -0.1447,-0.0103 -0.24288,-0.0155 -0.0982,-0.0103 -0.20154,-0.0155 -0.0982,-0.0103 -0.24288,-0.0207 -0.27905,0.44958 -0.47025,0.80615 -0.18604,0.3514 -0.28939,0.64595 -0.0982,0.29456 -0.0982,0.55811 0,0.35656 0.28422,0.35656 0.19637,0 0.5116,-0.2067 0.32039,-0.21187 0.85266,-0.64596 v 0.34624 q -1.39526,1.51411 -2.06189,1.51411 -0.23254,0 -0.37723,-0.18087 -0.13953,-0.18086 -0.13953,-0.46508 0,-0.19121 0.0775,-0.45475 0.0827,-0.26355 0.28938,-0.79582 -0.0723,0.062 -0.13952,0.12402 -0.062,0.0569 -0.11886,0.10852 -0.0517,0.0465 -0.11369,0.10336 -0.062,0.0517 -0.12402,0.10852 v -0.35657 q 0.5426,-0.45475 1.31258,-1.5968 -0.0775,-0.005 -0.14469,-0.005 -0.0672,-0.005 -0.1602,-0.005 -0.30489,0 -0.45475,0.0413 -0.062,0.0155 -0.11886,0.0362 -0.0517,0.0155 -0.0723,0.0155 -0.0207,0 -0.0207,-0.031 0,-0.17053 0.21188,-0.51159 0.17053,-0.28939 0.32039,-0.42892 0.15503,-0.13952 0.37207,-0.18603 0.22221,-0.0517 0.62011,-0.0517 z"
         style="font-style:italic;font-size:10.5833px;line-height:1.25;font-family:'Brush Script MT';-inkscape-font-specification:'Brush Script MT, Italic';stroke-width:0.264583"
         id="path9498" />
      <path
         d="m 139.35939,240.33152 v 0.34624 q -0.34107,0.31005 -0.54777,0.41341 -0.20671,0.10335 -0.59428,0.0827 -0.67179,0.79581 -1.18338,0.79581 -0.28939,0 -0.5271,-0.1912 -0.23771,-0.1912 -0.38241,-0.52193 -0.13952,-0.33073 -0.13952,-0.73897 0,-0.33073 0.21704,-0.7338 0.22221,-0.40308 0.56844,-0.74931 0.35139,-0.3514 0.7493,-0.56327 0.39791,-0.21704 0.73897,-0.21704 0.24288,0 0.38241,0.0775 0.13952,0.0724 0.13952,0.20671 0,0.10335 -0.11885,0.23771 0.19637,0.0413 0.26871,0.13952 0.0724,0.093 0.0724,0.34624 0,0.24804 -0.11885,0.62528 -0.11369,0.37724 -0.31523,0.70796 l 0.093,0.093 h 0.0775 q 0.0879,0 0.17053,-0.0413 0.0879,-0.0465 0.15503,-0.093 0.0672,-0.0517 0.29456,-0.22221 z m -1.06453,-1.35908 q -0.42892,0.25838 -0.73381,0.47025 -0.30489,0.20671 -0.51676,0.42375 -0.21187,0.21187 -0.28422,0.42891 -0.12919,0.57878 -0.12919,0.62528 0,0.34107 0.47542,0.34107 0.22221,0 0.74414,-0.38241 -0.0879,-0.24288 -0.0879,-0.46508 0,-0.32556 0.13436,-0.66146 0.13436,-0.34106 0.39791,-0.78031 z"
         style="font-style:italic;font-size:10.5833px;line-height:1.25;font-family:'Brush Script MT';-inkscape-font-specification:'Brush Script MT, Italic';stroke-width:0.264583"
         id="path9500" />
      <path
         d="m 142.25843,240.77594 v -0.36173 q 0.72346,-0.78548 1.24539,-1.47794 0.5271,-0.69247 0.83199,-1.10071 0.30489,-0.40824 0.53744,-0.57361 0.23254,-0.17053 0.58394,-0.17053 0.1757,0 0.1757,0.13436 0,0.10852 -0.1447,0.32039 -0.13952,0.21188 -0.36173,0.43408 -0.29456,0.28939 -0.57878,0.72864 -0.27905,0.43408 -0.63561,1.11104 0.27905,-0.21704 0.64078,-0.5116 0.3669,-0.29972 0.59428,-0.46508 0.23254,-0.17053 0.45475,-0.26872 0.22738,-0.0982 0.45475,-0.0982 0.1447,0 0.18604,0.0517 0.0465,0.0517 0.0465,0.20154 0,0.39274 -0.1912,0.76998 -0.1912,0.37207 -0.54777,0.77514 -0.35656,0.40308 -0.87849,0.8785 0.18086,0.0672 0.37207,0.0672 0.59944,0 1.60713,-0.91467 v 0.37207 q -0.39274,0.35139 -0.76998,0.66145 -0.37207,0.31006 -0.70279,0.49609 -0.33073,0.18604 -0.60978,0.18604 -0.10336,0 -0.22221,-0.0258 -0.11369,-0.0207 -0.21188,-0.0517 -0.0982,-0.0362 -0.25321,-0.0982 -0.15503,-0.062 -0.23771,-0.0879 -0.16536,0.0413 -0.18603,0.0413 -0.18087,0 -0.42375,-0.14469 -0.17053,0.33072 -0.37724,0.85266 -0.20153,0.52709 -0.34106,0.83715 -0.13953,0.31006 -0.37207,0.59428 -0.12919,0.12919 -0.18087,0.12919 -0.2222,0 -0.2222,-0.39274 0,-0.34106 0.13952,-0.71313 0.13436,-0.36691 0.3359,-0.69763 0.19637,-0.33073 0.43408,-0.66663 0.23771,-0.34106 0.33589,-0.50642 0.81649,-1.4056 1.27124,-2.39262 -1.18855,1.44694 -1.79833,2.07739 z m 2.09805,0.25321 q 0.5116,-0.53743 0.75964,-0.91467 0.25322,-0.37723 0.25322,-0.57877 0,-0.1912 -0.1912,-0.1912 -0.25839,0 -0.72864,0.42891 -0.46509,0.42375 -0.96118,1.14721 0.38241,-0.0413 0.5116,-0.0258 0.12919,0.0103 0.35656,0.13435 z"
         style="font-style:italic;font-size:10.5833px;line-height:1.25;font-family:'Brush Script MT';-inkscape-font-specification:'Brush Script MT, Italic';stroke-width:0.264583"
         id="path9502" />
      <path
         d="m 149.09003,240.28502 v 0.3824 q -1.08004,1.43143 -1.75699,1.43143 -0.36691,0 -0.57878,-0.3979 -0.2067,-0.40308 -0.2067,-1.0542 0,-0.5271 0.24804,-1.25057 0.24805,-0.72863 0.66146,-1.47277 0.41858,-0.74931 0.86299,-1.30224 0.44959,-0.55811 0.83199,-0.78031 0.15503,-0.093 0.24288,-0.093 0.10852,0 0.14469,0.0982 0.0362,0.093 0.0362,0.32556 0,0.7183 -0.58395,1.76733 -0.58394,1.04386 -1.6278,2.13423 -0.0517,0.26872 -0.0517,0.41341 0,0.33073 0.13953,0.53744 0.14469,0.2067 0.39791,0.2067 0.12919,0 0.27905,-0.0982 0.14986,-0.10336 0.31523,-0.25322 0.16536,-0.14986 0.64595,-0.59427 z m -1.54512,-0.93018 q 0.26871,-0.26355 0.51676,-0.59944 0.25321,-0.3359 0.47542,-0.7183 0.22221,-0.38241 0.34623,-0.6873 0.12919,-0.30489 0.12919,-0.45992 0,-0.11885 -0.0827,-0.11885 -0.031,0 -0.11885,0.0568 -0.31523,0.25838 -0.70797,1.01286 -0.39274,0.7493 -0.5581,1.51411 z"
         style="font-style:italic;font-size:10.5833px;line-height:1.25;font-family:'Brush Script MT';-inkscape-font-specification:'Brush Script MT, Italic';stroke-width:0.264583"
         id="path9504" />
      <path
         d="m 149.64296,239.41685 q 0.78548,-0.71313 1.52445,-1.05936 0.73898,-0.34623 1.14205,-0.34623 0.10852,0 0.20154,0.093 0.093,0.0879 0.14469,0.2067 0.0568,0.11886 0.0568,0.1757 0,0.093 -0.0723,0.13953 -0.0724,0.0413 -0.25322,0.10335 0.0362,0.0827 0.093,0.21187 0.0568,0.12919 0.0879,0.21188 0.031,0.0775 0.031,0.13952 0,0.12402 -0.25322,0.46509 -0.24804,0.33589 -0.3514,0.49609 -0.0982,0.1602 -0.0982,0.39274 0,0.3824 0.3514,0.3824 0.36173,0 1.13171,-0.67696 v 0.31523 q -1.30741,1.4521 -1.87068,1.4521 -0.20154,0 -0.28939,-0.13436 -0.0827,-0.12919 -0.0827,-0.38757 0,-0.40824 0.29455,-1.18338 -0.75447,0.83715 -1.12137,1.19372 -0.3669,0.3514 -0.60461,0.3514 -0.11369,0 -0.28422,-0.19637 -0.17054,-0.19637 -0.30489,-0.50643 -0.12919,-0.31523 -0.12919,-0.65112 0,-0.24288 0.0465,-0.40308 0.0465,-0.16536 0.18087,-0.33589 0.13436,-0.17053 0.42891,-0.44959 z m 2.4753,-0.56843 q -1.34359,0.61494 -1.91719,1.04386 -0.56844,0.42891 -0.56844,0.88366 0,0.16536 0.0568,0.27388 0.0568,0.10336 0.15503,0.10336 0.0568,0 0.20154,-0.0724 0.5426,-0.32039 0.99218,-0.83199 0.44959,-0.51676 1.08004,-1.40042 z"
         style="font-style:italic;font-size:10.5833px;line-height:1.25;font-family:'Brush Script MT';-inkscape-font-specification:'Brush Script MT, Italic';stroke-width:0.264583"
         id="path9506" />
      <path
         d="m 155.7201,240.5434 -0.91984,0.78031 q -0.65629,0.57361 -0.8785,0.57361 -0.20154,0 -0.42374,-0.45992 -0.22221,-0.46509 -0.22221,-0.81132 0,-0.29456 0.0879,-0.49609 0.093,-0.20671 0.31522,-0.53227 0.31523,-0.43925 0.60461,-0.74414 0.28939,-0.30489 0.5116,-0.47025 0.22221,-0.17053 0.31006,-0.17053 0.13952,0 0.26871,0.14469 0.13436,0.14469 0.13436,0.29972 0,0.0982 -0.14469,0.31523 -0.13953,0.21704 -0.44958,0.55293 -0.30489,0.33073 -0.85266,0.79582 l -0.0982,0.28422 q -0.0413,0.0827 -0.0413,0.14469 0,0.13953 0.13953,0.13953 0.14469,0 0.67696,-0.3669 0.53743,-0.3669 1.16271,-0.98702 0.24288,-0.24288 0.40308,-0.42891 0.16019,-0.18604 0.28938,-0.34623 0.12919,-0.16537 0.21188,-0.24805 0.0879,-0.0827 0.15503,-0.0879 0.12919,-0.0155 0.20153,0.10852 0.0724,0.12402 0.0724,0.3669 0,0.13953 -0.12402,0.3514 -0.12403,0.20671 -0.46509,0.71313 -0.34106,0.50126 -0.68213,1.04386 -0.33589,0.53744 -0.68729,1.2144 0.0155,-0.0155 0.31522,-0.31006 0.30489,-0.29456 0.64079,-0.61495 0.3359,-0.32039 0.55294,-0.51159 0.21704,-0.19637 0.5426,-0.45476 v 0.34624 q -0.69763,0.7493 -1.26607,1.42109 -0.56327,0.67179 -0.87333,1.07487 -0.30489,0.40307 -0.35657,0.47025 -0.13952,0.18087 -0.25321,0.3359 -0.10852,0.1602 -0.18603,0.24288 -0.0724,0.0879 -0.11886,0.0879 -0.10852,0 -0.19637,-0.21704 -0.0827,-0.21188 -0.0827,-0.37724 0,-0.14986 0.0568,-0.26355 0.37207,-0.83715 1.66915,-2.90937 z"
         style="font-style:italic;font-size:10.5833px;line-height:1.25;font-family:'Brush Script MT';-inkscape-font-specification:'Brush Script MT, Italic';stroke-width:0.264583"
         id="path9508" />
    </g>
  </g>
</svg>
