<?xml version="1.0" encoding="UTF-8" standalone="no"?>
<!-- Created with Inkscape (http://www.inkscape.org/) -->

<svg
   width="26.381977mm"
   height="5.5499177mm"
   viewBox="0 0 26.381977 5.5499177"
   version="1.1"
   id="svg1786"
   xmlns:xlink="http://www.w3.org/1999/xlink"
   xmlns="http://www.w3.org/2000/svg"
   xmlns:svg="http://www.w3.org/2000/svg">
  <defs
     id="defs1783">
    <linearGradient
       id="linearGradient23435">
      <stop
         style="stop-color:#ff0000;stop-opacity:1;"
         offset="0"
         id="stop23433" />
    </linearGradient>
    <linearGradient
       id="linearGradient45127">
      <stop
         style="stop-color:#ff8080;stop-opacity:1;"
         offset="0"
         id="stop45125" />
    </linearGradient>
    <linearGradient
       xlink:href="#linearGradient23435"
       id="linearGradient1885"
       gradientUnits="userSpaceOnUse"
       gradientTransform="translate(0,13.758336)"
       x1="129.28404"
       y1="123.05166"
       x2="152.78847"
       y2="123.05166" />
    <linearGradient
       xlink:href="#linearGradient45127"
       id="linearGradient1887"
       gradientUnits="userSpaceOnUse"
       gradientTransform="matrix(0.2021502,0,0,0.2021502,95.421673,116.05716)"
       x1="167.83827"
       y1="102.20257"
       x2="282.93164"
       y2="102.20257" />
    <linearGradient
       xlink:href="#linearGradient45127"
       id="linearGradient14626"
       gradientTransform="scale(2.2088343,0.45272748)"
       x1="34.443878"
       y1="190.66678"
       x2="93.48864"
       y2="190.66678"
       gradientUnits="userSpaceOnUse" />
    <linearGradient
       xlink:href="#linearGradient23435"
       id="linearGradient14637"
       gradientUnits="userSpaceOnUse"
       gradientTransform="translate(-126.77555,-120.27662)"
       x1="129.28404"
       y1="123.05166"
       x2="152.78847"
       y2="123.05166" />
    <linearGradient
       xlink:href="#linearGradient45127"
       id="linearGradient14639"
       gradientUnits="userSpaceOnUse"
       gradientTransform="matrix(0.2021502,0,0,0.2021502,-31.353877,-17.9778)"
       x1="167.83827"
       y1="102.20257"
       x2="282.93164"
       y2="102.20257" />
    <linearGradient
       xlink:href="#linearGradient23435"
       id="linearGradient14755"
       gradientUnits="userSpaceOnUse"
       gradientTransform="translate(-126.77555,-120.27662)"
       x1="129.28404"
       y1="123.05166"
       x2="152.78847"
       y2="123.05166" />
    <linearGradient
       xlink:href="#linearGradient45127"
       id="linearGradient14757"
       gradientUnits="userSpaceOnUse"
       gradientTransform="matrix(0.2021502,0,0,0.2021502,-31.353877,-17.9778)"
       x1="167.83827"
       y1="102.20257"
       x2="282.93164"
       y2="102.20257" />
    <linearGradient
       xlink:href="#linearGradient23435"
       id="linearGradient14759"
       gradientUnits="userSpaceOnUse"
       gradientTransform="translate(-126.77555,-120.27662)"
       x1="129.28404"
       y1="123.05166"
       x2="152.78847"
       y2="123.05166" />
    <linearGradient
       xlink:href="#linearGradient45127"
       id="linearGradient14761"
       gradientUnits="userSpaceOnUse"
       gradientTransform="matrix(0.2021502,0,0,0.2021502,-31.353877,-17.9778)"
       x1="167.83827"
       y1="102.20257"
       x2="282.93164"
       y2="102.20257" />
    <linearGradient
       xlink:href="#linearGradient23435"
       id="linearGradient14763"
       gradientUnits="userSpaceOnUse"
       gradientTransform="translate(-126.77555,-120.27662)"
       x1="129.28404"
       y1="123.05166"
       x2="152.78847"
       y2="123.05166" />
    <linearGradient
       xlink:href="#linearGradient45127"
       id="linearGradient14765"
       gradientUnits="userSpaceOnUse"
       gradientTransform="matrix(0.2021502,0,0,0.2021502,-31.353877,-17.9778)"
       x1="167.83827"
       y1="102.20257"
       x2="282.93164"
       y2="102.20257" />
    <linearGradient
       xlink:href="#linearGradient23435"
       id="linearGradient14767"
       gradientUnits="userSpaceOnUse"
       gradientTransform="translate(-126.77555,-120.27662)"
       x1="129.28404"
       y1="123.05166"
       x2="152.78847"
       y2="123.05166" />
    <linearGradient
       xlink:href="#linearGradient45127"
       id="linearGradient14769"
       gradientUnits="userSpaceOnUse"
       gradientTransform="matrix(0.2021502,0,0,0.2021502,-31.353877,-17.9778)"
       x1="167.83827"
       y1="102.20257"
       x2="282.93164"
       y2="102.20257" />
    <linearGradient
       xlink:href="#linearGradient23435"
       id="linearGradient14771"
       gradientUnits="userSpaceOnUse"
       gradientTransform="translate(-126.77555,-120.27662)"
       x1="129.28404"
       y1="123.05166"
       x2="152.78847"
       y2="123.05166" />
    <linearGradient
       xlink:href="#linearGradient45127"
       id="linearGradient14773"
       gradientUnits="userSpaceOnUse"
       gradientTransform="matrix(0.2021502,0,0,0.2021502,-31.353877,-17.9778)"
       x1="167.83827"
       y1="102.20257"
       x2="282.93164"
       y2="102.20257" />
    <linearGradient
       xlink:href="#linearGradient23435"
       id="linearGradient14775"
       gradientUnits="userSpaceOnUse"
       gradientTransform="translate(-126.77555,-120.27662)"
       x1="129.28404"
       y1="123.05166"
       x2="152.78847"
       y2="123.05166" />
    <linearGradient
       xlink:href="#linearGradient45127"
       id="linearGradient14777"
       gradientUnits="userSpaceOnUse"
       gradientTransform="matrix(0.2021502,0,0,0.2021502,-31.353877,-17.9778)"
       x1="167.83827"
       y1="102.20257"
       x2="282.93164"
       y2="102.20257" />
    <linearGradient
       xlink:href="#linearGradient23435"
       id="linearGradient14779"
       gradientUnits="userSpaceOnUse"
       gradientTransform="translate(-126.77555,-120.27662)"
       x1="129.28404"
       y1="123.05166"
       x2="152.78847"
       y2="123.05166" />
    <linearGradient
       xlink:href="#linearGradient45127"
       id="linearGradient14781"
       gradientUnits="userSpaceOnUse"
       gradientTransform="matrix(0.2021502,0,0,0.2021502,-31.353877,-17.9778)"
       x1="167.83827"
       y1="102.20257"
       x2="282.93164"
       y2="102.20257" />
    <linearGradient
       xlink:href="#linearGradient23435"
       id="linearGradient14783"
       gradientUnits="userSpaceOnUse"
       gradientTransform="translate(-126.77555,-120.27662)"
       x1="129.28404"
       y1="123.05166"
       x2="152.78847"
       y2="123.05166" />
    <linearGradient
       xlink:href="#linearGradient45127"
       id="linearGradient14785"
       gradientUnits="userSpaceOnUse"
       gradientTransform="matrix(0.2021502,0,0,0.2021502,-31.353877,-17.9778)"
       x1="167.83827"
       y1="102.20257"
       x2="282.93164"
       y2="102.20257" />
    <linearGradient
       xlink:href="#linearGradient23435"
       id="linearGradient14787"
       gradientUnits="userSpaceOnUse"
       gradientTransform="translate(-126.77555,-120.27662)"
       x1="129.28404"
       y1="123.05166"
       x2="152.78847"
       y2="123.05166" />
    <linearGradient
       xlink:href="#linearGradient45127"
       id="linearGradient14789"
       gradientUnits="userSpaceOnUse"
       gradientTransform="matrix(0.2021502,0,0,0.2021502,-31.353877,-17.9778)"
       x1="167.83827"
       y1="102.20257"
       x2="282.93164"
       y2="102.20257" />
  </defs>
  <g
     id="g14872">
    <path
       d="M 2.6805811,3.669811 V 1.7978184 h 1.604565 V 2.0652459 H 4.5525736 V 2.8675284 H 4.2851461 v 0.2674275 h -1.06971 V 3.669811 Z M 3.2154361,2.8675284 H 4.0177186 V 2.0652459 H 3.2154361 Z"
       style="font-size:2.13942px;line-height:1.25;font-family:'Press Start 2P';-inkscape-font-specification:'Press Start 2P, Normal';fill:#b3b3b3;stroke:#b3b3b3;stroke-width:0.132292"
       id="path14804" />
    <path
       d="M 5.0874286,3.669811 V 1.7978184 h 0.534855 v 1.604565 H 6.6919937 V 3.669811 Z"
       style="font-size:2.13942px;line-height:1.25;font-family:'Press Start 2P';-inkscape-font-specification:'Press Start 2P, Normal';fill:#b3b3b3;stroke:#b3b3b3;stroke-width:0.132292"
       id="path14806" />
    <path
       d="M 6.9594212,3.669811 V 2.3326734 H 7.2268487 V 2.0652459 H 7.4942762 V 1.7978184 H 8.2965587 V 2.0652459 H 8.5639862 V 2.3326734 H 8.8314137 V 3.669811 H 8.2965587 V 3.1349559 H 7.4942762 V 3.669811 Z M 7.4942762,2.8675284 H 8.2965587 V 2.3326734 H 8.0291312 V 2.0652459 H 7.7617037 V 2.3326734 H 7.4942762 Z"
       style="font-size:2.13942px;line-height:1.25;font-family:'Press Start 2P';-inkscape-font-specification:'Press Start 2P, Normal';fill:#b3b3b3;stroke:#b3b3b3;stroke-width:0.132292"
       id="path14808" />
    <path
       d="M 9.9011237,3.669811 V 2.8675284 H 9.6336962 V 2.6001009 H 9.3662687 V 1.7978184 h 0.534855 V 2.6001009 H 10.435979 V 1.7978184 h 0.534855 V 2.6001009 H 10.703406 V 2.8675284 H 10.435979 V 3.669811 Z"
       style="font-size:2.13942px;line-height:1.25;font-family:'Press Start 2P';-inkscape-font-specification:'Press Start 2P, Normal';fill:#b3b3b3;stroke:#b3b3b3;stroke-width:0.132292"
       id="path14810" />
    <path
       d="M 13.377681,3.669811 V 2.3326734 h 0.267427 V 2.0652459 h 0.267428 V 1.7978184 h 0.802282 v 0.2674275 h 0.267428 v 0.2674275 h 0.267427 V 3.669811 H 14.714818 V 3.1349559 H 13.912536 V 3.669811 Z m 0.534855,-0.8022826 h 0.802282 V 2.3326734 H 14.447391 V 2.0652459 h -0.267428 v 0.2674275 h -0.267427 z"
       style="font-size:2.13942px;line-height:1.25;font-family:'Press Start 2P';-inkscape-font-specification:'Press Start 2P, Normal';fill:#b3b3b3;stroke:#b3b3b3;stroke-width:0.132292"
       id="path14812" />
    <path
       d="M 16.051956,3.669811 V 3.4023834 H 15.784529 V 3.1349559 H 15.517101 V 2.3326734 h 0.267428 V 2.0652459 h 0.267427 V 1.7978184 h 1.337138 v 0.2674275 h -1.06971 v 0.2674275 h -0.267428 v 0.8022825 h 0.267428 v 0.2674275 h 0.534855 V 2.8675284 H 16.586811 V 2.6001009 h 0.802283 V 3.669811 Z"
       style="font-size:2.13942px;line-height:1.25;font-family:'Press Start 2P';-inkscape-font-specification:'Press Start 2P, Normal';fill:#b3b3b3;stroke:#b3b3b3;stroke-width:0.132292"
       id="path14814" />
    <path
       d="M 17.656522,3.669811 V 2.3326734 h 0.267427 V 2.0652459 h 0.267428 V 1.7978184 h 0.802282 v 0.2674275 h 0.267428 v 0.2674275 h 0.267427 V 3.669811 H 18.993659 V 3.1349559 H 18.191377 V 3.669811 Z m 0.534855,-0.8022826 h 0.802282 V 2.3326734 H 18.726232 V 2.0652459 h -0.267428 v 0.2674275 h -0.267427 z"
       style="font-size:2.13942px;line-height:1.25;font-family:'Press Start 2P';-inkscape-font-specification:'Press Start 2P, Normal';fill:#b3b3b3;stroke:#b3b3b3;stroke-width:0.132292"
       id="path14816" />
    <path
       d="M 20.063369,3.669811 V 3.4023834 h 0.534855 V 2.0652459 H 20.063369 V 1.7978184 h 1.604565 v 0.2674275 h -0.534855 v 1.3371375 h 0.534855 V 3.669811 Z"
       style="font-size:2.13942px;line-height:1.25;font-family:'Press Start 2P';-inkscape-font-specification:'Press Start 2P, Normal';fill:#b3b3b3;stroke:#b3b3b3;stroke-width:0.132292"
       id="path14818" />
    <path
       d="M 21.935361,3.669811 V 1.7978184 h 0.534855 v 0.2674275 h 0.267427 v 0.2674275 h 0.267428 v 0.2674275 h 0.267427 V 1.7978184 h 0.534855 V 3.669811 H 23.272498 V 3.1349559 H 23.005071 V 2.8675284 H 22.737643 V 2.6001009 H 22.470216 V 3.669811 Z"
       style="font-size:2.13942px;line-height:1.25;font-family:'Press Start 2P';-inkscape-font-specification:'Press Start 2P, Normal';fill:#b3b3b3;stroke:#b3b3b3;stroke-width:0.132292"
       id="path14820" />
    <path
       d="M 2.5746393,3.4846608 V 1.6126683 h 1.604565 V 1.8800958 H 4.4466318 V 2.6823783 H 4.1792043 v 0.2674275 h -1.06971 v 0.534855 z M 3.1094943,2.6823783 H 3.9117768 V 1.8800958 H 3.1094943 Z"
       style="font-size:2.13942px;line-height:1.25;font-family:'Press Start 2P';-inkscape-font-specification:'Press Start 2P, Normal';fill:url(#linearGradient14755);stroke:url(#linearGradient14757);stroke-width:0.132292"
       id="path14718" />
    <path
       d="M 4.9814869,3.4846608 V 1.6126683 h 0.534855 v 1.604565 h 1.06971 v 0.2674275 z"
       style="font-size:2.13942px;line-height:1.25;font-family:'Press Start 2P';-inkscape-font-specification:'Press Start 2P, Normal';fill:url(#linearGradient14759);stroke:url(#linearGradient14761);stroke-width:0.132292"
       id="path14720" />
    <path
       d="M 6.8534794,3.4846608 V 2.1475233 H 7.1209069 V 1.8800958 H 7.3883344 V 1.6126683 H 8.1906169 V 1.8800958 H 8.4580444 V 2.1475233 H 8.7254719 V 3.4846608 H 8.1906169 V 2.9498058 H 7.3883344 v 0.534855 z M 7.3883344,2.6823783 H 8.1906169 V 2.1475233 H 7.9231894 V 1.8800958 H 7.6557619 V 2.1475233 H 7.3883344 Z"
       style="font-size:2.13942px;line-height:1.25;font-family:'Press Start 2P';-inkscape-font-specification:'Press Start 2P, Normal';fill:url(#linearGradient14763);stroke:url(#linearGradient14765);stroke-width:0.132292"
       id="path14722" />
    <path
       d="M 9.7951819,3.4846608 V 2.6823783 H 9.5277544 V 2.4149508 H 9.2603269 V 1.6126683 h 0.534855 V 2.4149508 H 10.330037 V 1.6126683 h 0.534855 v 0.8022825 h -0.267428 v 0.2674275 h -0.267427 v 0.8022825 z"
       style="font-size:2.13942px;line-height:1.25;font-family:'Press Start 2P';-inkscape-font-specification:'Press Start 2P, Normal';fill:url(#linearGradient14767);stroke:url(#linearGradient14769);stroke-width:0.132292"
       id="path14724" />
    <path
       d="M 13.271739,3.4846608 V 2.1475233 h 0.267428 V 1.8800958 h 0.267427 V 1.6126683 h 0.802283 v 0.2674275 h 0.267427 v 0.2674275 h 0.267428 v 1.3371375 h -0.534855 v -0.534855 h -0.802283 v 0.534855 z m 0.534855,-0.8022825 h 0.802283 V 2.1475233 H 14.341449 V 1.8800958 h -0.267427 v 0.2674275 h -0.267428 z"
       style="font-size:2.13942px;line-height:1.25;font-family:'Press Start 2P';-inkscape-font-specification:'Press Start 2P, Normal';fill:url(#linearGradient14771);stroke:url(#linearGradient14773);stroke-width:0.132292"
       id="path14726" />
    <path
       d="M 15.946015,3.4846608 V 3.2172333 H 15.678587 V 2.9498058 H 15.41116 V 2.1475233 h 0.267427 V 1.8800958 h 0.267428 V 1.6126683 h 1.337137 v 0.2674275 h -1.06971 v 0.2674275 h -0.267427 v 0.8022825 h 0.267427 v 0.2674275 h 0.534855 V 2.6823783 H 16.48087 V 2.4149508 h 0.802282 v 1.06971 z"
       style="font-size:2.13942px;line-height:1.25;font-family:'Press Start 2P';-inkscape-font-specification:'Press Start 2P, Normal';fill:url(#linearGradient14775);stroke:url(#linearGradient14777);stroke-width:0.132292"
       id="path14728" />
    <path
       d="M 17.55058,3.4846608 V 2.1475233 h 0.267428 V 1.8800958 h 0.267427 V 1.6126683 h 0.802283 v 0.2674275 h 0.267427 v 0.2674275 h 0.267428 v 1.3371375 h -0.534855 v -0.534855 h -0.802283 v 0.534855 z m 0.534855,-0.8022825 h 0.802283 V 2.1475233 H 18.62029 V 1.8800958 h -0.267427 v 0.2674275 h -0.267428 z"
       style="font-size:2.13942px;line-height:1.25;font-family:'Press Start 2P';-inkscape-font-specification:'Press Start 2P, Normal';fill:url(#linearGradient14779);stroke:url(#linearGradient14781);stroke-width:0.132292"
       id="path14730" />
    <path
       d="M 19.957427,3.4846608 V 3.2172333 h 0.534855 V 1.8800958 H 19.957427 V 1.6126683 h 1.604565 v 0.2674275 h -0.534855 v 1.3371375 h 0.534855 v 0.2674275 z"
       style="font-size:2.13942px;line-height:1.25;font-family:'Press Start 2P';-inkscape-font-specification:'Press Start 2P, Normal';fill:url(#linearGradient14783);stroke:url(#linearGradient14785);stroke-width:0.132292"
       id="path14732" />
    <path
       d="M 21.829419,3.4846608 V 1.6126683 h 0.534855 v 0.2674275 h 0.267428 v 0.2674275 h 0.267427 v 0.2674275 h 0.267428 V 1.6126683 h 0.534855 V 3.4846608 H 23.166557 V 2.9498058 H 22.899129 V 2.6823783 H 22.631702 V 2.4149508 h -0.267428 v 1.06971 z"
       style="font-size:2.13942px;line-height:1.25;font-family:'Press Start 2P';-inkscape-font-specification:'Press Start 2P, Normal';fill:url(#linearGradient14787);stroke:url(#linearGradient14789);stroke-width:0.132292"
       id="path14734" />
    <g
       id="g39414"
       transform="translate(-126.89602,-133.82014)">
      <rect
         style="fill:none;stroke:#b3b3b3;stroke-width:0.174623;stroke-miterlimit:4;stroke-dasharray:none;stroke-opacity:1;stop-color:#000000"
         id="rect39393"
         width="26.127975"
         height="5.2164145"
         x="127.06271"
         y="134.06633"
         ry="2.6082072" />
      <g
         id="g39397"
         transform="matrix(0.20167597,0,0,0.20167597,111.55235,116.41145)">
        <rect
           style="opacity:1;fill:none;stroke:url(#linearGradient14626);stroke-width:0.865861;stroke-miterlimit:4;stroke-dasharray:none;stroke-opacity:1;stop-color:#000000"
           id="rect39395"
           width="129.55423"
           height="25.865324"
           x="76.513756"
           y="86.753021"
           ry="12.932662" />
      </g>
    </g>
  </g>
</svg>
