<?xml version="1.0" encoding="UTF-8" standalone="no"?>
<!-- Created with Inkscape (http://www.inkscape.org/) -->

<svg
   width="26.381971mm"
   height="5.549787mm"
   viewBox="0 0 26.381971 5.5497871"
   version="1.1"
   id="svg5"
   xmlns:xlink="http://www.w3.org/1999/xlink"
   xmlns="http://www.w3.org/2000/svg"
   xmlns:svg="http://www.w3.org/2000/svg">
  <defs
     id="defs2">
    <linearGradient
       id="linearGradient26085"
       gradientTransform="matrix(0.20167597,0,0,0.20167597,114.38341,79.581477)">
      <stop
         style="stop-color:#ff8080;stop-opacity:1;"
         offset="0"
         id="stop26083" />
    </linearGradient>
    <linearGradient
       id="linearGradient25991">
      <stop
         style="stop-color:#ff8080;stop-opacity:1;"
         offset="0"
         id="stop25989" />
    </linearGradient>
    <linearGradient
       id="linearGradient25209">
      <stop
         style="stop-color:#e5446d;stop-opacity:1;"
         offset="0"
         id="stop25207" />
    </linearGradient>
    <linearGradient
       id="linearGradient25115">
      <stop
         style="stop-color:#ff8966;stop-opacity:1;"
         offset="0"
         id="stop25113" />
    </linearGradient>
    <linearGradient
       id="linearGradient25041">
      <stop
         style="stop-color:#ff0000;stop-opacity:1;"
         offset="0"
         id="stop25039" />
    </linearGradient>
    <linearGradient
       id="linearGradient23435">
      <stop
         style="stop-color:#ff0000;stop-opacity:1;"
         offset="0"
         id="stop23433" />
    </linearGradient>
    <linearGradient
       xlink:href="#linearGradient25209"
       id="linearGradient25211"
       x1="84.428734"
       y1="133.67648"
       x2="119.95578"
       y2="133.67648"
       gradientUnits="userSpaceOnUse" />
    <linearGradient
       xlink:href="#linearGradient26085"
       id="linearGradient26087"
       x1="83.425331"
       y1="100.55956"
       x2="199.18018"
       y2="100.55956"
       gradientUnits="userSpaceOnUse" />
    <linearGradient
       xlink:href="#linearGradient26085"
       id="linearGradient28072"
       gradientUnits="userSpaceOnUse"
       x1="83.425331"
       y1="100.55956"
       x2="199.18018"
       y2="100.55956" />
    <linearGradient
       xlink:href="#linearGradient26085"
       id="linearGradient28074"
       gradientUnits="userSpaceOnUse"
       x1="83.425331"
       y1="100.55956"
       x2="199.18018"
       y2="100.55956" />
    <linearGradient
       xlink:href="#linearGradient26085"
       id="linearGradient28076"
       gradientUnits="userSpaceOnUse"
       x1="83.425331"
       y1="100.55956"
       x2="199.18018"
       y2="100.55956" />
    <linearGradient
       xlink:href="#linearGradient26085"
       id="linearGradient28078"
       gradientUnits="userSpaceOnUse"
       x1="83.425331"
       y1="100.55956"
       x2="199.18018"
       y2="100.55956" />
    <linearGradient
       xlink:href="#linearGradient26085"
       id="linearGradient28080"
       gradientUnits="userSpaceOnUse"
       x1="83.425331"
       y1="100.55956"
       x2="199.18018"
       y2="100.55956" />
    <linearGradient
       xlink:href="#linearGradient26085"
       id="linearGradient28082"
       gradientUnits="userSpaceOnUse"
       x1="83.425331"
       y1="100.55956"
       x2="199.18018"
       y2="100.55956" />
    <linearGradient
       xlink:href="#linearGradient26085"
       id="linearGradient28084"
       gradientUnits="userSpaceOnUse"
       x1="83.425331"
       y1="100.55956"
       x2="199.18018"
       y2="100.55956" />
    <linearGradient
       xlink:href="#linearGradient26085"
       id="linearGradient28086"
       gradientUnits="userSpaceOnUse"
       x1="83.425331"
       y1="100.55956"
       x2="199.18018"
       y2="100.55956" />
    <linearGradient
       xlink:href="#linearGradient26085"
       id="linearGradient28088"
       gradientUnits="userSpaceOnUse"
       x1="83.425331"
       y1="100.55956"
       x2="199.18018"
       y2="100.55956" />
    <linearGradient
       xlink:href="#linearGradient26085"
       id="linearGradient28090"
       gradientUnits="userSpaceOnUse"
       x1="83.425331"
       y1="100.55956"
       x2="199.18018"
       y2="100.55956" />
    <linearGradient
       xlink:href="#linearGradient26085"
       id="linearGradient28092"
       gradientUnits="userSpaceOnUse"
       x1="83.425331"
       y1="100.55956"
       x2="199.18018"
       y2="100.55956" />
    <linearGradient
       xlink:href="#linearGradient26085"
       id="linearGradient28893"
       gradientUnits="userSpaceOnUse"
       x1="83.425331"
       y1="100.55956"
       x2="199.18018"
       y2="100.55956" />
    <linearGradient
       xlink:href="#linearGradient26085"
       id="linearGradient28895"
       gradientUnits="userSpaceOnUse"
       x1="83.425331"
       y1="100.55956"
       x2="199.18018"
       y2="100.55956" />
    <linearGradient
       xlink:href="#linearGradient26085"
       id="linearGradient28897"
       gradientUnits="userSpaceOnUse"
       x1="83.425331"
       y1="100.55956"
       x2="199.18018"
       y2="100.55956" />
    <linearGradient
       xlink:href="#linearGradient26085"
       id="linearGradient28899"
       gradientUnits="userSpaceOnUse"
       x1="83.425331"
       y1="100.55956"
       x2="199.18018"
       y2="100.55956" />
    <linearGradient
       xlink:href="#linearGradient26085"
       id="linearGradient28901"
       gradientUnits="userSpaceOnUse"
       x1="83.425331"
       y1="100.55956"
       x2="199.18018"
       y2="100.55956" />
    <linearGradient
       xlink:href="#linearGradient26085"
       id="linearGradient28903"
       gradientUnits="userSpaceOnUse"
       x1="83.425331"
       y1="100.55956"
       x2="199.18018"
       y2="100.55956" />
    <linearGradient
       xlink:href="#linearGradient26085"
       id="linearGradient28905"
       gradientUnits="userSpaceOnUse"
       x1="83.425331"
       y1="100.55956"
       x2="199.18018"
       y2="100.55956" />
    <linearGradient
       xlink:href="#linearGradient26085"
       id="linearGradient28907"
       gradientUnits="userSpaceOnUse"
       x1="83.425331"
       y1="100.55956"
       x2="199.18018"
       y2="100.55956" />
    <linearGradient
       xlink:href="#linearGradient26085"
       id="linearGradient28909"
       gradientUnits="userSpaceOnUse"
       x1="83.425331"
       y1="100.55956"
       x2="199.18018"
       y2="100.55956" />
    <linearGradient
       xlink:href="#linearGradient26085"
       id="linearGradient28911"
       gradientUnits="userSpaceOnUse"
       x1="83.425331"
       y1="100.55956"
       x2="199.18018"
       y2="100.55956" />
    <linearGradient
       xlink:href="#linearGradient26085"
       id="linearGradient28913"
       gradientUnits="userSpaceOnUse"
       x1="83.425331"
       y1="100.55956"
       x2="199.18018"
       y2="100.55956" />
  </defs>
  <g
     id="layer1"
     transform="translate(-127.95436,-113.18267)">
    <g
       id="g28106"
       transform="matrix(0.20167597,0,0,0.20167597,112.7959,79.581477)">
      <g
         aria-label="PRESS START"
         id="text99"
         style="font-size:10.5833px;line-height:1.25;fill:#ff0000;stroke:url(#linearGradient28092);stroke-width:0.661458"
         transform="translate(-0.01187833,-0.21242275)">
        <path
           d="m 83.756058,104.5283 v -9.260388 h 7.937474 v 1.322912 h 1.322913 v 3.968736 h -1.322913 v 1.32291 h -5.291649 v 2.64583 z m 2.645825,-3.96874 h 3.968737 v -3.968736 h -3.968737 z"
           style="font-family:'Press Start 2P';-inkscape-font-specification:'Press Start 2P, Normal';stroke:url(#linearGradient28072)"
           id="path28033" />
        <path
           d="m 94.339357,104.5283 v -9.260388 h 7.937473 v 1.322912 h 1.32291 v 3.968736 h -2.64582 v 1.32291 h 1.32291 v 1.32292 h 1.32291 v 1.32291 h -3.968733 v -1.32291 h -1.322912 v -1.32292 h -1.322913 v 2.64583 z m 2.645825,-3.96874 h 2.645825 v -1.322911 h 1.322913 v -2.645825 h -3.968738 z"
           style="font-family:'Press Start 2P';-inkscape-font-specification:'Press Start 2P, Normal';stroke:url(#linearGradient28074)"
           id="path28035" />
        <path
           d="m 104.92266,104.5283 v -9.260388 h 9.26038 v 1.322912 h -6.61456 v 2.645825 h 5.29165 v 1.322911 h -5.29165 v 2.64583 h 6.61456 v 1.32291 z"
           style="font-family:'Press Start 2P';-inkscape-font-specification:'Press Start 2P, Normal';stroke:url(#linearGradient28076)"
           id="path28037" />
        <path
           d="m 116.82887,104.5283 v -1.32291 h -1.32291 v -1.32292 h 2.64582 v 1.32292 h 3.96874 v -2.64583 h -5.29165 v -1.322911 h -1.32291 v -2.645825 h 1.32291 v -1.322912 h 6.61456 v 1.322912 h 1.32291 v 1.322913 h -2.64582 v -1.322913 h -3.96874 v 2.645825 h 5.29165 v 1.322911 h 1.32291 v 2.64583 h -1.32291 v 1.32291 z"
           style="font-family:'Press Start 2P';-inkscape-font-specification:'Press Start 2P, Normal';stroke:url(#linearGradient28078)"
           id="path28039" />
        <path
           d="m 127.41217,104.5283 v -1.32291 h -1.32291 v -1.32292 h 2.64582 v 1.32292 h 3.96874 v -2.64583 h -5.29165 v -1.322911 h -1.32291 v -2.645825 h 1.32291 v -1.322912 h 6.61456 v 1.322912 h 1.32291 v 1.322913 h -2.64582 v -1.322913 h -3.96874 v 2.645825 h 5.29165 v 1.322911 h 1.32291 v 2.64583 h -1.32291 v 1.32291 z"
           style="font-family:'Press Start 2P';-inkscape-font-specification:'Press Start 2P, Normal';stroke:url(#linearGradient28080)"
           id="path28041" />
        <path
           d="m 148.57877,104.5283 v -1.32291 h -1.32291 v -1.32292 h 2.64582 v 1.32292 h 3.96874 v -2.64583 h -5.29165 v -1.322911 h -1.32291 v -2.645825 h 1.32291 v -1.322912 h 6.61456 v 1.322912 h 1.32291 v 1.322913 h -2.64582 v -1.322913 h -3.96874 v 2.645825 h 5.29165 v 1.322911 h 1.32291 v 2.64583 h -1.32291 v 1.32291 z"
           style="font-family:'Press Start 2P';-inkscape-font-specification:'Press Start 2P, Normal';stroke:url(#linearGradient28082)"
           id="path28043" />
        <path
           d="m 161.80789,104.5283 v -7.937476 h -2.64582 v -1.322912 h 7.93747 v 1.322912 h -2.64582 v 7.937476 z"
           style="font-family:'Press Start 2P';-inkscape-font-specification:'Press Start 2P, Normal';stroke:url(#linearGradient28084)"
           id="path28045" />
        <path
           d="m 168.42245,104.5283 v -6.614563 h 1.32292 v -1.322913 h 1.32291 v -1.322912 h 3.96874 v 1.322912 h 1.32291 v 1.322913 h 1.32291 v 6.614563 h -2.64582 v -2.64583 h -3.96874 v 2.64583 z m 2.64583,-3.96874 h 3.96874 v -2.645823 h -1.32292 v -1.322913 h -1.32291 v 1.322913 h -1.32291 z"
           style="font-family:'Press Start 2P';-inkscape-font-specification:'Press Start 2P, Normal';stroke:url(#linearGradient28086)"
           id="path28047" />
        <path
           d="m 179.00575,104.5283 v -9.260388 h 7.93748 v 1.322912 h 1.32291 v 3.968736 h -2.64583 v 1.32291 h 1.32292 v 1.32292 h 1.32291 v 1.32291 h -3.96874 v -1.32291 h -1.32291 v -1.32292 h -1.32291 v 2.64583 z m 2.64583,-3.96874 h 2.64582 v -1.322911 h 1.32291 v -2.645825 h -3.96873 z"
           style="font-family:'Press Start 2P';-inkscape-font-specification:'Press Start 2P, Normal';stroke:url(#linearGradient28088)"
           id="path28049" />
        <path
           d="m 193.55779,104.5283 v -7.937476 h -2.64583 v -1.322912 h 7.93748 v 1.322912 h -2.64583 v 7.937476 z"
           style="font-family:'Press Start 2P';-inkscape-font-specification:'Press Start 2P, Normal';stroke:url(#linearGradient28090)"
           id="path28051" />
      </g>
      <rect
         style="opacity:1;fill:none;stroke:url(#linearGradient26085);stroke-width:0.865861;stroke-miterlimit:4;stroke-dasharray:none;stroke-opacity:1;stop-color:#000000"
         id="rect10760"
         width="129.55423"
         height="25.865324"
         x="76.513756"
         y="86.753021"
         ry="12.932662" />
    </g>
    <text
       xml:space="preserve"
       style="font-style:normal;font-weight:normal;font-size:10.5833px;line-height:1.25;font-family:sans-serif;fill:#000000;fill-opacity:1;stroke:none;stroke-width:0.264583"
       x="104.37802"
       y="102.11649"
       id="text11350"><tspan
         id="tspan11348"
         style="stroke-width:0.264583"
         x="104.37802"
         y="102.11649" /></text>
    <text
       xml:space="preserve"
       style="font-style:normal;font-weight:normal;font-size:10.5833px;line-height:1.25;font-family:sans-serif;fill:#000000;fill-opacity:1;stroke:none;stroke-width:0.264583"
       x="215.88853"
       y="126.81928"
       id="text18353"><tspan
         id="tspan18351"
         style="stroke-width:0.264583"
         x="215.88853"
         y="126.81928" /><tspan
         style="stroke-width:0.264583"
         x="215.88853"
         y="140.0484"
         id="tspan18355" /></text>
    <rect
       style="opacity:1;fill:none;stroke:url(#linearGradient25211);stroke-width:0.661458;stroke-miterlimit:4;stroke-dasharray:none;stroke-opacity:1;stop-color:#000000"
       id="rect25067"
       width="34.865593"
       height="9.1672468"
       x="84.75946"
       y="129.09286"
       ry="4.5836234" />
    <g
       id="g28940">
      <g
         aria-label="PRESS START"
         id="g28192"
         style="font-size:10.5833px;line-height:1.25;fill:#b3b3b3;stroke:#b3b3b3;stroke-width:0.661458"
         transform="matrix(0.20167597,0,0,0.20167597,112.74053,95.916246)">
        <path
           d="m 83.756058,104.5283 v -9.260388 h 7.937474 v 1.322912 h 1.322913 v 3.968736 h -1.322913 v 1.32291 h -5.291649 v 2.64583 z m 2.645825,-3.96874 h 3.968737 v -3.968736 h -3.968737 z"
           style="font-family:'Press Start 2P';-inkscape-font-specification:'Press Start 2P, Normal';fill:#b3b3b3;stroke:#b3b3b3"
           id="path28172" />
        <path
           d="m 94.339357,104.5283 v -9.260388 h 7.937473 v 1.322912 h 1.32291 v 3.968736 h -2.64582 v 1.32291 h 1.32291 v 1.32292 h 1.32291 v 1.32291 h -3.968733 v -1.32291 h -1.322912 v -1.32292 h -1.322913 v 2.64583 z m 2.645825,-3.96874 h 2.645825 v -1.322911 h 1.322913 v -2.645825 h -3.968738 z"
           style="font-family:'Press Start 2P';-inkscape-font-specification:'Press Start 2P, Normal';fill:#b3b3b3;stroke:#b3b3b3"
           id="path28174" />
        <path
           d="m 104.92266,104.5283 v -9.260388 h 9.26038 v 1.322912 h -6.61456 v 2.645825 h 5.29165 v 1.322911 h -5.29165 v 2.64583 h 6.61456 v 1.32291 z"
           style="font-family:'Press Start 2P';-inkscape-font-specification:'Press Start 2P, Normal';fill:#b3b3b3;stroke:#b3b3b3"
           id="path28176" />
        <path
           d="m 116.82887,104.5283 v -1.32291 h -1.32291 v -1.32292 h 2.64582 v 1.32292 h 3.96874 v -2.64583 h -5.29165 v -1.322911 h -1.32291 v -2.645825 h 1.32291 v -1.322912 h 6.61456 v 1.322912 h 1.32291 v 1.322913 h -2.64582 v -1.322913 h -3.96874 v 2.645825 h 5.29165 v 1.322911 h 1.32291 v 2.64583 h -1.32291 v 1.32291 z"
           style="font-family:'Press Start 2P';-inkscape-font-specification:'Press Start 2P, Normal';fill:#b3b3b3;stroke:#b3b3b3"
           id="path28178" />
        <path
           d="m 127.41217,104.5283 v -1.32291 h -1.32291 v -1.32292 h 2.64582 v 1.32292 h 3.96874 v -2.64583 h -5.29165 v -1.322911 h -1.32291 v -2.645825 h 1.32291 v -1.322912 h 6.61456 v 1.322912 h 1.32291 v 1.322913 h -2.64582 v -1.322913 h -3.96874 v 2.645825 h 5.29165 v 1.322911 h 1.32291 v 2.64583 h -1.32291 v 1.32291 z"
           style="font-family:'Press Start 2P';-inkscape-font-specification:'Press Start 2P, Normal';fill:#b3b3b3;stroke:#b3b3b3"
           id="path28180" />
        <path
           d="m 148.57877,104.5283 v -1.32291 h -1.32291 v -1.32292 h 2.64582 v 1.32292 h 3.96874 v -2.64583 h -5.29165 v -1.322911 h -1.32291 v -2.645825 h 1.32291 v -1.322912 h 6.61456 v 1.322912 h 1.32291 v 1.322913 h -2.64582 v -1.322913 h -3.96874 v 2.645825 h 5.29165 v 1.322911 h 1.32291 v 2.64583 h -1.32291 v 1.32291 z"
           style="font-family:'Press Start 2P';-inkscape-font-specification:'Press Start 2P, Normal';fill:#b3b3b3;stroke:#b3b3b3"
           id="path28182" />
        <path
           d="m 161.80789,104.5283 v -7.937476 h -2.64582 v -1.322912 h 7.93747 v 1.322912 h -2.64582 v 7.937476 z"
           style="font-family:'Press Start 2P';-inkscape-font-specification:'Press Start 2P, Normal';fill:#b3b3b3;stroke:#b3b3b3"
           id="path28184" />
        <path
           d="m 168.42245,104.5283 v -6.614563 h 1.32292 v -1.322913 h 1.32291 v -1.322912 h 3.96874 v 1.322912 h 1.32291 v 1.322913 h 1.32291 v 6.614563 h -2.64582 v -2.64583 h -3.96874 v 2.64583 z m 2.64583,-3.96874 h 3.96874 v -2.645823 h -1.32292 v -1.322913 h -1.32291 v 1.322913 h -1.32291 z"
           style="font-family:'Press Start 2P';-inkscape-font-specification:'Press Start 2P, Normal';fill:#b3b3b3;stroke:#b3b3b3"
           id="path28186" />
        <path
           d="m 179.00575,104.5283 v -9.260388 h 7.93748 v 1.322912 h 1.32291 v 3.968736 h -2.64583 v 1.32291 h 1.32292 v 1.32292 h 1.32291 v 1.32291 h -3.96874 v -1.32291 h -1.32291 v -1.32292 h -1.32291 v 2.64583 z m 2.64583,-3.96874 h 2.64582 v -1.322911 h 1.32291 v -2.645825 h -3.96873 z"
           style="font-family:'Press Start 2P';-inkscape-font-specification:'Press Start 2P, Normal';fill:#b3b3b3;stroke:#b3b3b3"
           id="path28188" />
        <path
           d="m 193.55779,104.5283 v -7.937476 h -2.64583 v -1.322912 h 7.93748 v 1.322912 h -2.64583 v 7.937476 z"
           style="font-family:'Press Start 2P';-inkscape-font-specification:'Press Start 2P, Normal';fill:#b3b3b3;stroke:#b3b3b3"
           id="path28190" />
      </g>
      <rect
         style="fill:none;stroke:#b3b3b3;stroke-width:0.174623;stroke-miterlimit:4;stroke-dasharray:none;stroke-opacity:1;stop-color:#000000"
         id="rect28194"
         width="26.127975"
         height="5.2164145"
         x="128.12105"
         y="113.42873"
         ry="2.6082072" />
      <g
         id="g28891"
         transform="matrix(0.20167597,0,0,0.20167597,112.61069,95.773977)">
        <g
           aria-label="PRESS START"
           id="g28887"
           style="font-size:10.5833px;line-height:1.25;fill:#ff0000;stroke:url(#linearGradient28913);stroke-width:0.661458"
           transform="translate(-0.01187833,-0.21242275)">
          <path
             d="m 83.756058,104.5283 v -9.260388 h 7.937474 v 1.322912 h 1.322913 v 3.968736 h -1.322913 v 1.32291 h -5.291649 v 2.64583 z m 2.645825,-3.96874 h 3.968737 v -3.968736 h -3.968737 z"
             style="font-family:'Press Start 2P';-inkscape-font-specification:'Press Start 2P, Normal';stroke:url(#linearGradient28893)"
             id="path28867" />
          <path
             d="m 94.339357,104.5283 v -9.260388 h 7.937473 v 1.322912 h 1.32291 v 3.968736 h -2.64582 v 1.32291 h 1.32291 v 1.32292 h 1.32291 v 1.32291 h -3.968733 v -1.32291 h -1.322912 v -1.32292 h -1.322913 v 2.64583 z m 2.645825,-3.96874 h 2.645825 v -1.322911 h 1.322913 v -2.645825 h -3.968738 z"
             style="font-family:'Press Start 2P';-inkscape-font-specification:'Press Start 2P, Normal';stroke:url(#linearGradient28895)"
             id="path28869" />
          <path
             d="m 104.92266,104.5283 v -9.260388 h 9.26038 v 1.322912 h -6.61456 v 2.645825 h 5.29165 v 1.322911 h -5.29165 v 2.64583 h 6.61456 v 1.32291 z"
             style="font-family:'Press Start 2P';-inkscape-font-specification:'Press Start 2P, Normal';stroke:url(#linearGradient28897)"
             id="path28871" />
          <path
             d="m 116.82887,104.5283 v -1.32291 h -1.32291 v -1.32292 h 2.64582 v 1.32292 h 3.96874 v -2.64583 h -5.29165 v -1.322911 h -1.32291 v -2.645825 h 1.32291 v -1.322912 h 6.61456 v 1.322912 h 1.32291 v 1.322913 h -2.64582 v -1.322913 h -3.96874 v 2.645825 h 5.29165 v 1.322911 h 1.32291 v 2.64583 h -1.32291 v 1.32291 z"
             style="font-family:'Press Start 2P';-inkscape-font-specification:'Press Start 2P, Normal';stroke:url(#linearGradient28899)"
             id="path28873" />
          <path
             d="m 127.41217,104.5283 v -1.32291 h -1.32291 v -1.32292 h 2.64582 v 1.32292 h 3.96874 v -2.64583 h -5.29165 v -1.322911 h -1.32291 v -2.645825 h 1.32291 v -1.322912 h 6.61456 v 1.322912 h 1.32291 v 1.322913 h -2.64582 v -1.322913 h -3.96874 v 2.645825 h 5.29165 v 1.322911 h 1.32291 v 2.64583 h -1.32291 v 1.32291 z"
             style="font-family:'Press Start 2P';-inkscape-font-specification:'Press Start 2P, Normal';stroke:url(#linearGradient28901)"
             id="path28875" />
          <path
             d="m 148.57877,104.5283 v -1.32291 h -1.32291 v -1.32292 h 2.64582 v 1.32292 h 3.96874 v -2.64583 h -5.29165 v -1.322911 h -1.32291 v -2.645825 h 1.32291 v -1.322912 h 6.61456 v 1.322912 h 1.32291 v 1.322913 h -2.64582 v -1.322913 h -3.96874 v 2.645825 h 5.29165 v 1.322911 h 1.32291 v 2.64583 h -1.32291 v 1.32291 z"
             style="font-family:'Press Start 2P';-inkscape-font-specification:'Press Start 2P, Normal';stroke:url(#linearGradient28903)"
             id="path28877" />
          <path
             d="m 161.80789,104.5283 v -7.937476 h -2.64582 v -1.322912 h 7.93747 v 1.322912 h -2.64582 v 7.937476 z"
             style="font-family:'Press Start 2P';-inkscape-font-specification:'Press Start 2P, Normal';stroke:url(#linearGradient28905)"
             id="path28879" />
          <path
             d="m 168.42245,104.5283 v -6.614563 h 1.32292 v -1.322913 h 1.32291 v -1.322912 h 3.96874 v 1.322912 h 1.32291 v 1.322913 h 1.32291 v 6.614563 h -2.64582 v -2.64583 h -3.96874 v 2.64583 z m 2.64583,-3.96874 h 3.96874 v -2.645823 h -1.32292 v -1.322913 h -1.32291 v 1.322913 h -1.32291 z"
             style="font-family:'Press Start 2P';-inkscape-font-specification:'Press Start 2P, Normal';stroke:url(#linearGradient28907)"
             id="path28881" />
          <path
             d="m 179.00575,104.5283 v -9.260388 h 7.93748 v 1.322912 h 1.32291 v 3.968736 h -2.64583 v 1.32291 h 1.32292 v 1.32292 h 1.32291 v 1.32291 h -3.96874 v -1.32291 h -1.32291 v -1.32292 h -1.32291 v 2.64583 z m 2.64583,-3.96874 h 2.64582 v -1.322911 h 1.32291 v -2.645825 h -3.96873 z"
             style="font-family:'Press Start 2P';-inkscape-font-specification:'Press Start 2P, Normal';stroke:url(#linearGradient28909)"
             id="path28883" />
          <path
             d="m 193.55779,104.5283 v -7.937476 h -2.64583 v -1.322912 h 7.93748 v 1.322912 h -2.64583 v 7.937476 z"
             style="font-family:'Press Start 2P';-inkscape-font-specification:'Press Start 2P, Normal';stroke:url(#linearGradient28911)"
             id="path28885" />
        </g>
        <rect
           style="opacity:1;fill:none;stroke:url(#linearGradient26085);stroke-width:0.865861;stroke-miterlimit:4;stroke-dasharray:none;stroke-opacity:1;stop-color:#000000"
           id="rect28889"
           width="129.55423"
           height="25.865324"
           x="76.513756"
           y="86.753021"
           ry="12.932662" />
      </g>
    </g>
  </g>
</svg>
