<?xml version="1.0" encoding="UTF-8" standalone="no"?>
<!-- Created with Inkscape (http://www.inkscape.org/) -->

<svg
   width="26.381971mm"
   height="5.549787mm"
   viewBox="0 0 26.381971 5.5497871"
   version="1.1"
   id="svg5"
   sodipodi:docname="press start shadow copy 2.svg"
   inkscape:version="1.1.1 (c3084ef, 2021-09-22)"
   xmlns:inkscape="http://www.inkscape.org/namespaces/inkscape"
   xmlns:sodipodi="http://sodipodi.sourceforge.net/DTD/sodipodi-0.dtd"
   xmlns:xlink="http://www.w3.org/1999/xlink"
   xmlns="http://www.w3.org/2000/svg"
   xmlns:svg="http://www.w3.org/2000/svg">
  <sodipodi:namedview
     id="namedview1804"
     pagecolor="#ffffff"
     bordercolor="#666666"
     borderopacity="1.0"
     inkscape:pageshadow="2"
     inkscape:pageopacity="0.0"
     inkscape:pagecheckerboard="0"
     inkscape:document-units="mm"
     showgrid="false"
     inkscape:zoom="2.2677678"
     inkscape:cx="-11.905981"
     inkscape:cy="29.985433"
     inkscape:window-width="1296"
     inkscape:window-height="844"
     inkscape:window-x="0"
     inkscape:window-y="38"
     inkscape:window-maximized="0"
     inkscape:current-layer="svg5" />
  <defs
     id="defs2">
    <linearGradient
       id="linearGradient26085"
       gradientTransform="matrix(0.20167597,0,0,0.20167597,114.38341,79.581477)">
      <stop
         style="stop-color:#ff8080;stop-opacity:1;"
         offset="0"
         id="stop26083" />
    </linearGradient>
    <linearGradient
       id="linearGradient25991">
      <stop
         style="stop-color:#ff8080;stop-opacity:1;"
         offset="0"
         id="stop25989" />
    </linearGradient>
    <linearGradient
       id="linearGradient25209">
      <stop
         style="stop-color:#e5446d;stop-opacity:1;"
         offset="0"
         id="stop25207" />
    </linearGradient>
    <linearGradient
       id="linearGradient25115">
      <stop
         style="stop-color:#ff8966;stop-opacity:1;"
         offset="0"
         id="stop25113" />
    </linearGradient>
    <linearGradient
       id="linearGradient25041">
      <stop
         style="stop-color:#ff0000;stop-opacity:1;"
         offset="0"
         id="stop25039" />
    </linearGradient>
    <linearGradient
       id="linearGradient23435">
      <stop
         style="stop-color:#ff0000;stop-opacity:1;"
         offset="0"
         id="stop23433" />
    </linearGradient>
    <linearGradient
       xlink:href="#linearGradient25209"
       id="linearGradient25211"
       x1="84.428734"
       y1="133.67648"
       x2="119.95578"
       y2="133.67648"
       gradientUnits="userSpaceOnUse"
       gradientTransform="translate(-127.95436,-113.18267)" />
    <linearGradient
       xlink:href="#linearGradient26085"
       id="linearGradient26087"
       x1="83.425331"
       y1="100.55956"
       x2="199.18018"
       y2="100.55956"
       gradientUnits="userSpaceOnUse" />
    <linearGradient
       xlink:href="#linearGradient26085"
       id="linearGradient28072"
       gradientUnits="userSpaceOnUse"
       x1="83.425331"
       y1="100.55956"
       x2="199.18018"
       y2="100.55956" />
    <linearGradient
       xlink:href="#linearGradient26085"
       id="linearGradient28074"
       gradientUnits="userSpaceOnUse"
       x1="83.425331"
       y1="100.55956"
       x2="199.18018"
       y2="100.55956" />
    <linearGradient
       xlink:href="#linearGradient26085"
       id="linearGradient28076"
       gradientUnits="userSpaceOnUse"
       x1="83.425331"
       y1="100.55956"
       x2="199.18018"
       y2="100.55956" />
    <linearGradient
       xlink:href="#linearGradient26085"
       id="linearGradient28078"
       gradientUnits="userSpaceOnUse"
       x1="83.425331"
       y1="100.55956"
       x2="199.18018"
       y2="100.55956" />
    <linearGradient
       xlink:href="#linearGradient26085"
       id="linearGradient28080"
       gradientUnits="userSpaceOnUse"
       x1="83.425331"
       y1="100.55956"
       x2="199.18018"
       y2="100.55956" />
    <linearGradient
       xlink:href="#linearGradient26085"
       id="linearGradient28082"
       gradientUnits="userSpaceOnUse"
       x1="83.425331"
       y1="100.55956"
       x2="199.18018"
       y2="100.55956" />
    <linearGradient
       xlink:href="#linearGradient26085"
       id="linearGradient28084"
       gradientUnits="userSpaceOnUse"
       x1="83.425331"
       y1="100.55956"
       x2="199.18018"
       y2="100.55956" />
    <linearGradient
       xlink:href="#linearGradient26085"
       id="linearGradient28086"
       gradientUnits="userSpaceOnUse"
       x1="83.425331"
       y1="100.55956"
       x2="199.18018"
       y2="100.55956" />
    <linearGradient
       xlink:href="#linearGradient26085"
       id="linearGradient28088"
       gradientUnits="userSpaceOnUse"
       x1="83.425331"
       y1="100.55956"
       x2="199.18018"
       y2="100.55956" />
    <linearGradient
       xlink:href="#linearGradient26085"
       id="linearGradient28090"
       gradientUnits="userSpaceOnUse"
       x1="83.425331"
       y1="100.55956"
       x2="199.18018"
       y2="100.55956" />
    <linearGradient
       xlink:href="#linearGradient26085"
       id="linearGradient28092"
       gradientUnits="userSpaceOnUse"
       x1="83.425331"
       y1="100.55956"
       x2="199.18018"
       y2="100.55956" />
    <linearGradient
       xlink:href="#linearGradient26085"
       id="linearGradient28893"
       gradientUnits="userSpaceOnUse"
       x1="83.425331"
       y1="100.55956"
       x2="199.18018"
       y2="100.55956"
       gradientTransform="matrix(0.20167597,0,0,0.20167597,-15.346066,-17.451534)" />
    <linearGradient
       xlink:href="#linearGradient26085"
       id="linearGradient28895"
       gradientUnits="userSpaceOnUse"
       x1="83.425331"
       y1="100.55956"
       x2="199.18018"
       y2="100.55956"
       gradientTransform="matrix(0.20167597,0,0,0.20167597,-15.346066,-17.451534)" />
    <linearGradient
       xlink:href="#linearGradient26085"
       id="linearGradient28897"
       gradientUnits="userSpaceOnUse"
       x1="83.425331"
       y1="100.55956"
       x2="199.18018"
       y2="100.55956"
       gradientTransform="matrix(0.20167597,0,0,0.20167597,-15.346066,-17.451534)" />
    <linearGradient
       xlink:href="#linearGradient26085"
       id="linearGradient28899"
       gradientUnits="userSpaceOnUse"
       x1="83.425331"
       y1="100.55956"
       x2="199.18018"
       y2="100.55956"
       gradientTransform="matrix(0.20167597,0,0,0.20167597,-15.346066,-17.451534)" />
    <linearGradient
       xlink:href="#linearGradient26085"
       id="linearGradient28901"
       gradientUnits="userSpaceOnUse"
       x1="83.425331"
       y1="100.55956"
       x2="199.18018"
       y2="100.55956"
       gradientTransform="matrix(0.20167597,0,0,0.20167597,-15.346066,-17.451534)" />
    <linearGradient
       xlink:href="#linearGradient26085"
       id="linearGradient28903"
       gradientUnits="userSpaceOnUse"
       x1="83.425331"
       y1="100.55956"
       x2="199.18018"
       y2="100.55956"
       gradientTransform="matrix(0.20167597,0,0,0.20167597,-15.346066,-17.451534)" />
    <linearGradient
       xlink:href="#linearGradient26085"
       id="linearGradient28905"
       gradientUnits="userSpaceOnUse"
       x1="83.425331"
       y1="100.55956"
       x2="199.18018"
       y2="100.55956"
       gradientTransform="matrix(0.20167597,0,0,0.20167597,-15.346066,-17.451534)" />
    <linearGradient
       xlink:href="#linearGradient26085"
       id="linearGradient28907"
       gradientUnits="userSpaceOnUse"
       x1="83.425331"
       y1="100.55956"
       x2="199.18018"
       y2="100.55956"
       gradientTransform="matrix(0.20167597,0,0,0.20167597,-15.346066,-17.451534)" />
    <linearGradient
       xlink:href="#linearGradient26085"
       id="linearGradient28909"
       gradientUnits="userSpaceOnUse"
       x1="83.425331"
       y1="100.55956"
       x2="199.18018"
       y2="100.55956"
       gradientTransform="matrix(0.20167597,0,0,0.20167597,-15.346066,-17.451534)" />
    <linearGradient
       xlink:href="#linearGradient26085"
       id="linearGradient28911"
       gradientUnits="userSpaceOnUse"
       x1="83.425331"
       y1="100.55956"
       x2="199.18018"
       y2="100.55956"
       gradientTransform="matrix(0.20167597,0,0,0.20167597,-15.346066,-17.451534)" />
    <linearGradient
       xlink:href="#linearGradient26085"
       id="linearGradient28913"
       gradientUnits="userSpaceOnUse"
       x1="83.425331"
       y1="100.55956"
       x2="199.18018"
       y2="100.55956" />
    <linearGradient
       inkscape:collect="always"
       xlink:href="#linearGradient26085"
       id="linearGradient1865"
       gradientTransform="matrix(0.4454688,0,0,0.09130425,-15.34367,-17.408693)"
       x1="34.44388"
       y1="190.66678"
       x2="93.488639"
       y2="190.66678"
       gradientUnits="userSpaceOnUse" />
  </defs>
  <text
     xml:space="preserve"
     style="font-style:normal;font-weight:normal;font-size:10.5833px;line-height:1.25;font-family:sans-serif;fill:#000000;fill-opacity:1;stroke:none;stroke-width:0.264583"
     x="-23.576338"
     y="-11.066176"
     id="text11350"><tspan
       id="tspan11348"
       style="stroke-width:0.264583"
       x="-23.576338"
       y="-11.066176" /></text>
  <text
     xml:space="preserve"
     style="font-style:normal;font-weight:normal;font-size:10.5833px;line-height:1.25;font-family:sans-serif;fill:#000000;fill-opacity:1;stroke:none;stroke-width:0.264583"
     x="87.934174"
     y="13.636613"
     id="text18353"><tspan
       id="tspan18351"
       style="stroke-width:0.264583"
       x="87.934174"
       y="13.636613" /><tspan
       style="stroke-width:0.264583"
       x="87.934174"
       y="26.86573"
       id="tspan18355" /></text>
  <g
     aria-label="PRESS START"
     id="g28192"
     style="font-size:10.5833px;line-height:1.25;fill:#b3b3b3;stroke:#b3b3b3;stroke-width:0.661458"
     transform="matrix(0.20167597,0,0,0.20167597,-15.21383,-17.266424)">
    <path
       d="m 83.756058,104.5283 v -9.260388 h 7.937474 v 1.322912 h 1.322913 v 3.968736 h -1.322913 v 1.32291 h -5.291649 v 2.64583 z m 2.645825,-3.96874 h 3.968737 v -3.968736 h -3.968737 z"
       style="font-family:'Press Start 2P';-inkscape-font-specification:'Press Start 2P, Normal';fill:#b3b3b3;stroke:#b3b3b3"
       id="path28172" />
    <path
       d="m 94.339357,104.5283 v -9.260388 h 7.937473 v 1.322912 h 1.32291 v 3.968736 h -2.64582 v 1.32291 h 1.32291 v 1.32292 h 1.32291 v 1.32291 h -3.968733 v -1.32291 h -1.322912 v -1.32292 h -1.322913 v 2.64583 z m 2.645825,-3.96874 h 2.645825 v -1.322911 h 1.322913 v -2.645825 h -3.968738 z"
       style="font-family:'Press Start 2P';-inkscape-font-specification:'Press Start 2P, Normal';fill:#b3b3b3;stroke:#b3b3b3"
       id="path28174" />
    <path
       d="m 104.92266,104.5283 v -9.260388 h 9.26038 v 1.322912 h -6.61456 v 2.645825 h 5.29165 v 1.322911 h -5.29165 v 2.64583 h 6.61456 v 1.32291 z"
       style="font-family:'Press Start 2P';-inkscape-font-specification:'Press Start 2P, Normal';fill:#b3b3b3;stroke:#b3b3b3"
       id="path28176" />
    <path
       d="m 116.82887,104.5283 v -1.32291 h -1.32291 v -1.32292 h 2.64582 v 1.32292 h 3.96874 v -2.64583 h -5.29165 v -1.322911 h -1.32291 v -2.645825 h 1.32291 v -1.322912 h 6.61456 v 1.322912 h 1.32291 v 1.322913 h -2.64582 v -1.322913 h -3.96874 v 2.645825 h 5.29165 v 1.322911 h 1.32291 v 2.64583 h -1.32291 v 1.32291 z"
       style="font-family:'Press Start 2P';-inkscape-font-specification:'Press Start 2P, Normal';fill:#b3b3b3;stroke:#b3b3b3"
       id="path28178" />
    <path
       d="m 127.41217,104.5283 v -1.32291 h -1.32291 v -1.32292 h 2.64582 v 1.32292 h 3.96874 v -2.64583 h -5.29165 v -1.322911 h -1.32291 v -2.645825 h 1.32291 v -1.322912 h 6.61456 v 1.322912 h 1.32291 v 1.322913 h -2.64582 v -1.322913 h -3.96874 v 2.645825 h 5.29165 v 1.322911 h 1.32291 v 2.64583 h -1.32291 v 1.32291 z"
       style="font-family:'Press Start 2P';-inkscape-font-specification:'Press Start 2P, Normal';fill:#b3b3b3;stroke:#b3b3b3"
       id="path28180" />
    <path
       d="m 148.57877,104.5283 v -1.32291 h -1.32291 v -1.32292 h 2.64582 v 1.32292 h 3.96874 v -2.64583 h -5.29165 v -1.322911 h -1.32291 v -2.645825 h 1.32291 v -1.322912 h 6.61456 v 1.322912 h 1.32291 v 1.322913 h -2.64582 v -1.322913 h -3.96874 v 2.645825 h 5.29165 v 1.322911 h 1.32291 v 2.64583 h -1.32291 v 1.32291 z"
       style="font-family:'Press Start 2P';-inkscape-font-specification:'Press Start 2P, Normal';fill:#b3b3b3;stroke:#b3b3b3"
       id="path28182" />
    <path
       d="m 161.80789,104.5283 v -7.937476 h -2.64582 v -1.322912 h 7.93747 v 1.322912 h -2.64582 v 7.937476 z"
       style="font-family:'Press Start 2P';-inkscape-font-specification:'Press Start 2P, Normal';fill:#b3b3b3;stroke:#b3b3b3"
       id="path28184" />
    <path
       d="m 168.42245,104.5283 v -6.614563 h 1.32292 v -1.322913 h 1.32291 v -1.322912 h 3.96874 v 1.322912 h 1.32291 v 1.322913 h 1.32291 v 6.614563 h -2.64582 v -2.64583 h -3.96874 v 2.64583 z m 2.64583,-3.96874 h 3.96874 v -2.645823 h -1.32292 v -1.322913 h -1.32291 v 1.322913 h -1.32291 z"
       style="font-family:'Press Start 2P';-inkscape-font-specification:'Press Start 2P, Normal';fill:#b3b3b3;stroke:#b3b3b3"
       id="path28186" />
    <path
       d="m 179.00575,104.5283 v -9.260388 h 7.93748 v 1.322912 h 1.32291 v 3.968736 h -2.64583 v 1.32291 h 1.32292 v 1.32292 h 1.32291 v 1.32291 h -3.96874 v -1.32291 h -1.32291 v -1.32292 h -1.32291 v 2.64583 z m 2.64583,-3.96874 h 2.64582 v -1.322911 h 1.32291 v -2.645825 h -3.96873 z"
       style="font-family:'Press Start 2P';-inkscape-font-specification:'Press Start 2P, Normal';fill:#b3b3b3;stroke:#b3b3b3"
       id="path28188" />
    <path
       d="m 193.55779,104.5283 v -7.937476 h -2.64583 v -1.322912 h 7.93748 v 1.322912 h -2.64583 v 7.937476 z"
       style="font-family:'Press Start 2P';-inkscape-font-specification:'Press Start 2P, Normal';fill:#b3b3b3;stroke:#b3b3b3"
       id="path28190" />
  </g>
  <rect
     style="fill:none;stroke:#b3b3b3;stroke-width:0.174623;stroke-miterlimit:4;stroke-dasharray:none;stroke-opacity:1;stop-color:#000000"
     id="rect28194"
     width="26.127975"
     height="5.2164145"
     x="0.16668798"
     y="0.2460562"
     ry="2.6082072" />
  <path
     d="M 1.5455182,3.6293123 V 1.7617146 H 3.146316 V 2.0285141 H 3.4131158 V 2.8289128 H 3.146316 V 3.095712 H 2.0791176 V 3.6293123 Z M 2.0791176,2.8289128 H 2.8795164 V 2.0285141 H 2.0791176 Z"
     style="font-size:10.5833px;line-height:1.25;font-family:'Press Start 2P';-inkscape-font-specification:'Press Start 2P, Normal';fill:#ff0000;stroke:url(#linearGradient28893);stroke-width:0.1334"
     id="path28867" />
  <path
     d="M 3.6799153,3.6293123 V 1.7617146 H 5.2807129 V 2.0285141 H 5.5475121 V 2.8289128 H 5.0139137 V 3.095712 H 5.2807129 V 3.3625131 H 5.5475121 V 3.6293123 H 4.747114 V 3.3625131 H 4.4803144 V 3.095712 H 4.2135147 V 3.6293123 Z M 4.2135147,2.8289128 H 4.747114 V 2.5621134 H 5.0139137 V 2.0285141 h -0.800399 z"
     style="font-size:10.5833px;line-height:1.25;font-family:'Press Start 2P';-inkscape-font-specification:'Press Start 2P, Normal';fill:#ff0000;stroke:url(#linearGradient28895);stroke-width:0.1334"
     id="path28869" />
  <path
     d="M 5.8143132,3.6293123 V 1.7617146 H 7.6819093 V 2.0285141 H 6.3479115 V 2.5621134 H 7.4151102 V 2.8289128 H 6.3479115 v 0.5336003 h 1.3339978 v 0.2667992 z"
     style="font-size:10.5833px;line-height:1.25;font-family:'Press Start 2P';-inkscape-font-specification:'Press Start 2P, Normal';fill:#ff0000;stroke:url(#linearGradient28897);stroke-width:0.1334"
     id="path28871" />
  <path
     d="M 8.2155097,3.6293123 V 3.3625131 H 7.9487105 V 3.095712 H 8.4823088 V 3.3625131 H 9.2827083 V 2.8289128 H 8.2155097 V 2.5621134 H 7.9487105 V 2.0285141 H 8.2155097 V 1.7617146 H 9.5495075 V 2.0285141 H 9.8163066 V 2.2953139 H 9.2827083 V 2.0285141 H 8.4823088 V 2.5621134 H 9.5495075 V 2.8289128 H 9.8163066 V 3.3625131 H 9.5495075 v 0.2667992 z"
     style="font-size:10.5833px;line-height:1.25;font-family:'Press Start 2P';-inkscape-font-specification:'Press Start 2P, Normal';fill:#ff0000;stroke:url(#linearGradient28899);stroke-width:0.1334"
     id="path28873" />
  <path
     d="M 10.349907,3.6293123 V 3.3625131 H 10.083108 V 3.095712 h 0.533598 v 0.2668011 h 0.8004 V 2.8289128 H 10.349907 V 2.5621134 H 10.083108 V 2.0285141 h 0.266799 V 1.7617146 h 1.333998 v 0.2667995 h 0.266799 V 2.2953139 H 11.417106 V 2.0285141 h -0.8004 v 0.5335993 h 1.067199 v 0.2667994 h 0.266799 v 0.5336003 h -0.266799 v 0.2667992 z"
     style="font-size:10.5833px;line-height:1.25;font-family:'Press Start 2P';-inkscape-font-specification:'Press Start 2P, Normal';fill:#ff0000;stroke:url(#linearGradient28901);stroke-width:0.1334"
     id="path28875" />
  <path
     d="M 14.618702,3.6293123 V 3.3625131 h -0.2668 V 3.095712 h 0.533599 V 3.3625131 H 15.6859 V 2.8289128 H 14.618702 V 2.5621134 h -0.2668 V 2.0285141 h 0.2668 V 1.7617146 h 1.333997 v 0.2667995 h 0.2668 V 2.2953139 H 15.6859 V 2.0285141 h -0.800399 v 0.5335993 h 1.067198 v 0.2667994 h 0.2668 v 0.5336003 h -0.2668 v 0.2667992 z"
     style="font-size:10.5833px;line-height:1.25;font-family:'Press Start 2P';-inkscape-font-specification:'Press Start 2P, Normal';fill:#ff0000;stroke:url(#linearGradient28903);stroke-width:0.1334"
     id="path28877" />
  <path
     d="M 17.286697,3.6293123 V 2.0285141 H 16.753099 V 1.7617146 h 1.600797 v 0.2667995 h -0.533598 v 1.6007982 z"
     style="font-size:10.5833px;line-height:1.25;font-family:'Press Start 2P';-inkscape-font-specification:'Press Start 2P, Normal';fill:#ff0000;stroke:url(#linearGradient28905);stroke-width:0.1334"
     id="path28879" />
  <path
     d="M 18.620695,3.6293123 V 2.2953139 h 0.266801 V 2.0285141 h 0.266799 V 1.7617146 h 0.8004 v 0.2667995 h 0.266799 v 0.2667998 h 0.266799 V 3.6293123 H 19.954695 V 3.095712 h -0.8004 v 0.5336003 z m 0.5336,-0.8003995 h 0.8004 V 2.2953139 H 19.687894 V 2.0285141 h -0.2668 v 0.2667998 h -0.266799 z"
     style="font-size:10.5833px;line-height:1.25;font-family:'Press Start 2P';-inkscape-font-specification:'Press Start 2P, Normal';fill:#ff0000;stroke:url(#linearGradient28907);stroke-width:0.1334"
     id="path28881" />
  <path
     d="M 20.755092,3.6293123 V 1.7617146 h 1.600799 v 0.2667995 h 0.266799 v 0.8003987 h -0.5336 V 3.095712 h 0.266801 V 3.3625131 H 22.62269 V 3.6293123 H 21.822291 V 3.3625131 H 21.555492 V 3.095712 h -0.266799 v 0.5336003 z m 0.533601,-0.8003995 h 0.533598 V 2.5621134 H 22.08909 V 2.0285141 h -0.800397 z"
     style="font-size:10.5833px;line-height:1.25;font-family:'Press Start 2P';-inkscape-font-specification:'Press Start 2P, Normal';fill:#ff0000;stroke:url(#linearGradient28909);stroke-width:0.1334"
     id="path28883" />
  <path
     d="M 23.689889,3.6293123 V 2.0285141 h -0.5336 V 1.7617146 h 1.600799 v 0.2667995 h -0.533601 v 1.6007982 z"
     style="font-size:10.5833px;line-height:1.25;font-family:'Press Start 2P';-inkscape-font-specification:'Press Start 2P, Normal';fill:#ff0000;stroke:url(#linearGradient28911);stroke-width:0.1334"
     id="path28885" />
  <rect
     style="fill:none;stroke:url(#linearGradient1865);stroke-width:0.174623;stroke-miterlimit:4;stroke-dasharray:none;stroke-opacity:1;stop-color:#000000"
     id="rect28889"
     width="26.127975"
     height="5.2164145"
     x="0.087315917"
     y="0.087306708"
     ry="2.6082072" />
</svg>
