<?xml version="1.0" encoding="UTF-8" standalone="no"?>
<!-- Created with Inkscape (http://www.inkscape.org/) -->

<svg
   width="28.606691mm"
   height="5.5497813mm"
   viewBox="0 0 28.606691 5.5497813"
   version="1.1"
   id="svg12088"
   xmlns:xlink="http://www.w3.org/1999/xlink"
   xmlns="http://www.w3.org/2000/svg"
   xmlns:svg="http://www.w3.org/2000/svg">
  <defs
     id="defs12085">
    <linearGradient
       id="linearGradient26085"
       gradientTransform="matrix(0.00820281,0,0,0.00820281,140.01125,121.53051)">
      <stop
         style="stop-color:#ff8080;stop-opacity:1;"
         offset="0"
         id="stop26083" />
    </linearGradient>
    <linearGradient
       id="linearGradient23435">
      <stop
         style="stop-color:#ff0000;stop-opacity:1;"
         offset="0"
         id="stop23433" />
    </linearGradient>
    <linearGradient
       xlink:href="#linearGradient23435"
       id="linearGradient12174"
       gradientUnits="userSpaceOnUse"
       gradientTransform="translate(1.0583331,20.637507)"
       x1="129.28404"
       y1="123.05166"
       x2="152.78847"
       y2="123.05166" />
    <linearGradient
       xlink:href="#linearGradient26085"
       id="linearGradient12176"
       gradientUnits="userSpaceOnUse"
       gradientTransform="matrix(0.2021502,0,0,0.2021502,96.480011,122.93637)"
       x1="167.83827"
       y1="102.20257"
       x2="282.93164"
       y2="102.20257" />
    <linearGradient
       xlink:href="#linearGradient23435"
       id="linearGradient12191"
       gradientUnits="userSpaceOnUse"
       gradientTransform="translate(1.0583331,20.637507)"
       x1="129.28404"
       y1="123.05166"
       x2="152.78847"
       y2="123.05166" />
    <linearGradient
       xlink:href="#linearGradient26085"
       id="linearGradient12193"
       gradientUnits="userSpaceOnUse"
       gradientTransform="matrix(0.2021502,0,0,0.2021502,96.480011,122.93637)"
       x1="167.83827"
       y1="102.20257"
       x2="282.93164"
       y2="102.20257" />
    <linearGradient
       xlink:href="#linearGradient26085"
       id="linearGradient12927"
       gradientTransform="scale(2.2088343,0.45272748)"
       x1="34.443878"
       y1="190.66678"
       x2="93.48864"
       y2="190.66678"
       gradientUnits="userSpaceOnUse" />
    <linearGradient
       xlink:href="#linearGradient23435"
       id="linearGradient12993"
       gradientUnits="userSpaceOnUse"
       gradientTransform="translate(-126.7329,-120.27659)"
       x1="129.28404"
       y1="123.05166"
       x2="152.78847"
       y2="123.05166" />
    <linearGradient
       xlink:href="#linearGradient26085"
       id="linearGradient12995"
       gradientUnits="userSpaceOnUse"
       gradientTransform="matrix(0.2021502,0,0,0.2021502,-31.311219,-17.97773)"
       x1="167.83827"
       y1="102.20257"
       x2="282.93164"
       y2="102.20257" />
    <linearGradient
       xlink:href="#linearGradient23435"
       id="linearGradient12997"
       gradientUnits="userSpaceOnUse"
       gradientTransform="translate(-126.7329,-120.27659)"
       x1="129.28404"
       y1="123.05166"
       x2="152.78847"
       y2="123.05166" />
    <linearGradient
       xlink:href="#linearGradient26085"
       id="linearGradient12999"
       gradientUnits="userSpaceOnUse"
       gradientTransform="matrix(0.2021502,0,0,0.2021502,-31.311219,-17.97773)"
       x1="167.83827"
       y1="102.20257"
       x2="282.93164"
       y2="102.20257" />
    <linearGradient
       xlink:href="#linearGradient23435"
       id="linearGradient13001"
       gradientUnits="userSpaceOnUse"
       gradientTransform="translate(-126.7329,-120.27659)"
       x1="129.28404"
       y1="123.05166"
       x2="152.78847"
       y2="123.05166" />
    <linearGradient
       xlink:href="#linearGradient26085"
       id="linearGradient13003"
       gradientUnits="userSpaceOnUse"
       gradientTransform="matrix(0.2021502,0,0,0.2021502,-31.311219,-17.97773)"
       x1="167.83827"
       y1="102.20257"
       x2="282.93164"
       y2="102.20257" />
    <linearGradient
       xlink:href="#linearGradient23435"
       id="linearGradient13005"
       gradientUnits="userSpaceOnUse"
       gradientTransform="translate(-126.7329,-120.27659)"
       x1="129.28404"
       y1="123.05166"
       x2="152.78847"
       y2="123.05166" />
    <linearGradient
       xlink:href="#linearGradient26085"
       id="linearGradient13007"
       gradientUnits="userSpaceOnUse"
       gradientTransform="matrix(0.2021502,0,0,0.2021502,-31.311219,-17.97773)"
       x1="167.83827"
       y1="102.20257"
       x2="282.93164"
       y2="102.20257" />
    <linearGradient
       xlink:href="#linearGradient23435"
       id="linearGradient13009"
       gradientUnits="userSpaceOnUse"
       gradientTransform="translate(-126.7329,-120.27659)"
       x1="129.28404"
       y1="123.05166"
       x2="152.78847"
       y2="123.05166" />
    <linearGradient
       xlink:href="#linearGradient26085"
       id="linearGradient13011"
       gradientUnits="userSpaceOnUse"
       gradientTransform="matrix(0.2021502,0,0,0.2021502,-31.311219,-17.97773)"
       x1="167.83827"
       y1="102.20257"
       x2="282.93164"
       y2="102.20257" />
    <linearGradient
       xlink:href="#linearGradient23435"
       id="linearGradient13013"
       gradientUnits="userSpaceOnUse"
       gradientTransform="translate(-126.7329,-120.27659)"
       x1="129.28404"
       y1="123.05166"
       x2="152.78847"
       y2="123.05166" />
    <linearGradient
       xlink:href="#linearGradient26085"
       id="linearGradient13015"
       gradientUnits="userSpaceOnUse"
       gradientTransform="matrix(0.2021502,0,0,0.2021502,-31.311219,-17.97773)"
       x1="167.83827"
       y1="102.20257"
       x2="282.93164"
       y2="102.20257" />
    <linearGradient
       xlink:href="#linearGradient23435"
       id="linearGradient13017"
       gradientUnits="userSpaceOnUse"
       gradientTransform="translate(-126.7329,-120.27659)"
       x1="129.28404"
       y1="123.05166"
       x2="152.78847"
       y2="123.05166" />
    <linearGradient
       xlink:href="#linearGradient26085"
       id="linearGradient13019"
       gradientUnits="userSpaceOnUse"
       gradientTransform="matrix(0.2021502,0,0,0.2021502,-31.311219,-17.97773)"
       x1="167.83827"
       y1="102.20257"
       x2="282.93164"
       y2="102.20257" />
    <linearGradient
       xlink:href="#linearGradient23435"
       id="linearGradient13021"
       gradientUnits="userSpaceOnUse"
       gradientTransform="translate(-126.7329,-120.27659)"
       x1="129.28404"
       y1="123.05166"
       x2="152.78847"
       y2="123.05166" />
    <linearGradient
       xlink:href="#linearGradient26085"
       id="linearGradient13023"
       gradientUnits="userSpaceOnUse"
       gradientTransform="matrix(0.2021502,0,0,0.2021502,-31.311219,-17.97773)"
       x1="167.83827"
       y1="102.20257"
       x2="282.93164"
       y2="102.20257" />
    <linearGradient
       xlink:href="#linearGradient23435"
       id="linearGradient13025"
       gradientUnits="userSpaceOnUse"
       gradientTransform="translate(-126.7329,-120.27659)"
       x1="129.28404"
       y1="123.05166"
       x2="152.78847"
       y2="123.05166" />
    <linearGradient
       xlink:href="#linearGradient26085"
       id="linearGradient13027"
       gradientUnits="userSpaceOnUse"
       gradientTransform="matrix(0.2021502,0,0,0.2021502,-31.311219,-17.97773)"
       x1="167.83827"
       y1="102.20257"
       x2="282.93164"
       y2="102.20257" />
    <linearGradient
       xlink:href="#linearGradient23435"
       id="linearGradient13029"
       gradientUnits="userSpaceOnUse"
       gradientTransform="translate(-126.7329,-120.27659)"
       x1="129.28404"
       y1="123.05166"
       x2="152.78847"
       y2="123.05166" />
    <linearGradient
       xlink:href="#linearGradient26085"
       id="linearGradient13031"
       gradientUnits="userSpaceOnUse"
       gradientTransform="matrix(0.2021502,0,0,0.2021502,-31.311219,-17.97773)"
       x1="167.83827"
       y1="102.20257"
       x2="282.93164"
       y2="102.20257" />
  </defs>
  <g
     id="g13115">
    <g
       id="g39419"
       transform="matrix(0.21868278,0,0,0.20167597,-16.63757,-17.40869)">
      <rect
         style="fill:none;stroke:#b3b3b3;stroke-width:0.174623;stroke-miterlimit:4;stroke-dasharray:none;stroke-opacity:1;stop-color:#000000"
         id="rect39076"
         width="26.127975"
         height="5.2164145"
         x="128.12105"
         y="140.9454"
         ry="2.6082072"
         transform="matrix(4.9584489,0,0,4.9584489,-558.37436,-611.33044)" />
      <rect
         style="opacity:1;fill:none;stroke:url(#linearGradient12927);stroke-width:0.865861;stroke-miterlimit:4;stroke-dasharray:none;stroke-opacity:1;stop-color:#000000"
         id="rect39100"
         width="129.55423"
         height="25.865324"
         x="76.513756"
         y="86.753021"
         ry="12.932662" />
    </g>
    <path
       d="M 2.9906476,3.6697451 V 3.4023176 H 2.7232201 V 3.1348901 h 0.534855 v 0.2674275 h 0.8022825 v -0.534855 h -1.06971 V 2.6000351 H 2.7232201 V 2.0651801 H 2.9906476 V 1.7977526 H 4.3277851 V 2.0651801 H 4.5952126 V 2.3326076 H 4.0603576 V 2.0651801 H 3.2580751 v 0.534855 h 1.06971 v 0.2674275 h 0.2674275 v 0.534855 H 4.3277851 v 0.2674275 z"
       style="font-size:2.13942px;line-height:1.25;font-family:'Press Start 2P';-inkscape-font-specification:'Press Start 2P, Normal';fill:#b3b3b3;stroke:#b3b3b3;stroke-width:0.132292"
       id="path13043" />
    <path
       d="M 4.8626401,3.6697451 V 1.7977526 H 6.7346327 V 2.0651801 H 5.3974952 v 0.534855 h 1.06971 v 0.2674275 h -1.06971 v 0.534855 h 1.3371375 v 0.2674275 z"
       style="font-size:2.13942px;line-height:1.25;font-family:'Press Start 2P';-inkscape-font-specification:'Press Start 2P, Normal';fill:#b3b3b3;stroke:#b3b3b3;stroke-width:0.132292"
       id="path13045" />
    <path
       d="M 7.0020602,3.6697451 V 1.7977526 H 8.8740527 V 2.0651801 H 7.5369152 v 0.534855 h 1.06971 v 0.2674275 h -1.06971 v 0.534855 h 1.3371375 v 0.2674275 z"
       style="font-size:2.13942px;line-height:1.25;font-family:'Press Start 2P';-inkscape-font-specification:'Press Start 2P, Normal';fill:#b3b3b3;stroke:#b3b3b3;stroke-width:0.132292"
       id="path13047" />
    <path
       d="M 11.2809,3.6697451 V 1.7977526 h 1.871993 v 0.2674275 h -1.337138 v 0.534855 h 1.06971 v 0.2674275 h -1.06971 v 0.534855 h 1.337138 v 0.2674275 z"
       style="font-size:2.13942px;line-height:1.25;font-family:'Press Start 2P';-inkscape-font-specification:'Press Start 2P, Normal';fill:#b3b3b3;stroke:#b3b3b3;stroke-width:0.132292"
       id="path13049" />
    <path
       d="m 13.42032,3.6697451 v -0.534855 h 0.267427 V 2.8674626 h 0.267428 V 2.6000351 H 13.687747 V 2.3326076 H 13.42032 v -0.534855 h 0.534855 v 0.534855 h 0.267427 V 2.6000351 H 14.49003 V 2.3326076 h 0.267427 v -0.534855 h 0.534855 v 0.534855 h -0.267427 v 0.2674275 h -0.267428 v 0.2674275 h 0.267428 v 0.2674275 h 0.267427 v 0.534855 H 14.757457 V 3.1348901 H 14.49003 V 2.8674626 h -0.267428 v 0.2674275 h -0.267427 v 0.534855 z"
       style="font-size:2.13942px;line-height:1.25;font-family:'Press Start 2P';-inkscape-font-specification:'Press Start 2P, Normal';fill:#b3b3b3;stroke:#b3b3b3;stroke-width:0.132292"
       id="path13051" />
    <path
       d="M 15.55974,3.6697451 V 2.3326076 h 0.267428 V 2.0651801 h 0.267427 V 1.7977526 h 0.802283 v 0.2674275 h 0.267427 v 0.2674275 h 0.267428 v 1.3371375 h -0.534855 v -0.534855 h -0.802283 v 0.534855 z m 0.534855,-0.8022825 h 0.802283 V 2.3326076 H 16.62945 V 2.0651801 h -0.267427 v 0.2674275 h -0.267428 z"
       style="font-size:2.13942px;line-height:1.25;font-family:'Press Start 2P';-inkscape-font-specification:'Press Start 2P, Normal';fill:#b3b3b3;stroke:#b3b3b3;stroke-width:0.132292"
       id="path13053" />
    <path
       d="M 17.699161,3.6697451 V 1.7977526 h 0.534855 v 0.2674275 h 0.267427 v 0.2674275 h 0.267428 V 2.0651801 h 0.267427 V 1.7977526 h 0.534855 v 1.8719925 h -0.534855 v -1.06971 h -0.267427 v 0.534855 h -0.267428 v -0.534855 h -0.267427 v 1.06971 z"
       style="font-size:2.13942px;line-height:1.25;font-family:'Press Start 2P';-inkscape-font-specification:'Press Start 2P, Normal';fill:#b3b3b3;stroke:#b3b3b3;stroke-width:0.132292"
       id="path13055" />
    <path
       d="M 19.83858,3.6697451 V 1.7977526 h 1.604565 v 0.2674275 h 0.267428 v 0.8022825 h -0.267428 v 0.2674275 h -1.06971 v 0.534855 z m 0.534855,-0.8022825 h 0.802283 V 2.0651801 h -0.802283 z"
       style="font-size:2.13942px;line-height:1.25;font-family:'Press Start 2P';-inkscape-font-specification:'Press Start 2P, Normal';fill:#b3b3b3;stroke:#b3b3b3;stroke-width:0.132292"
       id="path13057" />
    <path
       d="M 22.245427,3.6697451 V 1.7977526 h 0.534855 v 1.604565 h 1.06971 v 0.2674275 z"
       style="font-size:2.13942px;line-height:1.25;font-family:'Press Start 2P';-inkscape-font-specification:'Press Start 2P, Normal';fill:#b3b3b3;stroke:#b3b3b3;stroke-width:0.132292"
       id="path13059" />
    <path
       d="M 24.117419,3.6697451 V 1.7977526 h 1.871993 v 0.2674275 h -1.337138 v 0.534855 h 1.069711 v 0.2674275 h -1.069711 v 0.534855 h 1.337138 v 0.2674275 z"
       style="font-size:2.13942px;line-height:1.25;font-family:'Press Start 2P';-inkscape-font-specification:'Press Start 2P, Normal';fill:#b3b3b3;stroke:#b3b3b3;stroke-width:0.132292"
       id="path13061" />
    <path
       d="M 2.8847058,3.484595 V 3.2171675 H 2.6172783 V 2.94974 h 0.534855 V 3.2171675 H 3.9544159 V 2.6823125 H 2.8847058 V 2.414885 H 2.6172783 V 1.88003 H 2.8847058 V 1.6126025 H 4.2218434 V 1.88003 H 4.4892709 V 2.1474575 H 3.9544159 V 1.88003 H 3.1521333 v 0.534855 h 1.0697101 v 0.2674275 h 0.2674275 v 0.534855 H 4.2218434 V 3.484595 Z"
       style="font-size:2.13942px;line-height:1.25;font-family:'Press Start 2P';-inkscape-font-specification:'Press Start 2P, Normal';fill:url(#linearGradient12993);stroke:url(#linearGradient12995);stroke-width:0.132292"
       id="path12954" />
    <path
       d="M 4.7566984,3.484595 V 1.6126025 H 6.6286909 V 1.88003 H 5.2915534 v 0.534855 h 1.06971 v 0.2674275 h -1.06971 v 0.534855 H 6.6286909 V 3.484595 Z"
       style="font-size:2.13942px;line-height:1.25;font-family:'Press Start 2P';-inkscape-font-specification:'Press Start 2P, Normal';fill:url(#linearGradient12997);stroke:url(#linearGradient12999);stroke-width:0.132292"
       id="path12956" />
    <path
       d="M 6.8961184,3.484595 V 1.6126025 H 8.7681109 V 1.88003 H 7.4309734 v 0.534855 h 1.06971 v 0.2674275 h -1.06971 v 0.534855 H 8.7681109 V 3.484595 Z"
       style="font-size:2.13942px;line-height:1.25;font-family:'Press Start 2P';-inkscape-font-specification:'Press Start 2P, Normal';fill:url(#linearGradient13001);stroke:url(#linearGradient13003);stroke-width:0.132292"
       id="path12958" />
    <path
       d="M 11.174958,3.484595 V 1.6126025 h 1.871993 V 1.88003 h -1.337138 v 0.534855 h 1.06971 v 0.2674275 h -1.06971 v 0.534855 h 1.337138 V 3.484595 Z"
       style="font-size:2.13942px;line-height:1.25;font-family:'Press Start 2P';-inkscape-font-specification:'Press Start 2P, Normal';fill:url(#linearGradient13005);stroke:url(#linearGradient13007);stroke-width:0.132292"
       id="path12960" />
    <path
       d="M 13.314378,3.484595 V 2.94974 h 0.267428 V 2.6823125 h 0.267427 V 2.414885 H 13.581806 V 2.1474575 h -0.267428 v -0.534855 h 0.534855 v 0.534855 h 0.267428 V 2.414885 h 0.267427 V 2.1474575 h 0.267428 v -0.534855 h 0.534855 v 0.534855 H 14.918943 V 2.414885 h -0.267427 v 0.2674275 h 0.267427 V 2.94974 h 0.267428 V 3.484595 H 14.651516 V 2.94974 H 14.384088 V 2.6823125 H 14.116661 V 2.94974 h -0.267428 v 0.534855 z"
       style="font-size:2.13942px;line-height:1.25;font-family:'Press Start 2P';-inkscape-font-specification:'Press Start 2P, Normal';fill:url(#linearGradient13009);stroke:url(#linearGradient13011);stroke-width:0.132292"
       id="path12962" />
    <path
       d="M 15.453799,3.484595 V 2.1474575 h 0.267427 V 1.88003 h 0.267428 V 1.6126025 h 0.802282 V 1.88003 h 0.267428 v 0.2674275 h 0.267427 V 3.484595 H 16.790936 V 2.94974 h -0.802282 v 0.534855 z m 0.534855,-0.8022825 h 0.802282 V 2.1474575 H 16.523509 V 1.88003 h -0.267428 v 0.2674275 h -0.267427 z"
       style="font-size:2.13942px;line-height:1.25;font-family:'Press Start 2P';-inkscape-font-specification:'Press Start 2P, Normal';fill:url(#linearGradient13013);stroke:url(#linearGradient13015);stroke-width:0.132292"
       id="path12964" />
    <path
       d="M 17.593219,3.484595 V 1.6126025 h 0.534855 V 1.88003 h 0.267428 v 0.2674275 h 0.267427 V 1.88003 h 0.267428 V 1.6126025 h 0.534855 V 3.484595 H 18.930357 V 2.414885 H 18.662929 V 2.94974 H 18.395502 V 2.414885 h -0.267428 v 1.06971 z"
       style="font-size:2.13942px;line-height:1.25;font-family:'Press Start 2P';-inkscape-font-specification:'Press Start 2P, Normal';fill:url(#linearGradient13017);stroke:url(#linearGradient13019);stroke-width:0.132292"
       id="path12966" />
    <path
       d="M 19.732639,3.484595 V 1.6126025 h 1.604565 V 1.88003 h 0.267427 V 2.6823125 H 21.337204 V 2.94974 h -1.06971 v 0.534855 z m 0.534855,-0.8022825 h 0.802282 V 1.88003 h -0.802282 z"
       style="font-size:2.13942px;line-height:1.25;font-family:'Press Start 2P';-inkscape-font-specification:'Press Start 2P, Normal';fill:url(#linearGradient13021);stroke:url(#linearGradient13023);stroke-width:0.132292"
       id="path12968" />
    <path
       d="M 22.139486,3.484595 V 1.6126025 h 0.534855 v 1.604565 h 1.06971 V 3.484595 Z"
       style="font-size:2.13942px;line-height:1.25;font-family:'Press Start 2P';-inkscape-font-specification:'Press Start 2P, Normal';fill:url(#linearGradient13025);stroke:url(#linearGradient13027);stroke-width:0.132292"
       id="path12970" />
    <path
       d="M 24.011478,3.484595 V 1.6126025 H 25.88347 V 1.88003 h -1.337137 v 0.534855 h 1.06971 v 0.2674275 h -1.06971 v 0.534855 H 25.88347 V 3.484595 Z"
       style="font-size:2.13942px;line-height:1.25;font-family:'Press Start 2P';-inkscape-font-specification:'Press Start 2P, Normal';fill:url(#linearGradient13029);stroke:url(#linearGradient13031);stroke-width:0.132292"
       id="path12972" />
  </g>
</svg>
